<svg width="92" height="88" viewBox="0 0 92 88" fill="none" xmlns="http://www.w3.org/2000/svg">
<path d="M0 7.99727C0 3.5805 3.5633 0 7.95885 0H15.9177C20.3132 0 23.8765 3.5805 23.8765 7.99727V87.97H7.95885C3.5633 87.97 0 84.3895 0 79.9727V7.99727Z" fill="#24AF86"/>
<path d="M23.8765 39.9864C23.8765 35.5696 27.4398 31.9891 31.8354 31.9891H39.7942C44.1898 31.9891 47.7531 35.5696 47.7531 39.9864V79.9727C47.7531 84.3895 44.1898 87.97 39.7942 87.97H23.8765V39.9864Z" fill="#FAA746"/>
<path d="M49.09 50.7719C46.7033 47.063 47.757 42.1062 51.4434 39.7006L58.1182 35.345C61.8046 32.9395 66.7279 33.9961 69.1146 37.705L90.7222 71.2833C93.1089 74.9923 92.0553 79.9491 88.3689 82.3546L81.694 86.7103C78.0076 89.1158 73.0844 88.0592 70.6977 84.3502L49.09 50.7719Z" fill="#E75A51"/>
</svg>
