<svg width="173" height="40" viewBox="0 0 173 40" fill="none" xmlns="http://www.w3.org/2000/svg">
<path d="M82.3343 39.9356C81.5292 39.9356 80.9091 39.7211 80.4739 39.292C80.0605 38.8628 79.8538 38.2513 79.8538 37.4575V19.1448C79.8538 18.3295 80.0605 17.718 80.4739 17.3103C80.9091 16.8812 81.5292 16.6667 82.3343 16.6667C83.1176 16.6667 83.716 16.8812 84.1294 17.3103C84.5645 17.718 84.7821 18.3295 84.7821 19.1448V30.377H84.8474L89.5799 25.1954C90.0586 24.659 90.4937 24.2621 90.8854 24.0046C91.2988 23.7257 91.8428 23.5862 92.5173 23.5862C93.1918 23.5862 93.7031 23.7578 94.0512 24.1011C94.4211 24.4444 94.6061 24.8628 94.6061 25.3563C94.6279 25.8283 94.4212 26.3111 93.986 26.8046L88.9924 32.308V30.4736L94.5408 36.7816C94.9542 37.2751 95.1283 37.7686 95.063 38.2621C95.0195 38.7556 94.8019 39.1632 94.4103 39.4851C94.0186 39.7854 93.5182 39.9356 92.9089 39.9356C92.1691 39.9356 91.5708 39.7962 91.1139 39.5172C90.6787 39.2383 90.2326 38.8092 89.7757 38.2299L84.8474 32.823H84.7821V37.4575C84.7821 39.1096 83.9662 39.9356 82.3343 39.9356Z" fill="#264653"/>
<path d="M103.966 40C103.009 40 102.019 39.9142 100.996 39.7425C99.9951 39.5709 99.0812 39.2812 98.2544 38.8736C97.8192 38.659 97.5037 38.3908 97.3079 38.069C97.1338 37.7257 97.0577 37.3824 97.0794 37.0391C97.1012 36.6958 97.21 36.3847 97.4058 36.1057C97.6234 35.8268 97.8954 35.6444 98.2218 35.5586C98.5699 35.4513 98.9507 35.4835 99.3641 35.6552C100.256 36.0199 101.072 36.2774 101.812 36.4276C102.552 36.5778 103.281 36.6529 103.999 36.6529C104.934 36.6529 105.609 36.5134 106.022 36.2345C106.457 35.9341 106.675 35.5479 106.675 35.0759C106.675 34.6467 106.534 34.3249 106.251 34.1103C105.968 33.8958 105.554 33.7456 105.01 33.6598L101.583 33.0483C100.234 32.8123 99.19 32.3295 98.4502 31.6C97.7322 30.849 97.3732 29.8942 97.3732 28.7356C97.3732 27.6628 97.6778 26.7402 98.287 25.9678C98.8963 25.1739 99.734 24.5732 100.8 24.1655C101.888 23.7364 103.117 23.5218 104.488 23.5218C105.467 23.5218 106.37 23.6077 107.197 23.7793C108.024 23.9509 108.818 24.2299 109.58 24.6161C109.971 24.8092 110.243 25.0667 110.396 25.3885C110.57 25.7103 110.624 26.0429 110.559 26.3862C110.515 26.7295 110.385 27.0406 110.167 27.3195C109.95 27.5985 109.667 27.7808 109.319 27.8667C108.992 27.9525 108.611 27.9096 108.176 27.7379C107.48 27.4161 106.838 27.1908 106.251 27.0621C105.663 26.9119 105.097 26.8368 104.553 26.8368C103.574 26.8368 102.867 26.9977 102.432 27.3195C101.997 27.6199 101.779 28.0061 101.779 28.4782C101.779 28.8429 101.899 29.154 102.138 29.4115C102.399 29.6475 102.791 29.8084 103.313 29.8942L106.74 30.5057C108.155 30.7418 109.232 31.2138 109.971 31.9218C110.711 32.6084 111.081 33.5525 111.081 34.754C111.081 36.3847 110.428 37.672 109.123 38.6161C107.839 39.5387 106.12 40 103.966 40Z" fill="#264653"/>
<path d="M116.374 39.9356C115.569 39.9356 114.949 39.7211 114.514 39.292C114.101 38.8628 113.894 38.2513 113.894 37.4575V19.1448C113.894 18.3295 114.101 17.718 114.514 17.3103C114.949 16.8812 115.569 16.6667 116.374 16.6667C117.158 16.6667 117.756 16.8812 118.17 17.3103C118.605 17.718 118.822 18.3295 118.822 19.1448V26.8046H118.365C118.866 25.7532 119.606 24.9487 120.585 24.3908C121.586 23.8115 122.717 23.5218 123.979 23.5218C125.263 23.5218 126.318 23.7686 127.145 24.2621C127.972 24.7341 128.592 25.4636 129.005 26.4506C129.419 27.4161 129.625 28.6498 129.625 30.1517V37.4575C129.625 38.2513 129.408 38.8628 128.973 39.292C128.559 39.7211 127.95 39.9356 127.145 39.9356C126.362 39.9356 125.752 39.7211 125.317 39.292C124.904 38.8628 124.697 38.2513 124.697 37.4575V30.377C124.697 29.2828 124.49 28.4996 124.077 28.0276C123.685 27.5341 123.076 27.2873 122.249 27.2873C121.205 27.2873 120.367 27.6092 119.736 28.2529C119.127 28.8965 118.822 29.7548 118.822 30.8276V37.4575C118.822 39.1096 118.006 39.9356 116.374 39.9356Z" fill="#264653"/>
<path d="M141.627 40C139.734 40 138.102 39.6674 136.732 39.0023C135.382 38.3157 134.338 37.3609 133.598 36.1379C132.88 34.8935 132.521 33.4345 132.521 31.7609C132.521 30.1303 132.869 28.7034 133.566 27.4805C134.262 26.236 135.23 25.2705 136.47 24.5839C137.732 23.8759 139.158 23.5218 140.746 23.5218C141.899 23.5218 142.944 23.7149 143.879 24.1011C144.815 24.4659 145.62 25.0023 146.294 25.7103C146.969 26.3969 147.48 27.2444 147.828 28.2529C148.177 29.2398 148.351 30.3448 148.351 31.5678C148.351 31.9755 148.22 32.2866 147.959 32.5011C147.698 32.6942 147.317 32.7908 146.817 32.7908H136.568V30.2805H144.793L144.271 30.731C144.271 29.8513 144.14 29.1218 143.879 28.5425C143.618 27.9418 143.237 27.4912 142.737 27.1908C142.258 26.8904 141.66 26.7402 140.942 26.7402C140.137 26.7402 139.451 26.9226 138.886 27.2873C138.32 27.6521 137.885 28.1778 137.58 28.8644C137.276 29.551 137.123 30.377 137.123 31.3425V31.6C137.123 33.2306 137.504 34.4322 138.265 35.2046C139.049 35.977 140.202 36.3632 141.725 36.3632C142.247 36.3632 142.846 36.2988 143.52 36.1701C144.195 36.0414 144.826 35.8375 145.413 35.5586C145.914 35.3226 146.36 35.2475 146.751 35.3333C147.143 35.3977 147.448 35.5693 147.665 35.8483C147.883 36.1272 148.002 36.449 148.024 36.8138C148.068 37.1785 147.992 37.5433 147.796 37.908C147.6 38.2513 147.274 38.541 146.817 38.777C146.077 39.1847 145.239 39.4851 144.303 39.6782C143.39 39.8927 142.498 40 141.627 40Z" fill="#264653"/>
<path d="M156.994 40C155.057 40 153.611 39.4743 152.653 38.423C151.696 37.3502 151.217 35.7624 151.217 33.6598V19.1448C151.217 18.3295 151.424 17.718 151.837 17.3103C152.272 16.8812 152.893 16.6667 153.698 16.6667C154.481 16.6667 155.079 16.8812 155.493 17.3103C155.928 17.718 156.145 18.3295 156.145 19.1448V33.4667C156.145 34.3464 156.33 35.0008 156.7 35.4299C157.092 35.8375 157.603 36.0414 158.234 36.0414C158.408 36.0414 158.571 36.0306 158.724 36.0092C158.876 35.9877 159.039 35.977 159.213 35.977C159.561 35.9341 159.801 36.0414 159.931 36.2988C160.084 36.5349 160.16 37.0176 160.16 37.7471C160.16 38.3908 160.029 38.8843 159.768 39.2276C159.507 39.5494 159.105 39.764 158.561 39.8713C158.343 39.8927 158.093 39.9142 157.81 39.9356C157.527 39.9785 157.255 40 156.994 40Z" fill="#264653"/>
<path d="M165.424 39.9356C164.619 39.9356 163.999 39.7211 163.564 39.292C163.15 38.8628 162.943 38.2513 162.943 37.4575V27.4805H161.769C161.159 27.4805 160.681 27.3195 160.332 26.9977C160.006 26.6759 159.843 26.236 159.843 25.6782C159.843 25.0774 160.006 24.6268 160.332 24.3264C160.681 24.0046 161.159 23.8437 161.769 23.8437H164.38L162.943 25.131V24.1333C162.943 21.8375 163.52 20.1211 164.673 18.9839C165.848 17.8467 167.567 17.1601 169.83 16.9241L170.874 16.8276C171.44 16.7847 171.886 16.8705 172.213 17.085C172.561 17.2996 172.789 17.5785 172.898 17.9218C173.007 18.2651 173.029 18.6191 172.963 18.9839C172.898 19.3272 172.746 19.6383 172.506 19.9172C172.289 20.1747 171.984 20.3142 171.592 20.3356L171.136 20.3678C169.961 20.4536 169.123 20.7326 168.622 21.2046C168.122 21.6552 167.872 22.3525 167.872 23.2965V24.3908L167.252 23.8437H170.189C170.82 23.8437 171.299 24.0046 171.625 24.3264C171.952 24.6268 172.115 25.0774 172.115 25.6782C172.115 26.236 171.952 26.6759 171.625 26.9977C171.299 27.3195 170.82 27.4805 170.189 27.4805H167.872V37.4575C167.872 39.1096 167.056 39.9356 165.424 39.9356Z" fill="#264653"/>
<path fill-rule="evenodd" clip-rule="evenodd" d="M52.8493 36.6284C56.2291 36.6284 58.9689 33.9266 58.9689 30.5939C58.9689 27.2611 56.2291 24.5594 52.8493 24.5594C49.4695 24.5594 46.7297 27.2611 46.7297 30.5939C46.7297 33.9266 49.4695 36.6284 52.8493 36.6284ZM52.8493 39.6456C57.9189 39.6456 62.0287 35.593 62.0287 30.5939C62.0287 25.5947 57.9189 21.5421 52.8493 21.5421C47.7797 21.5421 43.6699 25.5947 43.6699 30.5939C43.6699 35.593 47.7797 39.6456 52.8493 39.6456Z" fill="#264653"/>
<path fill-rule="evenodd" clip-rule="evenodd" d="M68.1482 36.6284C71.528 36.6284 74.2678 33.9266 74.2678 30.5939C74.2678 27.2611 71.528 24.5594 68.1482 24.5594C64.7685 24.5594 62.0287 27.2611 62.0287 30.5939C62.0287 33.9266 64.7685 36.6284 68.1482 36.6284ZM68.1482 39.6456C73.2179 39.6456 77.3276 35.593 77.3276 30.5939C77.3276 25.5947 73.2179 21.5421 68.1482 21.5421C63.0786 21.5421 58.9689 25.5947 58.9689 30.5939C58.9689 35.593 63.0786 39.6456 68.1482 39.6456Z" fill="#264653"/>
<ellipse cx="53.944" cy="32.067" rx="2.81331" ry="3.73333" fill="#264653"/>
<ellipse cx="69.4173" cy="32.067" rx="2.81331" ry="3.73333" fill="#264653"/>
<path d="M0 3.63512C0 1.6275 1.65688 0 3.70075 0H7.4015C9.44537 0 11.1023 1.6275 11.1023 3.63512V39.9864H3.70075C1.65688 39.9864 0 38.3589 0 36.3512V3.63512Z" fill="#24AF86"/>
<path d="M11.1023 18.1756C11.1023 16.168 12.7591 14.5405 14.803 14.5405H18.5037C20.5476 14.5405 22.2045 16.168 22.2045 18.1756V36.3512C22.2045 38.3589 20.5476 39.9864 18.5037 39.9864H11.1023V18.1756Z" fill="#FAA746"/>
<path d="M22.8262 23.0781C21.7164 21.3923 22.2063 19.1392 23.9204 18.0457L27.0241 16.0659C28.7383 14.9725 31.0275 15.4528 32.1373 17.1387L42.1845 32.4015C43.2943 34.0874 42.8044 36.3405 41.0903 37.4339L37.9866 39.4137C36.2724 40.5072 33.9832 40.0269 32.8734 38.341L22.8262 23.0781Z" fill="#E75A51"/>
</svg>
