<svg width="173" height="40" viewBox="0 0 173 40" fill="none" xmlns="http://www.w3.org/2000/svg">
<path d="M82.3343 39.9357C81.5292 39.9357 80.9091 39.7212 80.4739 39.292C80.0605 38.8629 79.8538 38.2514 79.8538 37.4576V19.1449C79.8538 18.3296 80.0605 17.7181 80.4739 17.3104C80.9091 16.8813 81.5292 16.6667 82.3343 16.6667C83.1176 16.6667 83.716 16.8813 84.1294 17.3104C84.5645 17.7181 84.7821 18.3296 84.7821 19.1449V30.3771H84.8474L89.5799 25.1955C90.0586 24.6591 90.4937 24.2622 90.8854 24.0047C91.2988 23.7258 91.8428 23.5863 92.5173 23.5863C93.1918 23.5863 93.7031 23.7579 94.0512 24.1012C94.4211 24.4445 94.6061 24.8629 94.6061 25.3564C94.6279 25.8284 94.4212 26.3112 93.986 26.8047L88.9924 32.3081V30.4736L94.5408 36.7817C94.9542 37.2752 95.1283 37.7687 95.063 38.2622C95.0195 38.7556 94.8019 39.1633 94.4103 39.4851C94.0186 39.7855 93.5182 39.9357 92.9089 39.9357C92.1691 39.9357 91.5708 39.7963 91.1139 39.5173C90.6787 39.2384 90.2326 38.8093 89.7757 38.23L84.8474 32.8231H84.7821V37.4576C84.7821 39.1097 83.9662 39.9357 82.3343 39.9357Z" fill="white"/>
<path d="M103.966 40.0001C103.009 40.0001 102.019 39.9143 100.996 39.7426C99.9951 39.571 99.0812 39.2813 98.2544 38.8736C97.8192 38.6591 97.5037 38.3909 97.3079 38.0691C97.1338 37.7258 97.0577 37.3825 97.0794 37.0392C97.1012 36.6959 97.21 36.3848 97.4058 36.1058C97.6234 35.8269 97.8954 35.6445 98.2218 35.5587C98.5699 35.4514 98.9507 35.4836 99.3641 35.6553C100.256 36.02 101.072 36.2775 101.812 36.4277C102.552 36.5779 103.281 36.653 103.999 36.653C104.934 36.653 105.609 36.5135 106.022 36.2346C106.457 35.9342 106.675 35.548 106.675 35.0759C106.675 34.6468 106.534 34.325 106.251 34.1104C105.968 33.8959 105.554 33.7457 105.01 33.6599L101.583 33.0484C100.234 32.8123 99.19 32.3296 98.4502 31.6001C97.7322 30.8491 97.3732 29.8943 97.3732 28.7357C97.3732 27.6629 97.6778 26.7403 98.287 25.9679C98.8963 25.174 99.734 24.5733 100.8 24.1656C101.888 23.7365 103.117 23.5219 104.488 23.5219C105.467 23.5219 106.37 23.6077 107.197 23.7794C108.024 23.951 108.818 24.23 109.58 24.6162C109.971 24.8093 110.243 25.0668 110.396 25.3886C110.57 25.7104 110.624 26.043 110.559 26.3863C110.515 26.7296 110.385 27.0407 110.167 27.3196C109.95 27.5986 109.667 27.7809 109.319 27.8667C108.992 27.9526 108.611 27.9097 108.176 27.738C107.48 27.4162 106.838 27.1909 106.251 27.0622C105.663 26.912 105.097 26.8369 104.553 26.8369C103.574 26.8369 102.867 26.9978 102.432 27.3196C101.997 27.62 101.779 28.0062 101.779 28.4782C101.779 28.843 101.899 29.1541 102.138 29.4116C102.399 29.6476 102.791 29.8085 103.313 29.8943L106.74 30.5058C108.155 30.7418 109.232 31.2139 109.971 31.9219C110.711 32.6085 111.081 33.5526 111.081 34.7541C111.081 36.3848 110.428 37.6721 109.123 38.6162C107.839 39.5388 106.12 40.0001 103.966 40.0001Z" fill="white"/>
<path d="M116.374 39.9357C115.569 39.9357 114.949 39.7212 114.514 39.292C114.101 38.8629 113.894 38.2514 113.894 37.4576V19.1449C113.894 18.3296 114.101 17.7181 114.514 17.3104C114.949 16.8813 115.569 16.6667 116.374 16.6667C117.158 16.6667 117.756 16.8813 118.17 17.3104C118.605 17.7181 118.822 18.3296 118.822 19.1449V26.8047H118.365C118.866 25.7533 119.606 24.9487 120.585 24.3909C121.586 23.8116 122.717 23.5219 123.979 23.5219C125.263 23.5219 126.318 23.7687 127.145 24.2622C127.972 24.7342 128.592 25.4637 129.005 26.4507C129.419 27.4162 129.625 28.6499 129.625 30.1518V37.4576C129.625 38.2514 129.408 38.8629 128.973 39.292C128.559 39.7212 127.95 39.9357 127.145 39.9357C126.362 39.9357 125.752 39.7212 125.317 39.292C124.904 38.8629 124.697 38.2514 124.697 37.4576V30.3771C124.697 29.2828 124.49 28.4997 124.077 28.0277C123.685 27.5342 123.076 27.2874 122.249 27.2874C121.205 27.2874 120.367 27.6093 119.736 28.253C119.127 28.8966 118.822 29.7549 118.822 30.8277V37.4576C118.822 39.1097 118.006 39.9357 116.374 39.9357Z" fill="white"/>
<path d="M141.627 40.0001C139.734 40.0001 138.102 39.6675 136.732 39.0024C135.382 38.3158 134.338 37.361 133.598 36.138C132.88 34.8936 132.521 33.4346 132.521 31.761C132.521 30.1304 132.869 28.7035 133.566 27.4805C134.262 26.2361 135.23 25.2706 136.47 24.584C137.732 23.8759 139.158 23.5219 140.746 23.5219C141.899 23.5219 142.944 23.715 143.879 24.1012C144.815 24.466 145.62 25.0024 146.294 25.7104C146.969 26.397 147.48 27.2445 147.828 28.253C148.177 29.2399 148.351 30.3449 148.351 31.5679C148.351 31.9756 148.22 32.2867 147.959 32.5012C147.698 32.6943 147.317 32.7909 146.817 32.7909H136.568V30.2805H144.793L144.271 30.7311C144.271 29.8514 144.14 29.1219 143.879 28.5426C143.618 27.9418 143.237 27.4913 142.737 27.1909C142.258 26.8905 141.66 26.7403 140.942 26.7403C140.137 26.7403 139.451 26.9227 138.886 27.2874C138.32 27.6522 137.885 28.1779 137.58 28.8645C137.276 29.551 137.123 30.3771 137.123 31.3426V31.6001C137.123 33.2307 137.504 34.4323 138.265 35.2047C139.049 35.9771 140.202 36.3633 141.725 36.3633C142.247 36.3633 142.846 36.2989 143.52 36.1702C144.195 36.0415 144.826 35.8376 145.413 35.5587C145.914 35.3227 146.36 35.2476 146.751 35.3334C147.143 35.3978 147.448 35.5694 147.665 35.8484C147.883 36.1273 148.002 36.4491 148.024 36.8139C148.068 37.1786 147.992 37.5434 147.796 37.9081C147.6 38.2514 147.274 38.5411 146.817 38.7771C146.077 39.1848 145.239 39.4851 144.303 39.6782C143.39 39.8928 142.498 40.0001 141.627 40.0001Z" fill="white"/>
<path d="M156.994 40.0001C155.057 40.0001 153.611 39.4744 152.653 38.4231C151.696 37.3503 151.217 35.7625 151.217 33.6599V19.1449C151.217 18.3296 151.424 17.7181 151.837 17.3104C152.272 16.8813 152.893 16.6667 153.698 16.6667C154.481 16.6667 155.079 16.8813 155.493 17.3104C155.928 17.7181 156.145 18.3296 156.145 19.1449V33.4668C156.145 34.3464 156.33 35.0009 156.7 35.43C157.092 35.8376 157.603 36.0415 158.234 36.0415C158.408 36.0415 158.571 36.0307 158.724 36.0093C158.876 35.9878 159.039 35.9771 159.213 35.9771C159.561 35.9342 159.801 36.0415 159.931 36.2989C160.084 36.535 160.16 37.0177 160.16 37.7472C160.16 38.3909 160.029 38.8844 159.768 39.2277C159.507 39.5495 159.105 39.7641 158.561 39.8714C158.343 39.8928 158.093 39.9143 157.81 39.9357C157.527 39.9786 157.255 40.0001 156.994 40.0001Z" fill="white"/>
<path d="M165.424 39.9357C164.619 39.9357 163.999 39.7212 163.564 39.292C163.15 38.8629 162.943 38.2514 162.943 37.4576V27.4805H161.769C161.159 27.4805 160.681 27.3196 160.332 26.9978C160.006 26.6759 159.843 26.2361 159.843 25.6782C159.843 25.0775 160.006 24.6269 160.332 24.3265C160.681 24.0047 161.159 23.8438 161.769 23.8438H164.38L162.943 25.1311V24.1334C162.943 21.8376 163.52 20.1212 164.673 18.984C165.848 17.8468 167.567 17.1602 169.83 16.9242L170.874 16.8277C171.44 16.7848 171.886 16.8706 172.213 17.0851C172.561 17.2997 172.789 17.5786 172.898 17.9219C173.007 18.2652 173.029 18.6192 172.963 18.984C172.898 19.3273 172.746 19.6384 172.506 19.9173C172.289 20.1748 171.984 20.3143 171.592 20.3357L171.136 20.3679C169.961 20.4537 169.123 20.7326 168.622 21.2047C168.122 21.6553 167.872 22.3526 167.872 23.2966V24.3909L167.252 23.8438H170.189C170.82 23.8438 171.299 24.0047 171.625 24.3265C171.952 24.6269 172.115 25.0775 172.115 25.6782C172.115 26.2361 171.952 26.6759 171.625 26.9978C171.299 27.3196 170.82 27.4805 170.189 27.4805H167.872V37.4576C167.872 39.1097 167.056 39.9357 165.424 39.9357Z" fill="white"/>
<path fill-rule="evenodd" clip-rule="evenodd" d="M52.8493 36.6284C56.2291 36.6284 58.9689 33.9267 58.9689 30.594C58.9689 27.2612 56.2291 24.5595 52.8493 24.5595C49.4695 24.5595 46.7297 27.2612 46.7297 30.594C46.7297 33.9267 49.4695 36.6284 52.8493 36.6284ZM52.8493 39.6457C57.9189 39.6457 62.0287 35.5931 62.0287 30.594C62.0287 25.5948 57.9189 21.5422 52.8493 21.5422C47.7797 21.5422 43.6699 25.5948 43.6699 30.594C43.6699 35.5931 47.7797 39.6457 52.8493 39.6457Z" fill="white"/>
<path fill-rule="evenodd" clip-rule="evenodd" d="M68.1482 36.6284C71.528 36.6284 74.2678 33.9267 74.2678 30.594C74.2678 27.2612 71.528 24.5595 68.1482 24.5595C64.7685 24.5595 62.0287 27.2612 62.0287 30.594C62.0287 33.9267 64.7685 36.6284 68.1482 36.6284ZM68.1482 39.6457C73.2179 39.6457 77.3276 35.5931 77.3276 30.594C77.3276 25.5948 73.2179 21.5422 68.1482 21.5422C63.0786 21.5422 58.9689 25.5948 58.9689 30.594C58.9689 35.5931 63.0786 39.6457 68.1482 39.6457Z" fill="white"/>
<ellipse cx="53.944" cy="32.0671" rx="2.81331" ry="3.73333" fill="white"/>
<ellipse cx="69.4173" cy="32.0671" rx="2.81331" ry="3.73333" fill="white"/>
<path d="M0 3.63512C0 1.6275 1.65688 0 3.70075 0H7.4015C9.44537 0 11.1023 1.6275 11.1023 3.63512V39.9864H3.70075C1.65688 39.9864 0 38.3589 0 36.3512V3.63512Z" fill="#24AF86"/>
<path d="M11.1023 18.1756C11.1023 16.168 12.7591 14.5405 14.803 14.5405H18.5037C20.5476 14.5405 22.2045 16.168 22.2045 18.1756V36.3512C22.2045 38.3589 20.5476 39.9864 18.5037 39.9864H11.1023V18.1756Z" fill="#FAA746"/>
<path d="M22.8262 23.0781C21.7164 21.3923 22.2063 19.1392 23.9204 18.0457L27.0241 16.0659C28.7383 14.9725 31.0275 15.4528 32.1373 17.1387L42.1845 32.4015C43.2943 34.0874 42.8044 36.3405 41.0903 37.4339L37.9866 39.4137C36.2724 40.5072 33.9832 40.0269 32.8734 38.341L22.8262 23.0781Z" fill="#E75A51"/>
</svg>
