<svg width="603" height="394" viewBox="0 0 603 394" fill="none" xmlns="http://www.w3.org/2000/svg">
<g clip-path="url(#clip0_3598_3120)">
<path d="M278.387 390.692C278.387 393.673 234.956 393.5 181.385 393.5C127.814 393.5 84.3831 393.673 84.3831 390.692C84.3831 387.712 127.814 387.603 181.385 387.603C234.956 387.603 278.387 387.712 278.387 390.692Z" fill="#4F4F4F"/>
<path d="M31.1205 119.767H15.8689V187.596H31.1205V119.767Z" fill="#E0E0E0"/>
<path d="M84.4555 115.169H65.2549V187.605H84.4555V115.169Z" fill="#E0E0E0"/>
<path d="M103.593 128.653H84.3921V187.596H103.593V128.653Z" fill="#BDBDBD"/>
<path d="M283.189 128.653H263.988V187.596H283.189V128.653Z" fill="#E0E0E0"/>
<path d="M331.758 128.653H322.153V187.596H331.758V128.653Z" fill="#E0E0E0"/>
<path d="M470.33 128.653H455.196V187.596H470.33V128.653Z" fill="#BDBDBD"/>
<path d="M494.169 116.477H470.23V187.596H494.169V116.477Z" fill="#E0E0E0"/>
<path d="M352.538 113.851H331.758V187.596H352.538V113.851Z" fill="#BDBDBD"/>
<path d="M121.704 128.653H102.503V187.596H121.704V128.653Z" fill="#E0E0E0"/>
<path d="M48.6969 122.202L31.1064 125.947L44.2882 187.963L61.8787 184.218L48.6969 122.202Z" fill="#BDBDBD"/>
<path d="M549.411 187.605V171.804H498.935V187.605H549.411Z" fill="#E0E0E0"/>
<path d="M563.228 171.804V159.328H494.187V171.804H563.228Z" fill="#BDBDBD"/>
<path d="M552.389 159.31V146.835H498.945V159.31H552.389Z" fill="#E0E0E0"/>
<path d="M558.435 146.844V126.463H499.816V146.844H558.435Z" fill="#BDBDBD"/>
<path d="M286.022 182.346L295.67 187.31L321.88 136.289L312.232 131.324L286.022 182.346Z" fill="#BDBDBD"/>
<path d="M568.075 131.306L558.427 136.271L584.637 187.293L594.285 182.328L568.075 131.306Z" fill="#E0E0E0"/>
<path d="M419.919 180.677L432.804 187.308L455.208 143.696L442.322 137.065L419.919 180.677Z" fill="#E0E0E0"/>
<path d="M257.488 35.2005H240.621V98.4865H257.488V35.2005Z" fill="#E0E0E0"/>
<path d="M50.1578 38.4261H34.9062V98.4774H50.1578V38.4261Z" fill="#E0E0E0"/>
<path d="M34.8955 63.1751L29.9849 61.1272L14.9951 97.134L19.9057 99.1819L34.8955 63.1751Z" fill="#BDBDBD"/>
<path d="M452.6 38.4261H437.348V98.4774H452.6V38.4261Z" fill="#BDBDBD"/>
<path d="M437.32 63.2088L432.409 61.1609L417.419 97.1677L422.33 99.2156L437.32 63.2088Z" fill="#E0E0E0"/>
<path d="M60.7681 42.4463L50.157 44.7057L62.0844 100.821L72.6955 98.5613L60.7681 42.4463Z" fill="#BDBDBD"/>
<path d="M310.052 98.8863H328.626V25.7508H310.052V98.8863Z" fill="#BDBDBD"/>
<path d="M341.363 98.8863H360.291V25.7508H341.363V98.8863Z" fill="#BDBDBD"/>
<path d="M282.595 98.0809L295.515 100.832L310.041 32.4877L297.122 29.7368L282.595 98.0809Z" fill="#E0E0E0"/>
<path d="M93.9969 36.7906H76.8389V98.4865H93.9969V36.7906Z" fill="#E0E0E0"/>
<path d="M135.439 45.7224H122.566V98.4774H135.439V45.7224Z" fill="#E0E0E0"/>
<path d="M341.354 45.7224H328.481V98.4774H341.354V45.7224Z" fill="#E0E0E0"/>
<path d="M379.419 38.1172H360.282V98.4774H379.419V38.1172Z" fill="#E0E0E0"/>
<path d="M398.565 30.3121H379.428V98.4774H398.565V30.3121Z" fill="#BDBDBD"/>
<path d="M413.054 36.3817H398.565V98.4774H413.054V36.3817Z" fill="#E0E0E0"/>
<path d="M273.593 35.2005H256.726V98.4865H273.593V35.2005Z" fill="#BDBDBD"/>
<path d="M167.54 45.7224H147.777V98.4774H167.54V45.7224Z" fill="#E0E0E0"/>
<path d="M147.777 41.5064H134.904V98.4774H147.777V41.5064Z" fill="#BDBDBD"/>
<path d="M465.464 45.7224H452.591V98.4774H465.464V45.7224Z" fill="#E0E0E0"/>
<path d="M586.595 38.4261H571.344V98.4774H586.595V38.4261Z" fill="#E0E0E0"/>
<path d="M599.459 45.7224H586.586V98.4774H599.459V45.7224Z" fill="#BDBDBD"/>
<path d="M477.801 41.5064H464.928V98.4774H477.801V41.5064Z" fill="#BDBDBD"/>
<path d="M486.562 30.3121H477.801V98.4774H486.562V30.3121Z" fill="#E0E0E0"/>
<path d="M123.075 23.8154H93.9971V98.4774H123.075V23.8154Z" fill="#BDBDBD"/>
<path d="M270.607 220.016H261.002V278.958H270.607V220.016Z" fill="#E0E0E0"/>
<path d="M299.176 236.28H286.176V278.958H299.176V236.28Z" fill="#E0E0E0"/>
<path d="M261.138 214.7H247.865V278.459H261.138V214.7Z" fill="#BDBDBD"/>
<path d="M286.176 204.714H270.597V278.459H286.176V204.714Z" fill="#BDBDBD"/>
<path d="M314.763 204.714H299.185V278.459H314.763V204.714Z" fill="#BDBDBD"/>
<path d="M520.896 214.4H505.317V278.459H520.896V214.4Z" fill="#BDBDBD"/>
<path d="M558.235 214.4H536.129V278.459H558.235V214.4Z" fill="#BDBDBD"/>
<path d="M580.54 207.849H558.435V278.958H580.54V207.849Z" fill="#E0E0E0"/>
<path d="M587.895 212.653L580.539 214.201L593.599 276.336L600.955 274.787L587.895 212.653Z" fill="#BDBDBD"/>
<path d="M536.483 207.849H520.905V278.958H536.483V207.849Z" fill="#E0E0E0"/>
<path d="M477.647 277.759V262.167H403.967V277.759H477.647Z" fill="#E0E0E0"/>
<path d="M485.79 240.632V225.04H412.11V240.632H485.79Z" fill="#E0E0E0"/>
<path d="M489.176 225.422V217.78H402.342V225.422H489.176Z" fill="#BDBDBD"/>
<path d="M492.807 217.78V211.52H405.973V217.78H492.807Z" fill="#E0E0E0"/>
<path d="M494.178 261.676V240.142H408.125V261.676H494.178Z" fill="#BDBDBD"/>
<path d="M125.217 218.389H106.017V277.332H125.217V218.389Z" fill="#BDBDBD"/>
<path d="M143.329 218.389H124.128V277.332H143.329V218.389Z" fill="#E0E0E0"/>
<path d="M185.815 218.389H166.614V277.332H185.815V218.389Z" fill="#BDBDBD"/>
<path d="M203.926 218.389H184.726V277.332H203.926V218.389Z" fill="#E0E0E0"/>
<path d="M226.559 218.389H201.993V277.332H226.559V218.389Z" fill="#BDBDBD"/>
<path d="M599.405 105.674H3.59501C1.60686 105.674 0 104.065 0 102.076C0 100.095 1.60686 98.4774 3.59501 98.4774H599.405C601.384 98.4774 603 100.086 603 102.076C603 104.065 601.393 105.674 599.405 105.674Z" fill="#828282"/>
<path d="M599.405 194.619H3.59501C1.60686 194.619 0 193.011 0 191.021C0 189.031 1.60686 187.423 3.59501 187.423H599.405C601.384 187.423 603 189.031 603 191.021C603 193.011 601.393 194.619 599.405 194.619Z" fill="#828282"/>
<path d="M599.405 283.565H3.59501C1.60686 283.565 0 281.957 0 279.967C0 277.977 1.60686 276.369 3.59501 276.369H599.405C601.384 276.369 603 277.977 603 279.967C603 281.948 601.393 283.565 599.405 283.565Z" fill="#828282"/>
<path d="M405.81 116.477C391.203 131.488 387.98 152.932 386.718 161.082H400.699C409.105 137.794 405.81 116.477 405.81 116.477Z" fill="#BDBDBD"/>
<path d="M373.346 114.351C387.971 129.344 391.221 150.787 392.501 158.928L378.52 158.947C370.087 135.677 373.346 114.342 373.346 114.342V114.351Z" fill="#BDBDBD"/>
<path d="M417.748 126.463C403.486 138.711 402.342 149.052 400.553 156.239L409.677 157.929C419.055 137.785 417.748 126.463 417.748 126.463Z" fill="#BDBDBD"/>
<path d="M360.318 126.436C374.816 138.403 376.169 148.715 378.094 155.857L369.006 157.729C359.229 137.776 360.318 126.436 360.318 126.436Z" fill="#BDBDBD"/>
<path d="M410.503 187.596H363.941C356.959 180.608 358.475 153.077 358.475 153.077H415.978C415.978 153.077 417.485 180.608 410.503 187.596Z" fill="#828282"/>
<path d="M369.941 167.324C369.941 170.768 368.698 173.566 367.163 173.566C365.629 173.566 364.385 170.777 364.385 167.324C364.385 163.871 365.629 161.082 367.163 161.082C368.698 161.082 369.941 163.871 369.941 167.324Z" fill="#BDBDBD"/>
<path d="M379.428 169.996C379.428 171.967 378.185 173.566 376.65 173.566C375.116 173.566 373.872 171.967 373.872 169.996C373.872 168.024 375.116 166.425 376.65 166.425C378.185 166.425 379.428 168.024 379.428 169.996Z" fill="#BDBDBD"/>
<path d="M68.3415 242.059L66.5077 252.781L62.486 276.332H34.7608L30.7391 252.781L28.9053 242.059H68.3415Z" fill="#828282"/>
<path d="M67.3067 232.664C68.3144 231.301 70.0483 230.683 71.6915 231.11C76.9569 232.473 86.6162 235.771 88.1959 241.777C90.5925 250.891 79.4444 252.49 74.1426 246.711C70.9561 243.231 68.5232 239.651 67.0979 237.352C66.19 235.898 66.2717 234.036 67.2976 232.664H67.3067Z" fill="#E0E0E0"/>
<path d="M55.5137 310.997C56.3126 311.405 56.7938 312.25 56.7212 313.15C56.4851 316.021 55.6408 321.373 52.645 322.736C48.1058 324.808 46.272 319.129 48.8049 315.84C50.33 313.859 51.9823 312.269 53.0444 311.315C53.7253 310.715 54.6967 310.588 55.5047 310.997H55.5137Z" fill="#BDBDBD"/>
<path d="M59.9895 229.202L56.6759 230.856C54.9238 229.483 47.4342 223.196 48.5145 218.171C49.849 211.947 57.0481 214.391 58.4825 219.489C59.9169 224.586 59.9895 229.202 59.9895 229.202Z" fill="#BDBDBD"/>
<path d="M58.7274 228.42L57.9649 232.046C55.8042 232.564 46.2266 234.517 42.9675 230.547C38.9276 225.631 45.3188 221.506 50.1938 223.559C55.0689 225.613 58.7274 228.42 58.7274 228.42Z" fill="#E0E0E0"/>
<path d="M79.0992 305.654C80.2612 304.981 81.7138 305.072 82.7759 305.89C86.1803 308.525 92.172 313.94 91.4457 318.793C90.3473 326.162 81.741 323.835 79.6984 317.984C78.4637 314.458 77.8192 311.097 77.5014 308.988C77.3017 307.644 77.9372 306.326 79.1083 305.645L79.0992 305.654Z" fill="#E0E0E0"/>
<path d="M50.076 297.558C51.2381 296.886 52.6906 296.976 53.7527 297.794C57.1571 300.429 63.1488 305.845 62.4225 310.697C61.3241 318.066 52.7178 315.74 50.6752 309.888C49.4405 306.363 48.796 303.001 48.4782 300.893C48.2785 299.548 48.914 298.23 50.0851 297.549L50.076 297.558Z" fill="#E0E0E0"/>
<path d="M56.2764 279.676C57.8015 280.421 58.7275 282.011 58.6095 283.71C58.2373 289.144 56.7666 299.257 51.1562 301.91C42.6407 305.935 39.0366 295.259 43.7392 288.99C46.5716 285.21 49.6401 282.166 51.6373 280.348C52.8992 279.195 54.7421 278.931 56.2764 279.685V279.676Z" fill="#BDBDBD"/>
<path d="M78.8361 292.96C80.1616 293.16 81.2328 294.141 81.5506 295.45C82.5582 299.639 83.8383 307.616 80.2342 310.951C74.769 316.012 69.5127 308.807 71.5735 302.964C72.8172 299.439 74.415 296.422 75.4862 294.569C76.1671 293.396 77.4925 292.76 78.8271 292.969L78.8361 292.96Z" fill="#BDBDBD"/>
<path d="M77.3653 272.244C79.0357 271.971 80.7152 272.725 81.6049 274.179C84.4464 278.822 89.1036 287.917 86.0714 293.333C81.4687 301.556 72.345 294.95 72.5447 287.109C72.6627 282.384 73.4072 278.122 73.97 275.487C74.3332 273.815 75.6767 272.534 77.3653 272.253V272.244Z" fill="#E0E0E0"/>
<path d="M74.0699 264.62C75.6223 265.302 76.6118 266.855 76.5664 268.555C76.4212 273.997 75.3862 284.165 69.8939 287.054C61.56 291.443 57.502 280.921 61.9322 274.461C64.6012 270.572 67.5426 267.401 69.4581 265.492C70.6746 264.284 72.4993 263.948 74.0699 264.629V264.62Z" fill="#BDBDBD"/>
<path d="M70.1572 244.576C71.7368 243.949 73.5343 244.34 74.7054 245.566C78.4638 249.501 91.1826 263.693 87.7146 271.498C83.8927 280.112 75.2501 276.369 71.3464 266.919C69.5489 262.558 67.5245 251.154 67.5154 248.456C67.5154 246.738 68.5594 245.203 70.1481 244.576H70.1572Z" fill="#BDBDBD"/>
<path d="M54.27 260.849C55.9495 260.622 57.6017 261.44 58.4369 262.921C61.1241 267.655 65.4908 276.887 62.2861 282.202C57.4202 290.271 48.5143 283.374 48.9592 275.542C49.2315 270.826 50.103 266.592 50.7567 263.966C51.1743 262.303 52.5633 261.067 54.2609 260.84L54.27 260.849Z" fill="#E0E0E0"/>
<path d="M60.4706 240.914C62.014 241.614 62.9853 243.186 62.9127 244.876C62.6948 250.318 61.5147 260.468 55.9769 263.275C47.5794 267.546 43.6667 256.97 48.1968 250.573C50.9203 246.72 53.907 243.585 55.8498 241.705C57.0844 240.514 58.9092 240.196 60.4706 240.905V240.914Z" fill="#BDBDBD"/>
<path d="M62.2137 233.254C63.8024 232.655 65.5908 233.063 66.7438 234.317C70.4477 238.306 76.8026 246.302 74.8961 252.208C72.0001 261.176 61.7507 256.497 60.4071 248.774C59.5992 244.121 59.4811 239.796 59.5174 237.098C59.5447 235.38 60.6068 233.863 62.2137 233.254Z" fill="#E0E0E0"/>
<path d="M77.9826 221.815C79.5894 226.003 76.0398 231.264 70.0481 233.563C64.0564 235.862 57.9013 234.336 56.2945 230.147C54.6876 225.958 58.2372 220.697 64.2289 218.398C70.2206 216.099 76.3757 217.626 77.9826 221.815Z" fill="#BDBDBD"/>
<path d="M62.159 233.409C63.5208 237.688 59.6625 242.731 53.5528 244.676C47.4431 246.62 41.3878 244.73 40.0261 240.46C38.6644 236.18 42.5226 231.137 48.6323 229.193C54.7421 227.248 60.7973 229.138 62.159 233.409Z" fill="#BDBDBD"/>
<path d="M392.465 219.779H328.381C326.429 222.278 324.822 225.004 323.615 227.921H397.222C396.014 225.013 394.407 222.278 392.456 219.779H392.465Z" fill="#BDBDBD"/>
<path d="M399.755 240.541C399.755 251.854 393.999 261.949 385.011 268.509C378.275 273.434 369.733 276.378 360.427 276.378C351.122 276.378 342.579 273.434 335.843 268.509C326.856 261.949 321.1 251.854 321.1 240.541C321.1 236.098 321.999 231.846 323.624 227.912H397.231C398.865 231.846 399.755 236.098 399.755 240.541Z" fill="#828282"/>
<path d="M385.011 268.509C378.275 273.434 369.733 276.378 360.427 276.378C351.122 276.378 342.579 273.434 335.843 268.509C342.761 264.193 351.258 261.667 360.427 261.667C369.596 261.667 378.094 264.193 385.011 268.509Z" fill="#E0E0E0"/>
<path d="M348.299 240.523C348.362 240.333 350.959 231.873 357.459 234.081C363.959 236.289 362.788 241.623 362.788 241.623L348.299 240.514V240.523Z" fill="#E0E0E0"/>
<path d="M351.158 251.036C351.176 252.708 351.794 254.371 352.865 255.652C353.936 256.933 355.47 257.833 357.114 258.142L355.661 249.882L351.167 251.036H351.158Z" fill="#E0E0E0"/>
<path d="M378.856 255.788C372.973 256.542 364.73 248.383 364.73 248.383C364.73 248.383 363.296 247.565 362.452 246.784C362.197 246.566 361.998 246.339 361.916 246.139C361.998 245.939 362.197 245.712 362.452 245.494C363.296 244.712 364.73 243.894 364.73 243.894C364.73 243.894 372.973 235.735 378.856 236.489C378.856 236.489 378.747 243.74 367.663 246.139C378.747 248.537 378.856 255.788 378.856 255.788Z" fill="#E0E0E0"/>
<path d="M366.392 246.084C366.392 250.282 360.936 253.689 354.2 253.689C348.716 253.689 344.077 251.427 342.543 248.328C342.38 248.001 342.252 247.656 342.162 247.311C342.053 246.911 341.998 246.502 341.998 246.084C341.998 245.439 342.125 244.821 342.361 244.221C342.498 243.903 342.661 243.594 342.861 243.286C344.64 240.469 349.052 238.479 354.2 238.479C360.936 238.479 366.392 241.886 366.392 246.084Z" fill="#BDBDBD"/>
<path d="M347.908 246.575C347.926 246.802 347.745 247.084 347.5 247.075C345.911 247.011 344.368 246.42 343.224 245.294C342.897 244.967 342.606 244.603 342.361 244.221C342.498 243.903 342.661 243.594 342.861 243.286C343.75 244.939 345.457 246.093 347.409 246.166C347.654 246.175 347.881 246.302 347.908 246.575Z" fill="#828282"/>
<path d="M347.427 243.249C347.427 243.813 346.964 244.276 346.401 244.276C345.838 244.276 345.375 243.822 345.375 243.249C345.375 242.677 345.829 242.222 346.401 242.222C346.973 242.222 347.427 242.686 347.427 243.249Z" fill="#828282"/>
<path d="M334.654 240.478C334.654 243.604 333.183 246.139 331.368 246.139C329.552 246.139 328.081 243.604 328.081 240.478C328.081 237.352 329.552 234.817 331.368 234.817C333.183 234.817 334.654 237.352 334.654 240.478Z" fill="#BDBDBD"/>
<path d="M391.984 243.358C391.984 248.683 390.513 253.008 388.697 253.008C386.882 253.008 385.411 248.692 385.411 243.358C385.411 238.025 386.882 233.709 388.697 233.709C390.513 233.709 391.984 238.025 391.984 243.358Z" fill="#BDBDBD"/>
<path d="M336.497 252.872C336.497 254.616 335.671 256.034 334.654 256.034C333.637 256.034 332.811 254.616 332.811 252.872C332.811 251.127 333.637 249.71 334.654 249.71C335.671 249.71 336.497 251.127 336.497 252.872Z" fill="#BDBDBD"/>
<path d="M562.647 61.369C559.043 62.9228 552.87 65.9576 546.161 70.9642C539.098 76.2342 534.94 84.5391 534.94 93.3528H524.037V93.1256C524.037 84.7844 520.306 76.8975 513.887 71.582C509.466 67.9112 503.938 63.8859 497.973 60.8875C496.539 60.1696 496.339 58.1979 497.619 57.2439C501.75 54.1727 511.209 49.0026 528.703 48.2394C546.869 47.4398 558.208 53.991 563.11 57.68C564.426 58.6704 564.163 60.7239 562.647 61.369Z" fill="#828282"/>
<path d="M514.568 54.2272C514.568 54.2272 526.252 71.5366 528.703 71.0187C531.154 70.5007 543.673 54.2272 543.673 54.2272H514.568Z" fill="#BDBDBD"/>
<path d="M528.703 57.3711C528.703 57.3711 511.908 55.0632 511.999 54.7996C512.09 54.5361 513.987 48.5029 522.512 46.9309C531.036 45.359 533.024 45.6407 536.347 46.3858C539.67 47.1308 545.198 50.1475 547.577 54.736L528.694 57.3711H528.703Z" fill="#BDBDBD"/>
<path d="M522.757 42.7512C522.757 42.7512 523.402 47.4216 521.232 48.9299C521.232 48.9299 528.722 57.8072 528.703 57.3711C528.685 56.9349 537.446 47.9577 537.446 47.9577C537.446 47.9577 533.942 44.1687 534.94 38.4262C535.939 32.6927 522.766 42.7422 522.766 42.7422L522.757 42.7512Z" fill="#BDBDBD"/>
<path d="M551.272 36.1728C551.208 37.1995 550.328 37.99 549.42 38.4807C546.869 39.8618 543.819 39.8527 540.914 39.7982C536.719 39.7255 532.534 39.6619 528.34 39.5892C524.146 39.6619 519.952 39.7255 515.757 39.7982C512.862 39.8527 509.811 39.8618 507.26 38.4807C506.352 37.99 505.472 37.1995 505.408 36.1728C505.336 34.8462 506.634 33.8648 507.878 33.4105C508.495 33.1925 509.248 32.9017 509.339 32.2566C509.385 31.9204 509.23 31.6024 509.067 31.3116C508.159 29.776 506.661 28.304 506.942 26.5413C507.206 24.8694 508.985 23.879 510.646 23.5156C511.709 23.2793 512.952 23.1067 513.542 22.189C514.105 21.3076 513.806 20.1536 513.679 19.1178C513.388 16.6463 514.296 14.1022 515.93 12.2395C518.989 8.75035 524.091 7.85081 528.513 7.88716C532.834 7.91441 537.745 8.84122 540.741 12.2395C542.384 14.1022 543.292 16.6463 543.002 19.1178C542.874 20.1536 542.575 21.3076 543.138 22.189C543.728 23.1067 544.962 23.2793 546.034 23.5156C547.686 23.879 549.474 24.8694 549.738 26.5413C550.01 28.304 548.521 29.776 547.613 31.3116C547.45 31.6024 547.296 31.9204 547.341 32.2566C547.423 32.9017 548.185 33.1925 548.803 33.4105C550.046 33.8648 551.344 34.8462 551.272 36.1728Z" fill="#828282"/>
<path d="M539.425 29.04C538.807 34.201 538.181 38.3535 535.013 41.2156C533.569 42.5332 532.044 43.5963 530.628 44.414C528.358 45.7224 526.352 46.3857 525.335 46.3857C523.737 46.3857 522.049 44.723 520.551 42.3969C519.098 40.1707 517.836 37.3358 517.01 34.8098C516.792 34.1556 516.611 33.5287 516.457 32.929C515.512 29.1945 516.066 27.2137 516.484 26.3687C516.693 25.9507 516.774 25.4873 516.738 25.0148C516.674 24.0244 516.575 22.0708 516.575 18.7634C516.575 14.8654 522.421 9.0502 527.514 9.0502C537.328 9.0502 540.759 17.7185 539.416 29.0309L539.425 29.04Z" fill="#BDBDBD"/>
<path d="M531.145 41.4428C531.218 43.1874 530.174 44.7684 528.576 45.468C527.187 46.0768 526.034 46.3948 525.335 46.3948C524.636 46.3948 523.973 46.095 523.283 45.5862C520.887 43.778 519.934 40.5433 520.914 37.6993C521.413 36.2546 522.149 35.1188 522.739 34.7735C522.739 34.7735 523.556 33.9375 526.252 33.1561C528.758 33.9466 530.991 37.9537 531.136 41.4519L531.145 41.4428Z" fill="#828282"/>
<path d="M524.854 29.6215C523.737 29.8851 522.721 28.8856 522.957 27.7679C523.211 26.5776 524.527 26.3687 525.535 26.2415C525.726 26.2142 525.907 26.0597 525.889 25.8507C525.798 24.8512 525.744 23.8518 525.744 22.8523C525.744 22.3707 524.999 22.4161 524.999 22.8977C524.999 23.7882 525.045 24.6695 525.126 25.56C524.509 25.6508 523.883 25.7781 523.347 26.0961C522.684 26.4868 522.258 27.1592 522.194 27.9224C522.058 29.5307 523.556 30.7028 525.09 30.3485C525.553 30.2394 525.326 29.5307 524.863 29.6397L524.854 29.6215Z" fill="#828282"/>
<path d="M533.378 24.3515C533.378 25.3782 532.743 26.2051 531.962 26.2051C531.181 26.2051 530.546 25.3782 530.546 24.3515C530.546 23.3247 531.181 22.4979 531.962 22.4979C532.743 22.4979 533.378 23.3247 533.378 24.3515Z" fill="#828282"/>
<path d="M519.824 26.2051C520.607 26.2051 521.241 25.3752 521.241 24.3515C521.241 23.3278 520.607 22.4979 519.824 22.4979C519.042 22.4979 518.408 23.3278 518.408 24.3515C518.408 25.3752 519.042 26.2051 519.824 26.2051Z" fill="#828282"/>
<path d="M536.547 19.5176C535.93 19.036 534.768 18.7544 534.386 18.6726C533.034 18.3818 531.599 18.4727 530.31 18.9724C529.865 19.1451 529.52 19.7266 529.756 20.19C529.929 20.5262 530.365 20.6443 530.737 20.5989C531.109 20.5534 531.454 20.3717 531.817 20.2627C532.571 20.0264 533.415 20.0719 534.141 20.399C534.423 20.5262 534.686 20.6988 534.976 20.8079C535.249 20.9078 535.53 20.9623 535.821 20.9623C536.175 20.9623 536.547 20.8624 536.765 20.5807C537.092 20.1536 536.919 19.7993 536.556 19.5176H536.547Z" fill="#828282"/>
<path d="M516.112 19.4722C516.738 19.0088 517.909 18.7453 518.29 18.6635C519.643 18.4 521.077 18.5181 522.357 19.0451C522.802 19.2268 523.138 19.8084 522.884 20.2809C522.702 20.617 522.267 20.7261 521.894 20.6716C521.522 20.617 521.186 20.4353 520.823 20.3172C520.07 20.0628 519.225 20.0991 518.499 20.4081C518.218 20.5262 517.945 20.6897 517.655 20.7988C517.382 20.8987 517.092 20.9441 516.801 20.9351C516.447 20.9351 516.075 20.8169 515.866 20.5353C515.549 20.1082 515.721 19.7538 516.102 19.4722H516.112Z" fill="#828282"/>
<path d="M531.817 35.5276H517.691C513.288 35.5276 514.831 33.0471 514.831 33.0471C515.122 35.0642 518.653 33.883 519.87 32.6655C522.13 30.3939 523.474 31.0844 524.754 31.0844C526.034 31.0844 527.378 30.3939 529.638 32.6655C530.855 33.883 534.386 35.0642 534.677 33.0471C534.677 33.0471 536.22 35.5276 531.817 35.5276Z" fill="#828282"/>
<path d="M521.622 39.9345L522.757 42.7512C522.93 43.1692 523.574 42.9057 523.402 42.4877L522.267 39.671C522.094 39.253 521.45 39.5165 521.622 39.9345Z" fill="#828282"/>
<path d="M524.754 39.4893L524.999 42.515C525.036 42.9602 525.735 42.9057 525.698 42.4605L525.453 39.4347C525.417 38.9895 524.718 39.044 524.754 39.4893Z" fill="#828282"/>
<path d="M528.022 39.6619L526.969 42.5059C526.815 42.9239 527.469 43.1692 527.623 42.7512L528.676 39.9072C528.83 39.4893 528.177 39.2439 528.022 39.6619Z" fill="#828282"/>
<path d="M541.903 98.4774H517.074C515.412 98.4774 514.06 97.1236 514.06 95.4608C514.06 93.798 515.412 92.4441 517.074 92.4441H541.903C543.564 92.4441 544.917 93.798 544.917 95.4608C544.917 97.1236 543.564 98.4774 541.903 98.4774Z" fill="#828282"/>
<path d="M546.151 60.6421C542.883 63.677 539.778 66.8935 536.855 70.2554C536.474 70.6916 537.109 71.3367 537.5 70.9006C540.423 67.5296 543.528 64.3221 546.796 61.2873C547.223 60.8875 546.578 60.2514 546.151 60.6421Z" fill="#828282"/>
<path d="M520.406 70.1555C517.564 66.9934 514.695 63.8496 511.808 60.7148C511.409 60.2878 510.774 60.9238 511.164 61.3599C514.051 64.4856 516.91 67.6295 519.761 70.8006C520.151 71.2367 520.796 70.5916 520.406 70.1555Z" fill="#828282"/>
<path d="M190.136 384.841H135.095C134.35 379.398 134.35 374.246 134.35 374.246C134.35 374.246 136.084 373.556 138.726 372.583C139.289 372.374 139.888 372.156 140.523 371.929C149.293 368.785 164.417 363.942 165.443 367.577C165.552 367.958 165.734 368.331 165.979 368.694C166.224 369.058 166.542 369.412 166.914 369.767C167.441 370.257 168.076 370.739 168.793 371.202C169.211 371.466 169.656 371.72 170.119 371.975C170.881 372.393 171.707 372.792 172.579 373.174C173.051 373.392 173.541 373.601 174.041 373.801C174.948 374.173 175.874 374.528 176.8 374.855C177.309 375.046 177.817 375.227 178.325 375.4C181.657 376.545 184.762 377.472 186.405 378.135C188.602 379.035 190.091 382.033 190.136 384.841Z" fill="#E75A51"/>
<path d="M145.834 384.841H144.59C145.044 382.387 145.135 379.889 144.309 377.554C143.374 374.891 141.213 373.374 138.726 372.583C139.289 372.374 139.888 372.156 140.523 371.929C142.639 372.892 144.418 374.428 145.335 376.745C146.361 379.334 146.324 382.106 145.834 384.841Z" fill="#E75A51"/>
<path d="M166.914 369.767C164.136 371.366 161.712 373.501 159.724 376.045C159.488 376.336 158.979 376.281 158.743 376.045C158.462 375.754 158.516 375.364 158.743 375.064C160.732 372.52 163.201 370.357 165.979 368.694C166.224 369.058 166.542 369.412 166.914 369.767Z" fill="#1D1D1D"/>
<path d="M170.119 371.975C167.994 373.428 166.106 375.209 164.508 377.254C164.272 377.545 163.764 377.499 163.528 377.254C163.246 376.963 163.301 376.572 163.528 376.272C165.035 374.346 166.814 372.638 168.793 371.202C169.211 371.466 169.656 371.72 170.119 371.975Z" fill="#1D1D1D"/>
<path d="M174.04 373.801C172.261 375.128 170.672 376.699 169.292 378.462C169.056 378.753 168.548 378.708 168.312 378.462C168.031 378.171 168.085 377.781 168.312 377.49C169.556 375.891 170.99 374.446 172.579 373.174C173.051 373.392 173.541 373.601 174.04 373.801Z" fill="#1D1D1D"/>
<path d="M178.326 375.4C176.746 376.636 175.321 378.071 174.077 379.671C173.841 379.971 173.332 379.916 173.096 379.671C172.815 379.38 172.87 378.989 173.096 378.698C174.195 377.29 175.439 376 176.8 374.855C177.309 375.046 177.817 375.227 178.326 375.4Z" fill="#1D1D1D"/>
<path d="M135.094 384.85C135.349 386.722 135.694 388.63 136.157 390.365H185.016C188.729 390.365 190.182 387.712 190.127 384.85H135.094Z" fill="#1D1D1D"/>
<path d="M286.367 334.058H231.325C230.58 328.615 230.58 323.463 230.58 323.463C230.58 323.463 232.314 322.772 234.956 321.8C235.519 321.591 236.118 321.373 236.754 321.146C245.523 318.002 260.648 313.159 261.674 316.794C261.782 317.175 261.964 317.548 262.209 317.911C262.454 318.275 262.772 318.629 263.144 318.983C263.671 319.474 264.306 319.956 265.023 320.419C265.441 320.683 265.886 320.937 266.349 321.191C267.111 321.609 267.938 322.009 268.809 322.391C269.281 322.609 269.771 322.818 270.271 323.018C271.179 323.39 272.105 323.745 273.031 324.072C273.539 324.263 274.047 324.444 274.556 324.617C277.887 325.762 280.992 326.689 282.635 327.352C284.832 328.251 286.321 331.25 286.367 334.058Z" fill="#E75A51"/>
<path d="M242.064 334.058H240.821C241.275 331.604 241.365 329.105 240.539 326.77C239.604 324.108 237.444 322.591 234.956 321.8C235.519 321.591 236.118 321.373 236.754 321.146C238.869 322.109 240.648 323.645 241.565 325.962C242.591 328.551 242.555 331.323 242.064 334.058Z" fill="#E75A51"/>
<path d="M263.144 318.983C260.366 320.583 257.942 322.718 255.954 325.262C255.718 325.553 255.21 325.498 254.974 325.262C254.692 324.971 254.747 324.581 254.974 324.281C256.962 321.737 259.431 319.574 262.209 317.911C262.454 318.275 262.772 318.629 263.144 318.983Z" fill="#1D1D1D"/>
<path d="M266.349 321.191C264.225 322.645 262.336 324.426 260.739 326.47C260.502 326.761 259.994 326.716 259.758 326.47C259.477 326.18 259.531 325.789 259.758 325.489C261.265 323.563 263.044 321.855 265.023 320.419C265.441 320.682 265.886 320.937 266.349 321.191Z" fill="#1D1D1D"/>
<path d="M270.271 323.018C268.491 324.344 266.903 325.916 265.523 327.679C265.287 327.97 264.778 327.924 264.542 327.679C264.261 327.388 264.315 326.998 264.542 326.707C265.786 325.108 267.22 323.663 268.809 322.391C269.281 322.609 269.771 322.818 270.271 323.018Z" fill="#1D1D1D"/>
<path d="M274.556 324.617C272.976 325.853 271.551 327.288 270.307 328.887C270.071 329.187 269.562 329.133 269.326 328.887C269.045 328.597 269.099 328.206 269.326 327.915C270.425 326.507 271.669 325.217 273.03 324.072C273.539 324.262 274.047 324.444 274.556 324.617Z" fill="#1D1D1D"/>
<path d="M231.334 334.058C231.588 335.929 231.933 337.837 232.396 339.573H281.255C284.968 339.573 286.421 336.92 286.367 334.058H231.334Z" fill="#1D1D1D"/>
<path d="M117.564 220.997C117.564 220.997 139.507 270.208 138.009 288.753C136.52 307.298 128.803 376.481 128.803 376.481L175.584 367.568C175.584 367.568 187.358 317.057 185.334 285.546C183.754 260.977 171.081 239.188 171.081 239.188C171.081 239.188 214.902 248.456 218.824 257.378C222.746 266.292 228.084 325.489 228.084 325.489C228.084 325.489 262.291 317.284 262.291 316.221C262.291 315.276 265.523 267.564 256.608 239.687C254.502 233.1 250.135 227.484 244.307 223.768C225.424 211.729 194.094 200.362 194.094 200.362L117.564 221.015V220.997Z" fill="#FF9C28"/>
<path d="M163.991 314.767H175.529V326.316H163.991V314.767ZM137.255 374.864L138.481 374.628V365.841H150.019V372.429L151.245 372.193V365.832H162.783V369.994L164.009 369.758V365.832H175.547V367.559H175.602C175.602 367.559 176.056 365.596 176.773 362.234V353.066H178.625C178.707 352.666 178.779 352.257 178.861 351.839H176.773V340.291H180.922C180.985 339.882 181.058 339.473 181.122 339.064H176.773V327.515H182.865C182.919 327.107 182.974 326.698 183.028 326.289H176.773V314.74H184.39C184.426 314.331 184.471 313.922 184.508 313.513H176.773V301.965H185.361C185.379 301.556 185.397 301.147 185.416 300.738H176.773V289.189H185.525C185.515 288.781 185.497 288.372 185.479 287.963H176.773V276.414H184.281C184.208 276.005 184.136 275.596 184.063 275.187H176.782V263.639H181.294C181.176 263.23 181.049 262.821 180.922 262.412H176.782V250.973C176.365 249.964 175.956 249.019 175.557 248.119V249.646H164.018V238.097H175.557V240.124C175.947 240.214 176.355 240.314 176.782 240.414V238.097H188.321V243.376C188.729 243.485 189.138 243.604 189.546 243.722V238.097H201.085V247.311C201.493 247.456 201.902 247.602 202.31 247.738V238.097H213.849V249.646H207.285C208.257 250.046 209.201 250.455 210.09 250.873H213.84V252.808C214.267 253.053 214.675 253.308 215.065 253.562V250.882H226.604V262.43H220.304C220.385 262.821 220.476 263.23 220.558 263.657H226.595V275.206H222.473C222.528 275.615 222.591 276.014 222.646 276.432H226.586V287.981H224.153C224.198 288.39 224.253 288.799 224.298 289.208H226.586V300.756H225.623C225.669 301.165 225.714 301.574 225.76 301.983H226.586V309.815C227.121 315.022 227.548 319.401 227.811 322.191V314.749H239.35V322.709C239.758 322.609 240.158 322.509 240.575 322.4V314.74H252.114V319.429C252.532 319.32 252.94 319.211 253.34 319.102V314.749H262.409C262.427 314.404 262.445 313.986 262.472 313.523H253.349V301.974H262.854C262.854 301.574 262.872 301.165 262.872 300.747H253.349V289.199H262.863C262.863 288.79 262.854 288.381 262.845 287.972H253.349V276.423H262.409C262.382 276.014 262.363 275.605 262.336 275.197H253.349V263.648H261.356C261.31 263.239 261.265 262.83 261.22 262.421H253.349V250.873H259.467C259.386 250.464 259.304 250.055 259.222 249.646H253.349V238.097H256.127C255.972 237.688 255.8 237.28 255.627 236.871H253.349V232.618C252.967 232.019 252.55 231.446 252.123 230.874V236.871H240.585V225.322H246.658C246.113 224.895 245.541 224.486 244.96 224.095H240.575V221.388C240.176 221.151 239.758 220.915 239.35 220.679V224.095H227.811V214.6C227.403 214.4 226.994 214.2 226.586 214V224.095H215.047V212.547H223.526C222.646 212.129 221.756 211.72 220.885 211.32H215.047V208.712C214.639 208.53 214.23 208.358 213.822 208.176V211.311H202.283V203.397C201.866 203.233 201.457 203.07 201.058 202.915V211.311H189.519V201.507L188.293 201.834V211.311H176.755V204.941L175.529 205.269V211.302H163.991V208.376L162.765 208.703V211.302H153.151L148.612 212.528H150.01V224.077H138.472V215.263L137.246 215.591V224.068H125.708V218.698L124.482 219.025V224.059H118.926C119.089 224.441 119.262 224.849 119.453 225.286H124.491V236.834H124.182C124.682 238.106 125.199 239.424 125.717 240.787V238.061H137.255V249.61H128.985C129.13 250.018 129.275 250.427 129.421 250.836H137.255V262.385H133.224C133.351 262.794 133.469 263.203 133.597 263.612H137.255V275.16H136.592C136.683 275.569 136.765 275.978 136.847 276.387H137.255V278.558C137.927 282.438 138.236 285.909 138.009 288.681C137.836 290.843 137.573 293.705 137.255 297.049V300.702H136.901C136.865 301.102 136.819 301.51 136.783 301.928H137.255V313.477H135.603C135.557 313.886 135.521 314.295 135.476 314.704H137.255V326.252H134.268C134.223 326.661 134.178 327.07 134.141 327.479H137.264V339.028H132.907C132.861 339.437 132.816 339.846 132.77 340.254H137.255V351.803H131.509C131.463 352.212 131.418 352.621 131.372 353.03H137.246V364.578H130.101C130.056 364.996 130.011 365.405 129.965 365.805H137.246V374.828L137.255 374.864ZM240.539 238.152H252.078V249.7H240.539V238.152ZM240.539 250.918H252.078V262.467H240.539V250.918ZM240.539 263.684H252.078V275.233H240.539V263.684ZM240.539 276.45H252.078V287.999H240.539V276.45ZM240.539 289.217H252.078V300.765H240.539V289.217ZM240.539 301.983H252.078V313.532H240.539V301.983ZM227.784 225.367H239.323V236.916H227.784V225.367ZM227.784 238.134H239.323V249.682H227.784V238.134ZM227.784 250.9H239.323V262.449H227.784V250.9ZM227.784 263.666H239.323V275.215H227.784V263.666ZM227.784 276.432H239.323V287.981H227.784V276.432ZM227.784 289.199H239.323V300.747H227.784V289.199ZM227.784 301.965H239.323V313.513H227.784V301.965ZM215.029 225.349H226.568V236.898H215.029V225.349ZM215.029 238.115H226.568V249.664H215.029V238.115ZM202.274 212.574H213.813V224.123H202.274V212.574ZM202.274 225.34H213.813V236.889H202.274V225.34ZM189.519 212.574H201.058V224.123H189.519V212.574ZM189.519 225.34H201.058V236.889H189.519V225.34ZM176.764 212.574H188.303V224.123H176.764V212.574ZM176.764 225.34H188.303V236.889H176.764V225.34ZM164.009 212.574H175.547V224.123H164.009V212.574ZM164.009 225.34H175.547V236.889H164.009V225.34ZM164.009 250.882H175.547V262.43H164.009V250.882ZM164.009 263.648H175.547V275.197H164.009V263.648ZM164.009 276.414H175.547V287.963H164.009V276.414ZM164.009 289.18H175.547V300.729H164.009V289.18ZM164.009 301.947H175.547V313.495H164.009V301.947ZM164.009 327.488H175.547V339.037H164.009V327.488ZM164.009 340.254H175.547V351.803H164.009V340.254ZM164.009 353.021H175.547V364.569H164.009V353.021ZM151.254 212.565H162.792V224.113H151.254V212.565ZM151.254 225.331H162.792V236.88H151.254V225.331ZM151.254 238.097H162.792V249.646H151.254V238.097ZM151.254 250.864H162.792V262.412H151.254V250.864ZM151.254 263.63H162.792V275.178H151.254V263.63ZM151.254 276.396H162.792V287.945H151.254V276.396ZM151.254 289.162H162.792V300.711H151.254V289.162ZM151.254 301.928H162.792V313.477H151.254V301.928ZM151.254 314.695H162.792V326.243H151.254V314.695ZM151.254 327.461H162.792V339.01H151.254V327.461ZM151.254 340.227H162.792V351.776H151.254V340.227ZM151.254 352.993H162.792V364.542H151.254V352.993ZM138.499 225.304H150.037V236.852H138.499V225.304ZM138.499 238.07H150.037V249.619H138.499V238.07ZM138.499 250.836H150.037V262.385H138.499V250.836ZM138.499 263.602H150.037V275.151H138.499V263.602ZM138.499 276.369H150.037V287.917H138.499V276.369ZM138.499 289.135H150.037V300.684H138.499V289.135ZM138.499 301.901H150.037V313.45H138.499V301.901ZM138.499 314.667H150.037V326.216H138.499V314.667ZM138.499 327.434H150.037V338.982H138.499V327.434ZM138.499 340.2H150.037V351.749H138.499V340.2ZM138.499 352.966H150.037V364.515H138.499V352.966ZM137.273 236.825H125.735V225.277H137.273V236.825Z" fill="#E75A51"/>
<path d="M76.8662 191.021C76.8662 176.002 74.2153 158.483 122.585 149.76C170.954 141.038 183.881 142.146 183.881 142.146V164.653C183.881 164.653 170.4 202.724 152.516 206.295C134.632 209.875 76.8662 191.03 76.8662 191.03V191.021Z" fill="#1E9B76"/>
<path d="M142.348 178.955C142.348 180.154 141.377 181.126 140.179 181.126C138.98 181.126 138.009 180.154 138.009 178.955C138.009 177.755 138.98 176.783 140.179 176.783C141.377 176.783 142.348 177.755 142.348 178.955Z" fill="#FF9C28"/>
<path d="M145.789 187.296C145.789 188.495 144.818 189.467 143.619 189.467C142.421 189.467 141.449 188.495 141.449 187.296C141.449 186.096 142.421 185.124 143.619 185.124C144.818 185.124 145.789 186.096 145.789 187.296Z" fill="#FF9C28"/>
<path d="M158.535 187.16C150.201 186.687 137.682 189.004 129.339 189.031C122.53 189.05 111.854 188.731 106.262 184.234C104.909 183.143 106.026 185.097 107.052 186.524C112.217 193.72 121.05 191.739 128.458 191.766C137.346 191.794 147.205 192.629 155.938 191.03C157.663 190.712 164.744 187.514 158.535 187.169V187.16Z" fill="#264653"/>
<path d="M138.009 154.794V175.375L121.94 163.199L119.589 161.418L118.99 160.964C123.102 150.469 138.009 154.794 138.009 154.794Z" fill="#BDBDBD"/>
<path d="M138.009 155.076V157.811C136.91 157.929 135.803 158.011 134.686 158.056C133.606 158.093 132.535 158.102 131.454 158.074C130.701 158.056 129.339 157.711 128.685 158.065C127.932 158.474 127.233 159.374 126.552 159.919C125.753 160.564 124.936 161.182 124.101 161.782C123.393 162.272 122.676 162.745 121.94 163.199L119.589 161.418C120.778 160.737 121.922 160.001 123.039 159.201C123.901 158.583 124.727 157.929 125.526 157.247C126.162 156.702 126.77 155.994 127.505 155.585C128.34 155.121 129.248 155.258 130.165 155.303C131.309 155.358 132.462 155.376 133.606 155.358C135.076 155.33 136.547 155.239 138.009 155.076Z" fill="#BDBDBD"/>
<path d="M114.813 152.223C114.813 152.223 107.033 162.645 105.971 168.233C105.971 168.233 124.836 160.237 126.425 157.538C128.013 154.84 129.42 156.284 129.42 156.284L145.435 155.421C145.435 155.421 136.193 150.133 131.817 149.788C127.441 149.442 114.813 152.223 114.813 152.223Z" fill="#BDBDBD"/>
<path d="M129.929 159.265C127.569 160.482 114.814 152.223 114.814 152.223C115.54 149.306 115.286 145.354 114.932 142.455C114.668 140.22 114.333 138.612 114.333 138.612L130.456 138.003C130.456 138.003 130.41 142.764 130.837 146.271C131.037 147.934 131.345 149.324 131.817 149.788C132.035 153.622 131.146 159.047 129.929 159.265Z" fill="#F38C12"/>
<path d="M130.456 138.003L114.333 138.612C114.333 138.612 114.668 140.22 114.932 142.455C115.504 142.764 116.094 143.037 116.666 143.3C118.527 144.163 120.469 144.845 122.467 145.335C125.208 146.017 128.023 146.326 130.837 146.271C130.41 142.764 130.456 138.003 130.456 138.003Z" fill="#E75A51"/>
<path d="M141.132 132.297C140.415 134.868 137.945 136.522 135.558 137.694C133.097 138.911 130.519 139.884 127.877 140.601C125.517 141.237 123.102 141.919 120.633 141.774C118.209 141.619 115.985 140.511 113.906 139.338C111.609 138.048 109.639 136.222 108.223 133.996C108.223 133.996 103.212 137.212 100.198 132.742C97.4559 128.68 99.0991 124.319 105.935 126.518C106.607 126.727 107.324 127.008 108.096 127.354C108.078 126.727 107.533 119.867 107.941 116.913C108.268 114.569 109.23 112.08 111.2 110.653C112.39 109.79 113.96 109.381 115.413 109.672C116.539 109.899 117.455 110.599 118.49 111.062C119.598 111.553 123.992 112.77 131.481 105.91C132.026 107.191 131.881 109.481 132.099 110.817C132.344 112.398 132.598 114.042 133.224 115.523C134.069 117.513 135.893 118.667 137.192 120.339C138.889 122.547 140.16 125.082 140.896 127.772C141.295 129.253 141.54 130.825 141.132 132.297Z" fill="#F38C12"/>
<path d="M138.154 96.7874C136.847 100.922 135.004 103.966 131.654 106.437C123.483 112.47 119.598 111.553 118.49 111.062C117.455 110.599 116.538 109.899 115.413 109.672C113.96 109.381 112.39 109.79 111.2 110.653C109.23 112.08 108.268 114.569 107.941 116.913C107.533 119.867 108.077 126.727 108.096 127.354C107.324 127.008 106.607 126.727 105.935 126.518C105.935 126.5 105.908 126.49 105.899 126.472C104.301 124.691 102.231 123.41 100.397 121.875C98.5633 120.33 96.8929 118.367 96.5661 115.996C96.3663 114.606 96.6568 113.188 97.1834 111.889C97.9187 110.035 99.1534 108.363 100.797 107.237C102.44 106.11 104.782 105.392 106.743 105.701C107.378 103.057 108.667 100.522 110.674 98.6864C112.68 96.851 115.44 95.7788 118.136 96.0968C118.554 96.1422 118.98 96.2331 119.325 96.4693C120.27 97.1054 120.306 98.5864 119.979 99.6859C122.793 96.2694 125.907 92.962 129.847 90.963C131.191 90.2816 132.661 89.7546 134.168 89.7909C135.675 89.8273 137.228 90.4996 138.018 91.7808C138.925 93.2528 138.671 95.1518 138.154 96.7874Z" fill="#1D1D1D"/>
<path d="M101.659 129.507C102.14 128.817 102.921 128.353 103.756 128.271C104.555 128.19 105.345 128.399 106.026 128.817C106.298 128.98 106.253 129.398 105.98 129.534C105.654 129.698 105.49 130.098 105.554 130.452C105.626 130.906 105.999 131.27 106.398 131.461C106.598 131.561 106.734 131.751 106.661 131.988C106.598 132.178 106.344 132.342 106.135 132.251C105.454 131.924 104.837 131.342 104.737 130.561C104.682 130.107 104.791 129.634 105.064 129.271C104.11 128.916 102.976 129.062 102.358 129.961C102.059 130.398 101.369 129.943 101.668 129.507H101.659Z" fill="#E75A51"/>
<path d="M119.389 122.656C119.607 123.656 120.351 124.346 121.041 124.192C121.731 124.037 122.122 123.101 121.904 122.102C121.686 121.102 120.941 120.412 120.252 120.566C119.562 120.721 119.171 121.647 119.389 122.656Z" fill="#1D1D1D"/>
<path d="M129.893 118.694C130.111 119.694 130.855 120.384 131.545 120.23C132.235 120.076 132.625 119.14 132.407 118.14C132.19 117.141 131.445 116.45 130.755 116.605C130.065 116.759 129.675 117.695 129.893 118.694Z" fill="#1D1D1D"/>
<path d="M128.295 124.728C129.439 124.61 130.074 123.337 129.484 122.356C128.858 121.311 127.55 121.538 126.543 121.747C126.352 121.784 126.134 121.693 126.08 121.493C125.844 120.521 125.562 119.558 125.245 118.613C125.09 118.158 125.807 117.958 125.962 118.413C126.243 119.258 126.488 120.103 126.706 120.966C127.323 120.848 127.95 120.766 128.567 120.893C129.321 121.048 129.938 121.547 130.247 122.247C130.9 123.719 129.856 125.327 128.295 125.482C127.814 125.527 127.805 124.782 128.286 124.737L128.295 124.728Z" fill="#E75A51"/>
<path d="M119.371 115.46C118.935 115.096 118.291 115.105 117.773 115.269C116.675 115.605 115.676 116.514 114.995 117.422C114.523 118.049 113.933 119.094 114.886 119.639C115.558 120.021 116.248 119.485 116.766 119.076C117.247 118.694 117.701 118.286 118.227 117.958C118.708 117.668 119.253 117.377 119.562 116.886C119.861 116.414 119.807 115.823 119.362 115.46H119.371Z" fill="#1D1D1D"/>
<path d="M127.478 113.851C128.059 113.87 128.603 113.597 129.121 113.37C129.684 113.124 130.283 112.988 130.873 112.816C131.499 112.625 132.335 112.37 132.407 111.598C132.516 110.508 131.318 110.399 130.528 110.417C129.393 110.453 128.086 110.753 127.178 111.453C126.751 111.789 126.37 112.298 126.416 112.87C126.461 113.443 126.906 113.833 127.469 113.851H127.478Z" fill="#1D1D1D"/>
<path d="M121.096 132.106C121.876 133.387 123.184 134.532 125.317 134.468C126.951 134.414 127.932 133.369 128.531 132.169C128.839 131.542 129.048 130.879 129.175 130.307C129.384 129.371 129.43 128.662 129.43 128.662C129.43 128.662 129.103 128.68 128.567 128.707C126.951 128.789 123.411 128.935 121.141 128.762C120.996 128.753 120.86 128.735 120.723 128.726C120.424 128.698 120.161 128.662 119.925 128.617C119.925 128.617 120.106 130.479 121.096 132.097V132.106Z" fill="#1D1D1D"/>
<path d="M122.103 130.407C122.793 130.725 126.752 130.479 129.175 130.298C129.384 129.362 129.43 128.653 129.43 128.653C129.43 128.653 129.103 128.671 128.567 128.698C126.951 128.78 123.411 128.926 121.141 128.753C121.413 129.562 121.74 130.243 122.103 130.398V130.407Z" fill="#BDBDBD"/>
<path d="M121.096 132.106C121.876 133.387 123.184 134.532 125.317 134.468C126.951 134.414 127.932 133.369 128.531 132.169C127.405 131.506 126.071 131.224 124.754 131.243C123.501 131.261 122.24 131.561 121.096 132.106Z" fill="#E75A51"/>
<path d="M130.81 95.4244C129.738 98.5047 127.641 101.185 124.918 102.975C124.428 103.293 124.882 104.084 125.372 103.757C128.304 101.83 130.519 98.9772 131.681 95.6607C131.872 95.1064 131 94.8702 130.81 95.4153V95.4244Z" fill="#333333"/>
<path d="M115.249 100.931C115.05 100.813 114.732 100.867 114.632 101.094C114.051 102.33 113.243 103.429 112.235 104.356C112.054 104.52 112.063 104.829 112.235 105.001C112.417 105.183 112.698 105.165 112.88 105.001C113.933 104.029 114.804 102.857 115.413 101.558C115.522 101.34 115.476 101.067 115.249 100.94V100.931Z" fill="#333333"/>
<path d="M104.873 116.886C103.602 115.123 103.702 112.834 104.537 110.907C104.637 110.68 104.6 110.426 104.374 110.29C104.183 110.171 103.847 110.226 103.756 110.453C102.794 112.661 102.621 115.305 104.092 117.35C104.428 117.822 105.218 117.368 104.873 116.895V116.886Z" fill="#333333"/>
<path d="M252.922 176.483H155.403C154.29 176.483 153.387 177.386 153.387 178.5V196.091C153.387 197.205 154.29 198.109 155.403 198.109H252.922C254.035 198.109 254.938 197.205 254.938 196.091V178.5C254.938 177.386 254.035 176.483 252.922 176.483Z" fill="#E75A51"/>
<path d="M233.322 193.293H169.983C166.678 193.293 163.991 190.612 163.991 187.296C163.991 183.988 166.669 181.299 169.983 181.299H233.322C236.627 181.299 239.314 183.979 239.314 187.296C239.314 190.603 236.636 193.293 233.322 193.293Z" fill="#E75A51"/>
<path d="M254.947 163.672H164.654V176.365H254.947V163.672Z" fill="#FF9C28"/>
<path d="M261.093 135.186C261.093 138.911 259.567 142.282 257.134 144.736C254.692 147.18 251.297 148.697 247.566 148.697H161.467C159.833 148.697 158.499 147.371 158.499 145.726C158.499 144.072 159.824 142.746 161.467 142.746H246.504C248.61 142.746 250.507 141.901 251.878 140.52C253.376 139.02 254.248 136.912 254.084 134.595C253.803 130.57 250.262 127.535 246.222 127.535H161.458C159.824 127.535 158.49 126.209 158.49 124.564C158.49 122.929 159.815 121.593 161.458 121.593H247.157C254.62 121.593 261.102 127.699 261.093 135.168V135.186Z" fill="#1E9B76"/>
<path d="M254.102 135.159C254.102 135.313 254.102 135.459 254.102 135.613C254.039 136.558 253.812 137.458 253.44 138.284C253.303 138.602 253.131 138.902 252.94 139.193C252.65 139.675 252.287 140.129 251.887 140.529C250.516 141.901 248.619 142.755 246.513 142.755H164.59V127.544H246.513C249.236 127.544 251.615 128.971 252.958 131.115C253.14 131.406 253.303 131.706 253.449 132.024C253.812 132.851 254.039 133.75 254.102 134.704C254.102 134.85 254.102 135.004 254.102 135.159Z" fill="#FFFAF4"/>
<path d="M253.44 132.024H164.581V131.115H252.949C253.131 131.406 253.294 131.706 253.44 132.024Z" fill="#FFFAF4"/>
<path d="M254.102 135.159C254.102 135.313 254.102 135.459 254.102 135.613H164.59V134.704H254.102C254.102 134.85 254.102 135.004 254.102 135.159Z" fill="#FFFAF4"/>
<path d="M253.431 138.284C253.294 138.602 253.122 138.902 252.931 139.193H164.581V138.284H253.431Z" fill="#FFFAF4"/>
<path d="M155.176 60.7239C155.176 64.1949 156.592 67.3296 158.862 69.6103C161.14 71.8909 164.29 73.2993 167.767 73.2993H247.865C249.391 73.2993 250.625 72.0636 250.625 70.5371C250.625 69.0015 249.391 67.7658 247.865 67.7658H168.748C166.787 67.7658 165.026 66.9753 163.746 65.6941C162.357 64.3039 161.549 62.3413 161.694 60.1878C161.957 56.4352 165.253 53.6184 169.002 53.6184H247.856C249.382 53.6184 250.616 52.3827 250.616 50.8562C250.616 49.3297 249.382 48.094 247.856 48.094H168.131C161.186 48.094 155.158 53.7729 155.167 60.7239H155.176Z" fill="#E75A51"/>
<path d="M161.676 60.6966C161.676 60.842 161.676 60.9783 161.676 61.1237C161.74 62.0051 161.948 62.841 162.293 63.6133C162.42 63.9132 162.584 64.1858 162.756 64.4584C163.029 64.9036 163.365 65.3307 163.737 65.7032C165.008 66.9753 166.778 67.7749 168.739 67.7749H244.951V53.6275H168.739C166.206 53.6275 163.991 54.9541 162.738 56.9531C162.566 57.2257 162.42 57.4983 162.284 57.7981C161.948 58.5705 161.74 59.4064 161.676 60.2878C161.676 60.4241 161.676 60.5694 161.676 60.7148V60.6966Z" fill="#FFFAF4"/>
<path d="M162.293 57.7799H244.96V56.9349H162.747C162.575 57.2075 162.429 57.4801 162.293 57.7799Z" fill="#FFFAF4"/>
<path d="M161.676 60.6966C161.676 60.842 161.676 60.9783 161.676 61.1237H244.951V60.2787H161.676C161.676 60.415 161.676 60.5603 161.676 60.7057V60.6966Z" fill="#FFFAF4"/>
<path d="M162.302 63.6042C162.429 63.9041 162.593 64.1767 162.765 64.4493H244.96V63.6042H162.302Z" fill="#FFFAF4"/>
<path d="M208.584 108.572H162.575C161.086 108.572 159.869 107.355 159.869 105.865V92.4986C159.869 90.9994 161.086 89.7909 162.575 89.7909H208.584C207.086 89.7909 205.878 90.9994 205.878 92.4986V105.865C205.878 107.355 207.086 108.572 208.584 108.572Z" fill="#E75A51"/>
<path d="M210.508 95.5425V102.821C210.508 103.629 211.607 104.293 212.959 104.293H252.841C254.021 104.293 254.974 105.247 254.974 106.437C254.974 107.618 254.021 108.572 252.841 108.572H208.593C207.095 108.572 205.887 107.355 205.887 105.865V92.4986C205.887 90.9994 207.095 89.7909 208.593 89.7909H252.841C254.021 89.7909 254.974 90.745 254.974 91.9353C254.974 93.1165 254.021 94.0706 252.841 94.0706H212.959C211.607 94.0706 210.508 94.7248 210.508 95.5425Z" fill="#F38C12"/>
<path d="M250.925 94.0706V104.293H212.732C211.507 104.293 210.508 103.629 210.508 102.821V95.5425C210.508 94.7248 211.507 94.0706 212.732 94.0706H250.925Z" fill="#FFFAF4"/>
<path d="M172.343 99.1861C172.343 101.003 170.872 102.466 169.066 102.466C167.259 102.466 165.788 100.994 165.788 99.1861C165.788 97.378 167.259 95.906 169.066 95.906C170.872 95.906 172.343 97.378 172.343 99.1861Z" fill="#F38C12"/>
<path d="M181.984 102.466C183.794 102.466 185.261 100.998 185.261 99.1861C185.261 97.3746 183.794 95.906 181.984 95.906C180.174 95.906 178.707 97.3746 178.707 99.1861C178.707 100.998 180.174 102.466 181.984 102.466Z" fill="#F38C12"/>
<path d="M198.198 99.1861C198.198 101.003 196.727 102.466 194.921 102.466C193.114 102.466 191.644 100.994 191.644 99.1861C191.644 97.378 193.114 95.906 194.921 95.906C196.727 95.906 198.198 97.378 198.198 99.1861Z" fill="#F38C12"/>
<path d="M206.26 32.3202H252.268C253.757 32.3202 254.974 31.1026 254.974 29.6125V16.2465C254.974 14.7473 253.757 13.5388 252.268 13.5388H206.26C207.757 13.5388 208.965 14.7473 208.965 16.2465V29.6125C208.965 31.1026 207.757 32.3202 206.26 32.3202Z" fill="#E75A51"/>
<path d="M204.335 19.2904V26.5686C204.335 27.3772 203.236 28.0405 201.884 28.0405H162.012C160.832 28.0405 159.878 28.9946 159.878 30.1758C159.878 31.357 160.832 32.3202 162.012 32.3202H206.26C207.757 32.3202 208.965 31.1026 208.965 29.6125V16.2465C208.965 14.7473 207.757 13.5388 206.26 13.5388H162.012C160.832 13.5388 159.878 14.4929 159.878 15.6741C159.878 16.8553 160.832 17.8185 162.012 17.8185H201.884C203.236 17.8185 204.335 18.4727 204.335 19.2904Z" fill="#F38C12"/>
<path d="M163.909 17.8185V28.0405H202.102C203.327 28.0405 204.326 27.3772 204.326 26.5685V19.2904C204.326 18.4727 203.327 17.8185 202.102 17.8185H163.909Z" fill="#FFFAF4"/>
<path d="M245.778 26.2051C247.588 26.2051 249.055 24.7365 249.055 22.925C249.055 21.1134 247.588 19.6448 245.778 19.6448C243.968 19.6448 242.5 21.1134 242.5 22.925C242.5 24.7365 243.968 26.2051 245.778 26.2051Z" fill="#F38C12"/>
<path d="M229.573 22.925C229.573 24.7422 231.043 26.2051 232.85 26.2051C234.657 26.2051 236.127 24.7331 236.127 22.925C236.127 21.1168 234.657 19.6448 232.85 19.6448C231.043 19.6448 229.573 21.1168 229.573 22.925Z" fill="#F38C12"/>
<path d="M219.922 26.2051C221.732 26.2051 223.2 24.7365 223.2 22.925C223.2 21.1134 221.732 19.6448 219.922 19.6448C218.112 19.6448 216.645 21.1134 216.645 22.925C216.645 24.7365 218.112 26.2051 219.922 26.2051Z" fill="#F38C12"/>
<path d="M246.486 75.9343H163.147V86.6198H246.486V75.9343Z" fill="#FFFAF4"/>
<path d="M247.766 77.2791H161.858C160.759 77.2791 159.869 76.3886 159.869 75.2892C159.869 74.1898 160.759 73.2993 161.858 73.2993H247.766C248.864 73.2993 249.754 74.1898 249.754 75.2892C249.754 76.3886 248.864 77.2791 247.766 77.2791Z" fill="#FF9C28"/>
<path d="M247.766 89.7909H161.858C160.759 89.7909 159.869 88.9005 159.869 87.801C159.869 86.7016 160.759 85.802 161.858 85.802H247.766C248.864 85.802 249.754 86.6925 249.754 87.801C249.754 88.9005 248.864 89.7909 247.766 89.7909Z" fill="#FF9C28"/>
<path d="M246.486 79.0146H163.147V79.9232H246.486V79.0146Z" fill="#FFFAF4"/>
<path d="M246.486 81.0863H163.147V81.9949H246.486V81.0863Z" fill="#FFFAF4"/>
<path d="M246.486 83.1579H163.147V84.0666H246.486V83.1579Z" fill="#FFFAF4"/>
<path d="M265.278 40.198C265.278 47.0763 263.181 48.094 263.181 48.094H159.116C159.116 48.094 157.019 47.0763 157.019 40.198C157.019 33.8376 159.116 32.3111 159.116 32.3111H263.181C263.181 32.3111 265.278 33.8376 265.278 40.198Z" fill="#1E9B76"/>
<path d="M173.55 38.8351L176.256 38.517L174.867 40.8613L176.011 43.3328L173.351 42.7331L171.353 44.5776L171.099 41.8699L168.73 40.5342L171.226 39.462L171.762 36.7906L173.55 38.8351Z" fill="#FF9C28"/>
<path d="M189.147 38.8351L191.843 38.517L190.454 40.8613L191.598 43.3328L188.938 42.7331L186.941 44.5776L186.206 41.8699L184.317 40.5342L186.814 39.462L187.35 36.7906L189.147 38.8351Z" fill="#FF9C28"/>
<path d="M204.244 38.8351L206.95 38.517L205.561 40.8613L206.695 43.3328L204.044 42.7331L202.047 44.5776L201.793 41.8699L199.415 40.5342L201.92 39.462L202.447 36.7906L204.244 38.8351Z" fill="#FF9C28"/>
<path d="M220.322 38.8351L223.018 38.517L221.629 40.8613L222.773 43.3328L220.113 42.7331L218.116 44.5776L217.38 41.8699L215.492 40.5342L217.989 39.462L218.524 36.7906L220.322 38.8351Z" fill="#FF9C28"/>
<path d="M236.672 32.3111H232.042V48.094H236.672V32.3111Z" fill="#FF9C28"/>
<path d="M250.616 32.3111H245.995V48.094H250.616V32.3111Z" fill="#FF9C28"/>
<path d="M256.726 109.454V120.73C256.726 121.22 256.326 121.611 255.845 121.611H156.056C155.566 121.611 155.176 121.22 155.176 120.73V109.454C155.176 108.963 155.566 108.572 156.056 108.572H255.845C256.326 108.572 256.726 108.963 256.726 109.454Z" fill="#FF9C28"/>
<path d="M169.311 108.572H165.779V121.611H169.311V108.572Z" fill="#FFFAF4"/>
<path d="M183.4 119.794L176.764 115.096L183.4 110.39L190.045 115.096L183.4 119.794Z" fill="#FFFAF4"/>
<path d="M235.973 112.161H194.912V118.176H235.973V112.161Z" fill="#FFFAF4"/>
<path d="M246.486 108.572H242.954V121.611H246.486V108.572Z" fill="#FFFAF4"/>
<path d="M164.672 1.38137V12.6575C164.672 13.1481 165.071 13.5388 165.552 13.5388H265.341C265.832 13.5388 266.222 13.1481 266.222 12.6575V1.38137C266.222 0.89071 265.832 0.5 265.341 0.5H165.552C165.071 0.5 164.672 0.89071 164.672 1.38137Z" fill="#FF9C28"/>
<path d="M237.988 11.7216L244.634 7.02396L237.988 2.31726L231.343 7.02396L237.988 11.7216Z" fill="#FF9C28"/>
<path d="M185.416 10.1042L226.477 10.1042V4.0891L185.416 4.0891V10.1042Z" fill="#FF9C28"/>
<path d="M178.444 0.5H174.912V13.5388H178.444V0.5Z" fill="#FF9C28"/>
<path d="M260.394 156.23C260.394 162.79 258.387 163.762 258.387 163.762H159.025C159.025 163.762 157.019 162.79 157.019 156.23C157.019 150.151 159.025 148.697 159.025 148.697H258.387C258.387 148.697 260.394 150.151 260.394 156.23Z" fill="#E75A51"/>
<path d="M171.308 148.697H167.55V163.762H171.308V148.697Z" fill="#F38C12"/>
<path d="M247.866 148.697H244.107V163.762H247.866V148.697Z" fill="#F38C12"/>
<path d="M233.985 158.919H181.231C179.724 158.919 178.498 157.693 178.498 156.184C178.498 154.676 179.724 153.449 181.231 153.449H233.985C235.492 153.449 236.717 154.676 236.717 156.184C236.717 157.693 235.492 158.919 233.985 158.919Z" fill="#F38C12"/>
<path d="M262.736 167.924C261.937 166.752 260.984 165.752 259.876 165.044C257.125 163.272 253.621 163.672 250.589 164.326C247.883 164.916 243.889 165.352 241.865 167.388C238.315 170.95 245.923 172.54 245.923 172.54C245.923 172.54 241.456 174.139 242.119 176.828C242.781 179.518 247.212 180.181 247.212 180.181C247.212 180.181 243.072 181.735 243.853 183.852C244.842 186.542 249.263 186.36 249.263 186.36C249.263 186.36 246.449 187.441 247.548 189.849C248.047 190.949 250.198 190.885 251.161 190.903C254.374 190.985 257.743 190.658 260.875 189.904C265.65 188.759 266.676 184.833 266.44 180.372C266.24 176.638 265.169 171.486 262.736 167.924Z" fill="#F38C12"/>
<path d="M246.331 172.122C248.365 171.54 253.757 170.45 255.818 170.023C256.39 169.905 256.544 170.804 255.972 170.922C253.903 171.349 248.51 172.44 246.486 173.021C245.923 173.185 245.777 172.285 246.331 172.122Z" fill="#E75A51"/>
<path d="M247.457 179.791C249.454 179.109 254.783 177.746 256.826 177.219C257.389 177.074 257.588 177.955 257.025 178.11C254.983 178.637 249.654 180 247.657 180.681C247.103 180.872 246.912 179.981 247.457 179.791Z" fill="#E75A51"/>
<path d="M249.481 185.851C251.479 185.17 256.808 183.807 258.85 183.28C259.413 183.134 259.613 184.016 259.05 184.17C257.007 184.697 251.678 186.06 249.681 186.742C249.127 186.932 248.937 186.042 249.481 185.851Z" fill="#E75A51"/>
<path d="M180.822 180.127C182.265 178.827 184.054 177.982 185.842 177.21C187.631 176.438 189.456 175.729 191.062 174.63C192.497 173.657 193.722 172.403 194.993 171.231C195.484 170.777 196.065 170.304 196.736 170.341C197.254 170.368 197.708 170.722 197.98 171.159C198.252 171.595 198.352 172.122 198.389 172.64C198.552 174.911 197.535 177.146 196.028 178.846C194.521 180.554 192.569 181.79 190.572 182.889C189.437 183.516 188.275 184.107 187.032 184.443C186.106 184.688 185.152 184.788 184.199 184.888C183.319 184.979 182.438 185.07 181.566 185.161C180.404 185.279 178.035 185.76 178.444 183.943C178.77 182.462 179.705 181.126 180.822 180.127Z" fill="#F38C12"/>
<path d="M177.554 184.416C177.554 184.416 202.737 176.129 207.358 178.128C211.979 180.127 205.488 184.416 205.488 184.416C205.488 184.416 210.236 184.252 210.608 186.996C210.98 189.74 207.113 192.003 207.113 192.003C207.113 192.003 211.534 191.912 211.589 194.165C211.661 197.027 207.485 198.49 207.485 198.49C207.485 198.49 210.499 198.454 210.372 201.098C210.245 203.742 197.399 206.45 189.891 207.831C185.289 208.676 181.249 209.585 181.249 209.585L177.563 184.406L177.554 184.416Z" fill="#F38C12"/>
<path d="M177.554 184.415C177.554 184.415 172.679 185.424 165.507 186.651C168.621 195.737 168.721 205.25 167.468 214.7C175.911 211.911 181.24 209.594 181.24 209.594C181.24 209.594 182.038 187.141 177.554 184.415Z" fill="#BDBDBD"/>
<path d="M167.477 214.691C154.141 219.098 133.043 224.677 112.835 224.186C79.8348 223.377 76.8662 191.021 76.8662 191.021C78.5366 173.775 100.606 171.313 108.096 186.633C110.129 190.803 120.551 191.503 132.734 190.758C133.043 190.73 133.342 190.712 133.651 190.694C134.586 190.631 135.521 190.567 136.474 190.485C136.774 190.458 137.074 190.44 137.373 190.412C147.269 189.567 157.745 187.977 165.516 186.651C168.63 195.728 168.73 205.25 167.477 214.691Z" fill="#1E9B76"/>
<path d="M177.753 206.886C177.753 208.085 176.782 209.057 175.584 209.057C174.385 209.057 173.414 208.085 173.414 206.886C173.414 205.686 174.385 204.714 175.584 204.714C176.782 204.714 177.753 205.686 177.753 206.886Z" fill="#1E9B76"/>
<path d="M204.952 184.188C202.855 184.406 197.435 185.379 195.365 185.751C194.794 185.851 194.975 186.742 195.556 186.642C197.635 186.278 203.046 185.297 205.143 185.079C205.724 185.015 205.533 184.134 204.952 184.188Z" fill="#E75A51"/>
<path d="M206.741 191.73C204.634 191.839 199.178 192.548 197.081 192.802C196.5 192.875 196.646 193.774 197.227 193.702C199.324 193.438 204.78 192.739 206.886 192.629C207.467 192.602 207.322 191.703 206.741 191.73Z" fill="#E75A51"/>
<path d="M207.095 198.109C204.988 198.218 199.532 198.926 197.435 199.181C196.854 199.253 197 200.153 197.581 200.08C199.678 199.817 205.134 199.108 207.24 199.008C207.821 198.981 207.676 198.081 207.095 198.109Z" fill="#E75A51"/>
<path d="M193.55 178.864C189.519 180.454 185.37 181.726 181.149 182.689C180.577 182.816 180.822 183.698 181.394 183.561C185.615 182.598 189.764 181.317 193.795 179.736C194.33 179.527 194.094 178.646 193.55 178.864Z" fill="#E75A51"/>
<path d="M133.651 190.694C133.342 193.802 133.106 196.909 132.916 200.026C132.879 200.607 131.972 200.607 132.008 200.026C132.199 196.927 132.435 193.847 132.734 190.758C133.043 190.73 133.342 190.712 133.651 190.694Z" fill="#264653"/>
<path d="M138.517 199.535C138.599 200.108 137.709 200.298 137.627 199.717C137.192 196.646 136.801 193.565 136.474 190.485C136.774 190.458 137.074 190.44 137.373 190.412C137.7 193.456 138.081 196.491 138.517 199.535Z" fill="#264653"/>
</g>
<defs>
<clipPath id="clip0_3598_3120">
<rect width="603" height="393" fill="white" transform="translate(0 0.5)"/>
</clipPath>
</defs>
</svg>
