<svg width="603" height="480" viewBox="0 0 603 480" fill="none" xmlns="http://www.w3.org/2000/svg">
<g clip-path="url(#clip0_3598_2735)">
<path d="M586.31 472.9C586.31 481.088 456.8 479.344 297.045 479.344C137.29 479.344 7.77893 481.075 7.77893 472.9C7.77893 464.724 137.29 462.446 297.045 462.446C456.8 462.446 586.31 464.711 586.31 472.9Z" fill="#4F4F4F"/>
<path d="M297.578 264.11C297.578 264.11 247.392 250.441 230.403 195.737C224.068 175.337 222 158.244 222 158.244C222 158.244 244.361 165.43 255.704 168.971C293.298 180.714 310.443 215.929 317.975 242.526C325.507 269.122 297.591 264.123 297.591 264.123L297.578 264.11Z" fill="#1E9B76"/>
<path d="M323.725 239.232C323.725 239.232 283.789 205.879 291.139 149.066C293.87 127.885 299.113 111.469 299.113 111.469C299.113 111.469 316.453 127.326 325.286 135.28C354.567 161.629 355.491 200.788 351.263 228.114C347.035 255.427 323.738 239.232 323.738 239.232H323.725Z" fill="#1E9B76"/>
<path d="M488.033 243.58C488.033 243.58 482.647 191.806 527.474 156.2C544.19 142.922 559.37 134.811 559.37 134.811C559.37 134.811 560.749 158.27 561.556 170.13C564.196 209.446 537.568 238.164 515.506 254.802C493.444 271.439 488.02 243.58 488.02 243.58H488.033Z" fill="#1E9B76"/>
<path d="M488.735 258.109C488.735 258.109 505.399 208.795 560.983 195.125C581.705 190.022 598.889 188.994 598.889 188.994C598.889 188.994 590.382 210.891 586.154 222.009C572.183 258.851 536.02 273.861 509.041 279.771C482.062 285.695 488.735 258.109 488.735 258.109Z" fill="#1E9B76"/>
<path d="M484.937 365.641C484.937 365.641 507.753 318.866 564.625 312.408C585.829 310 603 311.159 603 311.159C603 311.159 591.761 331.793 586.167 342.286C567.604 377.045 529.828 387.303 502.316 389.725C474.803 392.146 484.937 365.641 484.937 365.641Z" fill="#1E9B76"/>
<path d="M134.194 352.948C134.194 352.948 82.9409 361.852 44.3973 319.503C30.0231 303.712 20.9043 289.105 20.9043 289.105C20.9043 289.105 44.2022 286.124 55.9747 284.523C94.9996 279.211 125.439 303.842 143.521 324.737C161.602 345.631 134.194 352.935 134.194 352.935V352.948Z" fill="#1E9B76"/>
<path d="M158.246 307.253C158.246 307.253 113.003 281.581 110.063 224.378C108.971 203.041 111.182 185.961 111.182 185.961C111.182 185.961 131.072 198.458 141.179 204.694C174.702 225.38 182.598 263.746 183.326 291.384C184.055 319.022 158.233 307.253 158.233 307.253H158.246Z" fill="#1E9B76"/>
<path d="M138.707 335.295C138.707 335.295 87.5979 325.609 66.3813 272.416C58.4723 252.576 55.0641 235.691 55.0641 235.691C55.0641 235.691 77.9197 241.094 89.4971 243.736C127.898 252.485 147.748 286.241 157.335 312.174C166.936 338.094 138.707 335.295 138.707 335.295Z" fill="#1E9B76"/>
<path d="M77.1262 147.699H69.9066V468.695H77.1262V147.699Z" fill="#264653"/>
<path d="M1.50899 170.052C0.923621 170.052 0.455322 169.583 0.455322 168.997V151.826C0.455322 151.24 0.923621 150.772 1.50899 150.772C2.09437 150.772 2.56267 151.24 2.56267 151.826V168.997C2.56267 169.583 2.09437 170.052 1.50899 170.052Z" fill="#FF9C28"/>
<path d="M6.84237 170.052C6.257 170.052 5.7887 169.583 5.7887 168.997V151.826C5.7887 151.24 6.257 150.772 6.84237 150.772C7.42774 150.772 7.89604 151.24 7.89604 151.826V168.997C7.89604 169.583 7.42774 170.052 6.84237 170.052Z" fill="#FF9C28"/>
<path d="M12.1757 170.052C11.5904 170.052 11.1221 169.583 11.1221 168.997V151.826C11.1221 151.24 11.5904 150.772 12.1757 150.772C12.7611 150.772 13.2294 151.24 13.2294 151.826V168.997C13.2294 169.583 12.7611 170.052 12.1757 170.052Z" fill="#FF9C28"/>
<path d="M17.5092 170.052C16.9239 170.052 16.4556 169.583 16.4556 168.997V151.826C16.4556 151.24 16.9239 150.772 17.5092 150.772C18.0946 150.772 18.5629 151.24 18.5629 151.826V168.997C18.5629 169.583 18.0946 170.052 17.5092 170.052Z" fill="#FF9C28"/>
<path d="M22.8426 170.052C22.2572 170.052 21.7889 169.583 21.7889 168.997V151.826C21.7889 151.24 22.2572 150.772 22.8426 150.772C23.428 150.772 23.8963 151.24 23.8963 151.826V168.997C23.8963 169.583 23.428 170.052 22.8426 170.052Z" fill="#FF9C28"/>
<path d="M28.176 170.052C27.5906 170.052 27.1223 169.583 27.1223 168.997V151.826C27.1223 151.24 27.5906 150.772 28.176 150.772C28.7614 150.772 29.2297 151.24 29.2297 151.826V168.997C29.2297 169.583 28.7614 170.052 28.176 170.052Z" fill="#FF9C28"/>
<path d="M33.5094 170.052C32.924 170.052 32.4557 169.583 32.4557 168.997V151.826C32.4557 151.24 32.924 150.772 33.5094 150.772C34.0947 150.772 34.563 151.24 34.563 151.826V168.997C34.563 169.583 34.0947 170.052 33.5094 170.052Z" fill="#FF9C28"/>
<path d="M38.8429 170.052C38.2575 170.052 37.7892 169.583 37.7892 168.997V151.826C37.7892 151.24 38.2575 150.772 38.8429 150.772C39.4282 150.772 39.8965 151.24 39.8965 151.826V168.997C39.8965 169.583 39.4282 170.052 38.8429 170.052Z" fill="#FF9C28"/>
<path d="M44.1762 170.052C43.5909 170.052 43.1226 169.583 43.1226 168.997V151.826C43.1226 151.24 43.5909 150.772 44.1762 150.772C44.7616 150.772 45.2299 151.24 45.2299 151.826V168.997C45.2299 169.583 44.7616 170.052 44.1762 170.052Z" fill="#FF9C28"/>
<path d="M49.5096 170.052C48.9242 170.052 48.4559 169.583 48.4559 168.997V151.826C48.4559 151.24 48.9242 150.772 49.5096 150.772C50.095 150.772 50.5633 151.24 50.5633 151.826V168.997C50.5633 169.583 50.095 170.052 49.5096 170.052Z" fill="#FF9C28"/>
<path d="M54.856 150.759H54.843C54.2611 150.759 53.7893 151.231 53.7893 151.813V168.998C53.7893 169.58 54.2611 170.052 54.843 170.052H54.856C55.4379 170.052 55.9097 169.58 55.9097 168.998V151.813C55.9097 151.231 55.4379 150.759 54.856 150.759Z" fill="#FF9C28"/>
<path d="M60.1765 170.052C59.5911 170.052 59.1228 169.583 59.1228 168.997V151.826C59.1228 151.24 59.5911 150.772 60.1765 150.772C60.7618 150.772 61.2301 151.24 61.2301 151.826V168.997C61.2301 169.583 60.7618 170.052 60.1765 170.052Z" fill="#FF9C28"/>
<path d="M65.5099 170.052C64.9245 170.052 64.4562 169.583 64.4562 168.997V151.826C64.4562 151.24 64.9245 150.772 65.5099 150.772C66.0952 150.772 66.5635 151.24 66.5635 151.826V168.997C66.5635 169.583 66.0952 170.052 65.5099 170.052Z" fill="#FF9C28"/>
<path d="M70.8432 170.052C70.2578 170.052 69.7896 169.583 69.7896 168.997V151.826C69.7896 151.24 70.2578 150.772 70.8432 150.772C71.4286 150.772 71.8969 151.24 71.8969 151.826V168.997C71.8969 169.583 71.4286 170.052 70.8432 170.052Z" fill="#FF9C28"/>
<path d="M76.1766 170.052C75.5912 170.052 75.1229 169.583 75.1229 168.997V151.826C75.1229 151.24 75.5912 150.772 76.1766 150.772C76.762 150.772 77.2303 151.24 77.2303 151.826V168.997C77.2303 169.583 76.762 170.052 76.1766 170.052Z" fill="#FF9C28"/>
<path d="M81.5101 170.052C80.9247 170.052 80.4564 169.583 80.4564 168.997V151.826C80.4564 151.24 80.9247 150.772 81.5101 150.772C82.0955 150.772 82.5638 151.24 82.5638 151.826V168.997C82.5638 169.583 82.0955 170.052 81.5101 170.052Z" fill="#FF9C28"/>
<path d="M86.8435 170.052C86.2581 170.052 85.7898 169.583 85.7898 168.997V151.826C85.7898 151.24 86.2581 150.772 86.8435 150.772C87.4288 150.772 87.8971 151.24 87.8971 151.826V168.997C87.8971 169.583 87.4288 170.052 86.8435 170.052Z" fill="#FF9C28"/>
<path d="M92.1768 170.052C91.5915 170.052 91.1232 169.583 91.1232 168.997V151.826C91.1232 151.24 91.5915 150.772 92.1768 150.772C92.7622 150.772 93.2305 151.24 93.2305 151.826V168.997C93.2305 169.583 92.7622 170.052 92.1768 170.052Z" fill="#FF9C28"/>
<path d="M97.5102 170.052C96.9248 170.052 96.4565 169.583 96.4565 168.997V151.826C96.4565 151.24 96.9248 150.772 97.5102 150.772C98.0956 150.772 98.5639 151.24 98.5639 151.826V168.997C98.5639 169.583 98.0956 170.052 97.5102 170.052Z" fill="#FF9C28"/>
<path d="M102.844 170.052C102.258 170.052 101.79 169.583 101.79 168.997V151.826C101.79 151.24 102.258 150.772 102.844 150.772C103.429 150.772 103.897 151.24 103.897 151.826V168.997C103.897 169.583 103.429 170.052 102.844 170.052Z" fill="#FF9C28"/>
<path d="M108.177 170.052C107.592 170.052 107.123 169.583 107.123 168.997V151.826C107.123 151.24 107.592 150.772 108.177 150.772C108.762 150.772 109.231 151.24 109.231 151.826V168.997C109.231 169.583 108.762 170.052 108.177 170.052Z" fill="#FF9C28"/>
<path d="M113.51 170.052C112.925 170.052 112.457 169.583 112.457 168.997V151.826C112.457 151.24 112.925 150.772 113.51 150.772C114.096 150.772 114.564 151.24 114.564 151.826V168.997C114.564 169.583 114.096 170.052 113.51 170.052Z" fill="#FF9C28"/>
<path d="M118.844 170.052C118.258 170.052 117.79 169.583 117.79 168.997V151.826C117.79 151.24 118.258 150.772 118.844 150.772C119.429 150.772 119.898 151.24 119.898 151.826V168.997C119.898 169.583 119.429 170.052 118.844 170.052Z" fill="#FF9C28"/>
<path d="M124.177 170.052C123.592 170.052 123.124 169.583 123.124 168.997V151.826C123.124 151.24 123.592 150.772 124.177 150.772C124.763 150.772 125.231 151.24 125.231 151.826V168.997C125.231 169.583 124.763 170.052 124.177 170.052Z" fill="#FF9C28"/>
<path d="M129.511 170.052C128.925 170.052 128.457 169.583 128.457 168.997V151.826C128.457 151.24 128.925 150.772 129.511 150.772C130.096 150.772 130.564 151.24 130.564 151.826V168.997C130.564 169.583 130.096 170.052 129.511 170.052Z" fill="#FF9C28"/>
<path d="M134.844 170.052C134.259 170.052 133.79 169.583 133.79 168.997V151.826C133.79 151.24 134.259 150.772 134.844 150.772C135.429 150.772 135.898 151.24 135.898 151.826V168.997C135.898 169.583 135.429 170.052 134.844 170.052Z" fill="#FF9C28"/>
<path d="M140.177 170.052C139.592 170.052 139.124 169.583 139.124 168.997V151.826C139.124 151.24 139.592 150.772 140.177 150.772C140.763 150.772 141.231 151.24 141.231 151.826V168.997C141.231 169.583 140.763 170.052 140.177 170.052Z" fill="#FF9C28"/>
<path d="M145.511 170.052C144.926 170.052 144.457 169.583 144.457 168.997V151.826C144.457 151.24 144.926 150.772 145.511 150.772C146.096 150.772 146.565 151.24 146.565 151.826V168.997C146.565 169.583 146.096 170.052 145.511 170.052Z" fill="#FF9C28"/>
<path d="M114.785 69.758H32.2346C32.3647 67.5709 32.4818 65.3708 32.5208 63.1056H114.512C114.551 65.3708 114.655 67.5709 114.785 69.758Z" fill="#FF9C28"/>
<path d="M147.02 151.253C147.02 151.253 137.732 165.157 101.66 153.961C101.66 153.961 96.2094 165.157 73.5099 165.157C50.8104 165.157 45.373 153.961 45.373 153.961C9.28793 165.157 0 151.253 0 151.253C0 151.253 1.561 149.743 4.00656 146.762C12.0847 136.894 29.75 110.883 32.2346 69.758H114.785C117.283 110.883 134.948 136.894 143.013 146.762C145.459 149.743 147.02 151.253 147.02 151.253Z" fill="#FF9C28"/>
<path d="M143.013 146.762C137.589 149.939 125.842 153.323 103.143 146.567C102.649 146.424 102.154 146.28 101.66 146.124C101.66 146.124 101.556 146.332 101.322 146.71C99.8258 149.001 93.0745 157.32 73.51 157.32C53.9455 157.32 47.1812 148.975 45.7112 146.697C45.4771 146.332 45.373 146.124 45.373 146.124C44.8657 146.28 44.3714 146.437 43.877 146.58C21.1906 153.323 9.44406 149.939 4.00659 146.762C12.0848 136.894 29.75 110.883 32.2346 69.758H114.785C117.283 110.883 134.948 136.894 143.013 146.762Z" fill="#E75A51"/>
<path d="M34.9403 95.5215C33.2623 106.066 29.5029 116.195 23.8963 125.269C23.454 125.985 24.5857 126.636 25.015 125.92C30.6866 116.755 34.498 106.509 36.2021 95.86C36.3322 95.0398 35.0834 94.6883 34.9533 95.5085L34.9403 95.5215Z" fill="#24AF86"/>
<path d="M38.5696 104.53C37.7501 110.011 36.5013 115.427 34.8492 120.725C34.6021 121.532 35.8509 121.871 36.098 121.077C37.7501 115.778 38.9989 110.376 39.8184 104.882C39.9355 104.062 38.6867 103.71 38.5696 104.53Z" fill="#24AF86"/>
<path d="M112.08 95.5215C113.758 106.066 117.517 116.195 123.124 125.269C123.566 125.985 122.447 126.636 122.005 125.92C116.333 116.755 112.522 106.509 110.818 95.86C110.688 95.0398 111.936 94.6883 112.067 95.5085L112.08 95.5215Z" fill="#24AF86"/>
<path d="M108.45 104.53C109.27 110.011 110.519 115.427 112.171 120.725C112.418 121.532 111.169 121.871 110.922 121.077C109.27 115.778 108.021 110.376 107.201 104.882C107.084 104.062 108.333 103.71 108.45 104.53Z" fill="#24AF86"/>
<path d="M59.6041 69.758C58.7196 127.365 46.4397 145.708 45.9064 146.502C45.8804 146.541 45.8413 146.58 45.8023 146.619L45.7112 146.697C45.4771 146.332 45.373 146.124 45.373 146.124C44.8657 146.28 44.3714 146.437 43.8771 146.58L44.8787 145.695C45.6722 144.471 57.4187 125.256 58.3033 69.758H59.6041Z" fill="#24AF86"/>
<path d="M103.143 146.567C102.649 146.424 102.154 146.28 101.66 146.124C101.66 146.124 101.556 146.332 101.322 146.71L101.218 146.619C101.218 146.619 101.14 146.541 101.114 146.502C100.58 145.708 88.3003 127.365 87.4158 69.758H88.7166C89.6012 125.256 101.348 144.471 102.141 145.695L103.143 146.567Z" fill="#24AF86"/>
<path d="M574.954 301.095C574.954 315.377 570.089 324.411 567.67 328.018C566.915 329.137 565.627 329.801 564.274 329.801H272.94C271.587 329.801 270.313 329.137 269.558 328.018C267.139 324.411 262.26 315.377 262.26 301.095C262.26 286.814 267.139 277.766 269.558 274.16C270.313 273.041 271.587 272.377 272.94 272.377H564.274C565.627 272.377 566.915 273.041 567.67 274.16C570.089 277.766 574.954 286.801 574.954 301.095Z" fill="#264653"/>
<path d="M489.815 316.626H347.413C338.827 316.626 331.881 309.662 331.881 301.082C331.881 292.49 338.84 285.538 347.413 285.538H489.815C498.4 285.538 505.347 292.503 505.347 301.082C505.347 309.675 498.387 316.626 489.815 316.626Z" fill="#EB7A68"/>
<path d="M542.173 301.095C542.173 314.517 538.596 324.06 535.5 329.801H529.464C531.988 325.843 536.97 316.132 536.97 301.095C536.97 286.059 531.988 276.334 529.464 272.377H535.5C538.609 278.131 542.173 287.66 542.173 301.095Z" fill="#EB7A68"/>
<path d="M300.258 301.095C300.258 316.132 305.227 325.843 307.764 329.801H301.715C298.632 324.06 295.054 314.517 295.054 301.095C295.054 287.673 298.619 278.131 301.728 272.377H307.764C305.227 276.334 300.258 286.033 300.258 301.095Z" fill="#EB7A68"/>
<path d="M561.725 434.287C561.556 435.146 561.322 436.018 561.022 436.891C559.826 440.51 557.679 444.246 555.273 447.683C554.661 448.581 554.024 449.44 553.373 450.287C548.365 456.874 543.032 461.834 543.032 461.834H260.166C262.274 458.866 263.783 454.869 264.836 450.287C265.031 449.44 265.213 448.568 265.383 447.683C266.02 444.285 266.436 440.627 266.709 436.891C266.761 436.031 266.814 435.159 266.853 434.287C267.022 430.694 267.061 427.049 267.009 423.495C266.996 422.623 266.983 421.75 266.957 420.891C266.853 417.077 266.644 413.418 266.397 410.099C266.332 409.2 266.267 408.328 266.189 407.495C265.526 399.424 264.706 393.865 264.706 393.865H525.653C525.653 393.865 534.733 399.905 543.799 407.495C544.827 408.341 545.842 409.214 546.856 410.099C550.863 413.627 554.661 417.35 557.445 420.891C558.147 421.776 558.785 422.649 559.331 423.495C560.333 425.018 561.087 426.489 561.53 427.856C562.167 429.835 562.18 432.009 561.725 434.287Z" fill="#FFFAF4"/>
<path d="M555.273 447.683C554.661 448.581 554.024 449.44 553.373 450.287H264.836C265.031 449.44 265.213 448.568 265.383 447.683H555.273Z" fill="#FFFAF4"/>
<path d="M561.725 434.287C561.556 435.146 561.322 436.018 561.022 436.891H266.709C266.762 436.031 266.814 435.159 266.853 434.287H561.725Z" fill="#FFFAF4"/>
<path d="M559.331 423.495H267.009C266.996 422.623 266.983 421.75 266.957 420.891H557.445C558.147 421.776 558.785 422.649 559.331 423.495Z" fill="#FFFAF4"/>
<path d="M546.856 410.099H266.397C266.332 409.2 266.267 408.328 266.189 407.495H543.799C544.827 408.341 545.842 409.214 546.856 410.099Z" fill="#FFFAF4"/>
<path d="M525.028 457.252H253.402C249.096 457.252 245.597 460.753 245.597 465.063C245.597 469.372 249.096 472.874 253.402 472.874H525.028C525.236 472.874 525.445 472.874 525.653 472.861V457.225C525.445 457.225 525.236 457.252 525.028 457.252Z" fill="#24AF86"/>
<path d="M568.411 429.457C568.411 405.725 549.289 386.392 525.653 386.054V401.689C540.677 402.027 552.801 414.343 552.801 429.457C552.801 444.572 540.677 456.887 525.653 457.225V472.861C549.289 472.522 568.411 453.19 568.411 429.457Z" fill="#1E9B76"/>
<path d="M525.028 386.041H253.402C249.096 386.041 245.597 389.543 245.597 393.852C245.597 398.161 249.096 401.663 253.402 401.663H525.028C525.236 401.663 525.445 401.689 525.653 401.689V386.054C525.445 386.054 525.236 386.041 525.028 386.041Z" fill="#24AF86"/>
<path d="M555.819 259.215H274.514C270.976 259.215 267.971 256.729 266.983 253.292C266.748 252.511 266.631 251.678 266.631 250.805V231.2C266.631 230.327 266.748 229.481 266.983 228.7C267.984 225.276 270.976 222.777 274.514 222.777H553.582C553.061 224.729 552.671 226.695 552.385 228.7C552.242 229.663 552.125 230.627 552.034 231.603C551.786 234.233 551.721 236.889 551.838 239.531C551.877 240.508 551.93 241.458 552.021 242.434C552.255 245.103 552.658 247.772 553.23 250.376C553.438 251.352 553.66 252.328 553.933 253.279C554.466 255.297 555.091 257.275 555.819 259.202V259.215Z" fill="#FFFAF4"/>
<path d="M552.372 228.687C552.229 229.65 552.112 230.614 552.021 231.59H266.618V231.187C266.618 230.314 266.735 229.468 266.97 228.687H552.372Z" fill="#FFFAF4"/>
<path d="M552.008 242.434H266.618V239.531H551.826C551.865 240.508 551.917 241.458 552.008 242.434Z" fill="#FFFAF4"/>
<path d="M553.933 253.292H266.983C266.748 252.511 266.631 251.678 266.631 250.805V250.389H553.23C553.438 251.365 553.66 252.341 553.933 253.292Z" fill="#FFFAF4"/>
<path d="M266.618 231.187V250.805C266.618 253.435 267.763 255.791 269.545 257.341C270.898 258.512 272.615 259.215 274.501 259.215H539.325V272.377H266.892C263.588 272.377 260.544 271.205 258.085 269.252C254.417 266.362 252.036 261.728 252.036 256.494V225.497C252.036 220.251 254.417 215.616 258.085 212.726C260.557 210.774 263.601 209.602 266.905 209.602H539.325V222.764H274.514C272.628 222.764 270.911 223.467 269.558 224.638C267.763 226.187 266.618 228.544 266.618 231.187Z" fill="#E75A51"/>
<path d="M562.805 209.602H539.325V222.764H562.805C566.2 222.764 568.958 219.821 568.958 216.189C568.958 212.557 566.2 209.615 562.805 209.615V209.602Z" fill="#FF9C28"/>
<path d="M562.805 259.215H539.325V272.377H562.805C566.2 272.377 568.958 269.435 568.958 265.803C568.958 262.17 566.2 259.228 562.805 259.228V259.215Z" fill="#FF9C28"/>
<path d="M265.994 349.146V366.721C265.994 370.887 269.363 374.259 273.526 374.259H549.38C552.632 374.259 555.273 376.902 555.273 380.156C555.273 383.411 552.632 386.054 549.38 386.054H266.254C258.397 386.054 252.036 379.675 252.036 371.825V344.043C252.036 336.18 258.41 329.801 266.267 329.801H549.38C552.632 329.801 555.273 332.444 555.273 335.698C555.273 338.953 552.632 341.596 549.38 341.596H273.539C269.376 341.596 265.994 344.981 265.994 349.146Z" fill="#264653"/>
<path d="M542.694 374.259H273.539C270.157 374.259 267.282 372.033 266.332 368.948C266.111 368.245 265.994 367.502 265.994 366.721V349.146C265.994 348.365 266.111 347.61 266.332 346.907C267.295 343.835 270.157 341.596 273.539 341.596H540.547C540.053 343.34 539.676 345.111 539.403 346.907C539.26 347.767 539.156 348.639 539.065 349.511C538.83 351.867 538.765 354.25 538.882 356.619C538.921 357.491 538.973 358.351 539.052 359.223C539.273 361.618 539.663 364.001 540.209 366.344C540.404 367.216 540.626 368.088 540.886 368.948C541.393 370.757 541.991 372.528 542.694 374.259Z" fill="#FFFAF4"/>
<path d="M539.403 346.907C539.26 347.767 539.156 348.639 539.064 349.511H265.994V349.146C265.994 348.365 266.111 347.61 266.332 346.907H539.403Z" fill="#FFFAF4"/>
<path d="M539.052 359.223H265.994V356.619H538.882C538.921 357.491 538.973 358.35 539.052 359.223Z" fill="#FFFAF4"/>
<path d="M540.886 368.948H266.332C266.111 368.245 265.994 367.502 265.994 366.721V366.344H540.209C540.404 367.216 540.626 368.088 540.886 368.948Z" fill="#FFFAF4"/>
<path d="M422.146 346.907C422.133 347.623 422.107 348.496 422.055 349.511C421.925 352.779 421.729 357.517 421.495 363.089C421.3 367.815 421.079 373.152 420.845 378.685C419.856 402.249 418.712 429.457 418.712 429.457L403.44 416.582L388.194 429.457C388.194 429.457 387.882 422.18 387.44 411.895C387.257 407.547 387.049 402.665 386.828 397.562C386.074 379.466 385.202 358.663 384.825 349.511C384.786 348.496 384.734 347.623 384.734 346.907H422.146Z" fill="#264653"/>
<path d="M522.778 263.928C522.713 264.357 522.648 264.774 522.583 265.204C518.849 287.7 503.981 312.083 495.018 325.167C494.459 325.974 493.938 326.729 493.444 327.445C490.205 332.04 488.072 334.748 488.072 334.748C483.987 325.961 470.25 318.514 459.675 313.893C458.855 313.528 458.048 313.19 457.281 312.864C451.089 310.287 446.484 308.815 446.484 308.815C446.484 308.815 447.837 306.576 449.84 302.71C450.243 301.916 450.673 301.069 451.128 300.145C456.735 288.832 465.554 268.029 466.595 247.199C467.493 229.273 452.481 216.267 439.759 208.521C431.954 203.77 419.414 196.714 419.414 196.714L421.443 195.855L442.282 197.208L445.691 196.714L485.353 190.855C485.353 190.855 507.805 200.88 518.264 227.971C518.42 228.388 518.576 228.791 518.719 229.221C521.204 236.003 522.921 243.84 523.376 252.823C523.558 256.416 523.324 260.14 522.778 263.928Z" fill="#24AF86"/>
<path d="M495.018 325.167C494.459 325.974 493.938 326.729 493.444 327.445C489.919 322.237 485.652 317.538 480.761 313.567C476.364 309.987 471.434 306.954 466.022 305.196C460.793 303.504 455.317 302.892 449.84 302.71C450.243 301.916 450.673 301.069 451.128 300.145C457.294 300.445 463.473 301.304 469.222 303.595C479.356 307.644 487.98 315.455 494.329 324.19C494.563 324.516 494.797 324.841 495.018 325.167Z" fill="#282828"/>
<path d="M471.317 282.401C467.701 292.998 463.811 303.491 459.675 313.893C458.855 313.528 458.049 313.19 457.281 312.864C461.743 301.616 466.01 290.264 469.808 278.769C473.502 267.534 476.455 255.804 475.35 243.893C474.829 238.321 473.372 232.749 470.758 227.776C467.987 222.503 463.876 218.142 459.792 213.872C454.211 208.04 448.396 202.455 442.282 197.208L445.691 196.714C452.442 202.611 458.855 208.912 464.904 215.512C468.871 219.847 472.384 224.482 474.634 229.963C476.78 235.183 477.847 240.781 478.12 246.405C478.719 258.747 475.272 270.841 471.317 282.401Z" fill="#282828"/>
<path d="M421.105 197.391C418.152 200.528 409.111 212.388 407.615 215.031C403.934 221.501 401.462 228.661 399.433 235.795C397.091 244.049 395.374 252.472 393.969 260.934C392.591 269.2 391.537 277.519 390.678 285.851C389.989 292.542 389.456 299.247 389.039 305.951C388.961 307.084 388.896 308.151 388.844 309.141C388.558 314.283 388.48 317.369 388.48 317.369C385.943 315.533 383.082 314.114 380.051 313.046C379.179 312.734 378.307 312.448 377.423 312.2C359.537 307.084 337.084 312.226 337.084 312.226C337.084 312.226 336.408 308.659 335.614 302.97C335.484 302.15 335.367 301.291 335.25 300.392C333.845 289.835 332.31 273.848 333.247 259.358C333.273 258.929 333.299 258.512 333.338 258.083C333.611 254.294 334.066 250.623 334.756 247.199C336.369 239.141 339.608 230.783 343.302 223.102C343.497 222.686 343.692 222.282 343.901 221.878C351.862 205.631 361.605 192.73 361.605 192.73C361.605 192.73 392.213 190.868 410.646 192.847C411.817 192.977 412.936 193.121 413.989 193.29C415.706 193.55 424.89 194.657 423.537 197.82C423.329 198.302 422.978 198.706 422.614 199.096C422.588 199.122 421.144 197.352 421.118 197.391H421.105Z" fill="#24AF86"/>
<path d="M389.039 305.951C388.961 307.084 388.896 308.151 388.844 309.141C386.125 306.941 383.069 305.313 379.517 304.272C373.781 302.606 367.706 301.851 361.774 301.46C353.019 300.874 344.226 301.395 335.614 302.97C335.484 302.15 335.367 301.291 335.25 300.392C338.892 299.729 342.574 299.247 346.281 298.96C352.681 298.453 359.12 298.518 365.507 299.156C371.53 299.768 377.904 300.627 383.563 302.905C385.54 303.712 387.361 304.741 389.039 305.951Z" fill="#282828"/>
<path d="M413.989 193.29C408.318 198.302 403.427 204.173 399.316 210.552C388.389 227.515 383.329 247.473 381.104 267.352C379.413 282.505 379.075 297.815 380.051 313.046C379.179 312.734 378.308 312.448 377.423 312.2C377.072 306.667 376.916 301.122 376.929 295.576C376.994 273.783 379.114 251.274 386.581 230.653C391.732 216.476 399.68 203.171 410.646 192.847C411.817 192.977 412.936 193.121 413.989 193.29Z" fill="#282828"/>
<path d="M375.12 132.09C378.372 121.285 387.361 113.188 398.457 111.118C402.672 110.336 406.887 109.712 410.204 109.555C418.451 109.152 439.616 107.355 453.886 108.241C460.611 108.657 466.829 112.133 470.536 117.77C484.13 138.443 484.234 182.823 487.577 191.936C466.335 201.596 370.424 200.88 361.605 192.73C360.174 184.047 369.124 152.048 375.12 132.09Z" fill="#1D1D1D"/>
<path d="M443.167 109.66C443.167 109.66 422.328 130.385 406.418 111.703C407.186 111.183 407.732 110.245 408.123 109.191C409.137 106.47 409.111 102.851 409.111 102.851L434.673 96.0422C434.673 96.0422 435.258 98.8672 436.923 102.161C438.25 104.752 440.24 107.642 443.167 109.66Z" fill="#F38C12"/>
<path d="M434.673 96.0422L409.111 102.851C409.111 102.851 409.137 106.47 408.123 109.191C408.799 109.347 409.501 109.464 410.204 109.555C412.975 109.881 415.797 109.803 418.555 109.399C424.162 108.592 429.547 106.47 434.464 103.684C435.31 103.215 436.142 102.721 436.923 102.161C435.258 98.8672 434.673 96.0422 434.673 96.0422Z" fill="#264653"/>
<path d="M465.957 67.9745C464.423 79.4438 452.039 78.3763 452.039 78.3763C449.593 99.6223 432.318 106.509 398.561 104.83C385.163 104.153 378.594 100.195 375.693 95.2481C373.247 91.1213 373.364 86.3175 374.171 82.2037C374.847 78.8449 375.966 75.9418 376.551 74.2494C377.774 70.6563 376.408 65.0324 375.003 60.8665C373.247 55.62 373.677 49.7878 376.499 45.0361C386.568 28.1251 412.454 30.4554 423.16 31.8875C435.687 33.5668 451.18 59.4605 451.18 59.4605C459.479 54.5916 467.479 56.5183 465.957 67.9745Z" fill="#F38C12"/>
<path d="M417.033 73.0908C417.762 75.2518 417.137 77.3999 415.641 77.9076C414.145 78.4153 412.35 77.0744 411.622 74.9133C410.893 72.7523 411.518 70.6042 413.014 70.0965C414.51 69.5888 416.305 70.9297 417.033 73.0908Z" fill="#1D1D1D"/>
<path d="M390.47 76.2282C391.199 78.3893 390.574 80.5373 389.079 81.045C387.583 81.5527 385.787 80.2118 385.059 78.0508C384.331 75.8897 384.955 73.7417 386.451 73.234C387.947 72.7262 389.742 74.0671 390.47 76.2282Z" fill="#1D1D1D"/>
<path d="M401.736 84.0393C399.42 85.1328 396.753 83.4144 396.753 80.8758C396.753 78.168 399.511 77.1004 401.657 76.3584C402.074 76.2152 402.386 75.7986 402.243 75.343C401.579 73.221 401.02 71.0599 400.539 68.8858C400.318 67.8443 398.718 68.2739 398.939 69.3154C399.355 71.2421 399.862 73.1428 400.435 75.0435C399.134 75.5252 397.833 76.085 396.805 77.0353C395.544 78.194 394.932 79.8473 395.14 81.5397C395.583 85.0938 399.394 86.9684 402.555 85.4713C403.518 85.0156 402.685 83.5836 401.723 84.0393H401.736Z" fill="#264653"/>
<path d="M418.737 85.4192C418.295 88.2052 416.656 90.7828 414.289 92.332C411.713 94.0114 408.37 94.1676 405.612 92.8397C404.78 92.4361 404.636 91.3035 405.027 90.5745C405.469 89.7413 406.51 89.6111 407.29 89.9887C407.407 90.0408 407.42 90.0538 407.407 90.0538C407.42 90.0538 407.446 90.0538 407.511 90.0798C409.111 90.6266 410.841 90.4834 412.324 89.6372C414.185 88.5697 415.199 86.5909 415.524 84.5209C415.667 83.6097 416.773 83.1931 417.567 83.3753C418.503 83.5966 418.855 84.56 418.711 85.4192H418.737Z" fill="#264653"/>
<path d="M460.364 62.5458C459.076 61.999 457.554 62.0381 456.292 62.65C455.655 62.9624 452.559 65.3448 453.795 66.0738C454.068 66.243 454.419 66.243 454.718 66.3732C455.291 66.6076 455.629 67.2455 455.681 67.8573C455.72 68.4822 455.525 69.0811 455.291 69.6669C455.057 70.2527 454.796 70.8125 454.679 71.4244C454.627 71.6848 454.653 71.9972 454.874 72.1274C455.135 72.2706 455.447 72.0232 455.629 71.7889C456.266 70.9818 456.514 70.1225 456.852 69.1852C457.151 68.326 457.359 67.6881 456.93 66.7768C456.605 66.0738 456.019 65.514 455.33 65.2406C456.37 63.8997 458.101 63.0926 459.779 63.8216C460.598 64.1731 461.171 62.9234 460.351 62.5719L460.364 62.5458Z" fill="#264653"/>
<path d="M413.404 61.3481C414.341 61.3351 415.29 61.2961 416.175 60.9966C417.059 60.6972 417.892 60.1244 418.295 59.2782C419.609 56.4792 414.393 55.594 412.545 55.62C410.529 55.6461 408.448 57.3905 409.306 59.6167C409.931 61.231 411.947 61.3612 413.404 61.3351V61.3481Z" fill="#1D1D1D"/>
<path d="M386.282 65.7093C385.371 65.9176 384.435 66.0999 383.511 66.0218C382.574 65.9436 381.638 65.5791 381.052 64.8501C379.114 62.4417 383.979 60.3457 385.774 59.9421C387.739 59.4995 390.171 60.6842 389.872 63.0666C389.651 64.785 387.726 65.3838 386.295 65.7093H386.282Z" fill="#1D1D1D"/>
<path d="M441.45 80.1077C441.45 83.857 438.419 86.8903 434.673 86.8903C430.926 86.8903 427.895 83.857 427.895 80.1077C427.895 76.3584 430.926 73.3251 434.673 73.3251C438.419 73.3251 441.45 76.3584 441.45 80.1077Z" fill="#264653"/>
<path d="M383.381 88.5306C383.381 92.2799 380.337 95.3262 376.59 95.3262C376.278 95.3262 375.979 95.3002 375.693 95.2481C373.247 91.1213 373.364 86.3175 374.171 82.2037C374.925 81.9042 375.732 81.748 376.59 81.748C380.337 81.748 383.381 84.7813 383.381 88.5306Z" fill="#264653"/>
<path d="M422.523 15.1588C422.523 15.1588 409.866 5.65531 397.222 10.9929C384.564 16.3434 379.973 23.9071 367.81 20.288C355.647 16.6689 347.27 16.6689 346.944 26.5369C346.619 36.4048 358.613 38.2144 358.613 38.2144C358.613 38.2144 346.294 44.7887 351.224 52.1962C356.154 59.6037 378.828 62.0641 394.113 43.6431C394.113 43.6431 392.968 53.1856 401.501 52.0269C410.048 50.8813 416.786 36.4048 416.786 36.4048C416.786 36.4048 419.531 62.2724 434.035 61.3481C441.905 60.8404 445.04 52.3524 445.04 52.3524C445.04 52.3524 446.887 63.3009 459.037 59.5906C471.2 55.8804 459.336 37.5505 459.336 37.5505C459.336 37.5505 472.319 35.129 471.33 27.8647C470.341 20.6135 447.837 13.6096 436.988 19.4158C436.988 19.4158 448.331 8.44125 442.738 5.98077C437.157 3.52029 430.575 18.153 430.575 18.153C430.575 18.153 429.261 -2.57234 424.006 0.890565C418.75 4.34045 422.523 15.1588 422.523 15.1588Z" fill="#1D1D1D"/>
<path d="M388.935 37.9931C387.713 39.373 386.36 40.6488 384.799 41.6513C383.303 42.6146 381.312 43.6691 379.478 43.2916C378.724 43.1354 377.969 42.7058 377.605 42.0028C377.137 41.0915 377.436 39.9849 377.787 39.0866C378.464 37.3552 379.634 35.8711 381.065 34.6994C381.599 34.2698 381.013 33.4757 380.428 33.6059C378.386 34.1006 376.083 34.5041 373.989 34.2438C372.129 34.0094 371.335 32.0827 371.894 30.4033C372.467 28.6979 374.119 27.5653 375.667 26.7842C377.605 25.8078 379.764 25.3262 381.937 25.3131C382.769 25.3131 382.769 24.0113 381.937 24.0113C379.296 24.0373 376.668 24.6883 374.379 26.0031C372.61 27.0055 370.867 28.5677 370.503 30.6767C370.203 32.4603 370.945 34.5172 372.714 35.2332C373.937 35.7279 375.42 35.5977 376.707 35.5066C377.358 35.4545 378.021 35.3764 378.659 35.2722C376.356 38.0191 374.366 42.4975 378.295 44.2419C380.35 45.1532 382.678 44.32 384.538 43.3046C386.581 42.185 388.324 40.6228 389.872 38.8914C390.431 38.2665 389.508 37.3422 388.948 37.967L388.935 37.9931Z" fill="#264653"/>
<path d="M451.297 33.2544C451.011 31.0152 450.205 28.8932 448.956 27.0185C448.487 26.3286 447.369 26.9795 447.837 27.6695C448.813 29.1406 449.502 30.7418 449.853 32.4733C450.166 33.9964 450.426 36.0533 449.658 37.4854C448.722 39.2298 446.523 38.3185 445.183 37.6546C443.7 36.9256 442.23 36.0533 441.424 34.5562C441.047 33.8532 440.136 34.387 440.24 35.0639C440.552 37.3291 440.747 39.6074 440.813 41.8986C440.852 43.2786 440.852 45.5828 439.2 46.0645C437.352 46.5983 435.661 44.4502 434.829 43.1093C433.736 41.3649 433.112 39.373 432.982 37.3161C432.93 36.4829 431.629 36.4829 431.681 37.3161C431.837 39.7766 432.604 42.185 433.996 44.2159C435.141 45.8822 437.079 47.822 439.317 47.3663C441.398 46.9498 442.035 44.7627 442.113 42.914C442.191 40.9743 442.035 38.9955 441.801 37.0427C442.738 37.8629 443.869 38.4878 445.001 39.0085C446.679 39.7766 448.878 40.3755 450.309 38.8263C451.635 37.4073 451.531 35.0639 451.31 33.2674L451.297 33.2544Z" fill="#264653"/>
<path d="M383.784 313.632C370.62 334.696 347.413 353.351 322.879 355.109C322.307 351.516 322.203 346.543 323.66 340.216C323.855 339.383 324.076 338.523 324.323 337.651C324.882 335.659 325.598 333.55 326.508 331.324C326.834 330.491 327.198 329.632 327.601 328.76C328.382 326.989 329.292 325.154 330.333 323.24C330.775 322.407 331.256 321.56 331.764 320.701C332.141 320.037 332.544 319.36 332.961 318.683C332.961 318.683 316.089 298.83 326.443 294.092C336.798 289.353 351.588 308.464 351.588 308.464C351.588 308.464 370.021 304.949 383.784 313.632Z" fill="#FF9C28"/>
<path d="M322.879 355.096C323.009 355.877 323.139 356.606 323.308 357.257C323.959 359.952 324.635 362.373 329.318 361.136C373.234 349.485 388.48 317.368 388.48 317.368C387.01 315.897 385.423 314.674 383.784 313.632C370.62 334.696 347.413 353.351 322.879 355.096Z" fill="#FFDCB2"/>
<path d="M349.845 324.516C343.341 323.943 336.837 323.513 330.333 323.24C330.775 322.407 331.256 321.56 331.764 320.701C337.8 320.975 343.822 321.378 349.845 321.912C351.497 322.068 351.51 324.672 349.845 324.516Z" fill="#264653"/>
<path d="M346.658 332.639C339.959 332.04 333.247 331.598 326.509 331.324C326.834 330.491 327.198 329.632 327.601 328.76C333.975 329.033 340.323 329.463 346.658 330.035C348.323 330.179 348.336 332.782 346.658 332.639Z" fill="#264653"/>
<path d="M343.588 341.518C336.954 340.919 330.307 340.476 323.66 340.216C323.855 339.383 324.076 338.524 324.323 337.651C330.749 337.912 337.175 338.341 343.588 338.914C345.24 339.057 345.253 341.661 343.588 341.518Z" fill="#264653"/>
<path d="M452.481 308.49C450.985 333.29 459.076 361.957 478.042 377.631C480.592 375.04 483.558 371.043 486.042 365.042C486.368 364.248 486.68 363.428 486.992 362.568C487.694 360.616 488.332 358.494 488.878 356.15C489.099 355.278 489.294 354.367 489.476 353.43C489.867 351.529 490.192 349.511 490.452 347.35C490.569 346.413 490.673 345.449 490.764 344.447C490.842 343.692 490.907 342.898 490.959 342.104C490.959 342.104 516.209 335.724 510.524 325.857C504.839 315.989 480.709 324.411 480.709 324.411C480.709 324.411 468.728 309.401 452.494 308.477L452.481 308.49Z" fill="#FF9C28"/>
<path d="M478.042 377.631C477.483 378.191 476.949 378.711 476.442 379.141C474.348 380.951 472.396 382.539 469.3 378.802C440.292 343.809 446.484 308.802 446.484 308.802C448.539 308.464 450.53 308.373 452.481 308.49C450.998 333.29 459.076 361.957 478.042 377.631Z" fill="#FFDCB2"/>
<path d="M473.814 337.065C479.447 340.372 484.989 343.796 490.452 347.35C490.569 346.413 490.673 345.449 490.764 344.447C485.691 341.166 480.553 338.003 475.336 334.93C473.906 334.097 472.384 336.206 473.827 337.052L473.814 337.065Z" fill="#264653"/>
<path d="M471.694 345.527C477.496 348.925 483.22 352.466 488.865 356.15C489.086 355.278 489.281 354.367 489.464 353.43C484.117 349.954 478.693 346.621 473.203 343.405C471.759 342.559 470.25 344.668 471.694 345.527Z" fill="#264653"/>
<path d="M469.054 354.549C474.803 357.908 480.475 361.41 486.042 365.055C486.368 364.261 486.68 363.441 486.992 362.582C481.607 359.067 476.13 355.682 470.563 352.427C469.132 351.581 467.61 353.703 469.054 354.549Z" fill="#264653"/>
<path d="M350.262 252.615C347.361 256.169 343.419 258.486 338.866 259.15C337.006 259.424 335.133 259.489 333.247 259.358C333.273 258.929 333.299 258.512 333.338 258.083C335.562 258.239 337.8 258.109 339.959 257.64C348.31 255.804 353.839 247.264 354.489 239.063C354.828 234.897 353.813 230.614 351.016 227.424C349.013 225.146 346.294 223.506 343.302 223.102C343.497 222.686 343.692 222.282 343.901 221.878C347.413 222.464 350.574 224.612 352.72 227.476C358.34 234.936 355.79 245.871 350.262 252.615Z" fill="#282828"/>
<path d="M347.647 233.283C345.045 234.884 342.639 236.771 340.479 238.933C339.881 239.518 340.804 240.443 341.403 239.857C343.484 237.774 345.8 235.951 348.31 234.415C349.026 233.972 348.375 232.853 347.66 233.296L347.647 233.283Z" fill="#282828"/>
<path d="M347.634 239.245C347.361 238.972 346.997 239.024 346.71 239.245C343.836 241.471 341.195 243.984 338.801 246.718C338.255 247.342 339.166 248.267 339.725 247.642C342.118 244.895 344.759 242.395 347.634 240.169C347.907 239.948 347.855 239.479 347.634 239.245Z" fill="#282828"/>
<path d="M522.778 263.928C522.713 264.357 522.648 264.774 522.583 265.204C518.238 264.449 514.465 262.17 511.669 258.76C506.14 252.003 503.577 241.068 509.21 233.608C511.421 230.679 514.661 228.505 518.264 227.971C518.42 228.388 518.576 228.791 518.719 229.221C515.701 229.611 512.93 231.252 510.901 233.556C508.104 236.745 507.103 241.028 507.428 245.194C508.091 253.396 513.62 261.936 521.971 263.772C522.244 263.837 522.505 263.889 522.778 263.928Z" fill="#282828"/>
<path d="M512.631 239.961C515.233 241.562 517.639 243.45 519.799 245.611C520.397 246.197 519.474 247.121 518.875 246.535C516.794 244.452 514.478 242.63 511.968 241.094C511.252 240.651 511.903 239.531 512.618 239.974L512.631 239.961Z" fill="#282828"/>
<path d="M512.644 245.923C512.918 245.65 513.282 245.702 513.568 245.923C516.443 248.15 519.083 250.662 521.477 253.396C522.023 254.021 521.113 254.945 520.553 254.32C518.16 251.573 515.519 249.074 512.644 246.848C512.371 246.626 512.423 246.158 512.644 245.923Z" fill="#282828"/>
<path d="M520.384 105.077L412.949 145.07L313.682 109.764L323.881 95.3262C323.881 95.3262 367.472 96.7973 410.659 129.877C410.659 129.877 450.959 92.1107 497.451 87.5673L503.343 92.0586L488.995 96.4458C488.995 96.4458 497.984 95.6777 506.791 94.7014L520.384 105.077Z" fill="#FFFAF4"/>
<path d="M412.949 145.07C412.949 145.07 417.424 136.504 430.627 127.378C449.957 114.021 484.611 99.1016 523.441 105.064L507.948 205.696L422.523 212.87L340.284 205.696L311.107 105.064C311.107 105.064 401.059 122.587 412.936 145.07H412.949Z" fill="#FF9C28"/>
<path d="M472.774 137.636C466.348 142.193 460.52 147.53 455.434 153.545C454.9 154.183 455.811 155.107 456.357 154.469C461.366 148.546 467.102 143.26 473.437 138.769C474.114 138.287 473.463 137.154 472.787 137.649L472.774 137.636Z" fill="#FFDCB2"/>
<path d="M479.707 148.962C473.281 153.519 467.454 158.856 462.367 164.871C461.834 165.509 462.745 166.433 463.291 165.795C468.299 159.872 474.036 154.586 480.371 150.095C481.047 149.613 480.397 148.48 479.72 148.975L479.707 148.962Z" fill="#FFDCB2"/>
<path d="M485.275 160.379C478.849 164.936 473.021 170.273 467.935 176.288C467.401 176.926 468.312 177.85 468.858 177.212C473.866 171.289 479.603 166.003 485.938 161.512C486.615 161.03 485.964 159.898 485.288 160.392L485.275 160.379Z" fill="#FFDCB2"/>
<path d="M367.146 146.176C360.72 150.733 354.893 156.07 349.806 162.085C349.273 162.723 350.184 163.647 350.73 163.009C355.738 157.086 361.475 151.8 367.81 147.309C368.486 146.827 367.836 145.695 367.159 146.189L367.146 146.176Z" fill="#FFDCB2"/>
<path d="M374.08 157.489C367.654 162.046 361.826 167.383 356.74 173.398C356.207 174.036 357.117 174.96 357.663 174.322C362.672 168.399 368.408 163.113 374.743 158.622C375.42 158.14 374.769 157.008 374.093 157.502L374.08 157.489Z" fill="#FFDCB2"/>
<path d="M379.66 168.906C373.234 173.463 367.407 178.8 362.32 184.815C361.787 185.453 362.698 186.377 363.244 185.739C368.252 179.816 373.989 174.53 380.324 170.039C381 169.557 380.35 168.425 379.674 168.919L379.66 168.906Z" fill="#FFDCB2"/>
<path d="M402.074 199.786C401.892 198.667 401.697 197.534 401.501 196.414C401.371 195.724 401.254 195.021 401.124 194.331C400.136 188.864 399.186 183.396 398.275 177.915C398.223 177.603 398.171 177.29 398.119 176.965C397.859 175.429 397.612 173.879 397.352 172.343C397.053 170.56 396.766 168.776 396.467 166.993C396.155 165.066 395.83 163.139 395.518 161.226C395.192 159.26 394.88 157.307 394.568 155.341C394.256 153.441 393.957 151.553 393.657 149.652C393.384 147.921 393.111 146.202 392.838 144.471C392.617 143.013 392.396 141.568 392.175 140.11C392.083 139.511 392.005 138.925 391.914 138.326C391.823 137.727 391.784 136.946 391.212 136.582C390.874 136.373 388.779 135.54 388.142 135.241C387.179 134.798 386.217 134.355 385.241 133.926C382.874 132.884 380.467 131.921 378.047 131.023C375.628 130.125 373.169 129.291 370.711 128.536C368.239 127.781 365.755 127.078 363.244 126.466C360.733 125.841 358.21 125.295 355.673 124.813C353.137 124.331 350.574 123.928 348.011 123.602C345.462 123.277 342.899 123.016 340.323 122.821C335.328 122.457 330.307 122.379 325.299 122.574C324.987 122.574 324.791 122.782 324.713 123.016C324.583 123.16 324.505 123.355 324.557 123.602C329.605 143.599 335.133 163.478 341.169 183.201C342.014 185.948 342.86 188.694 343.719 191.441C344.122 192.756 344.525 194.058 344.915 195.373C345.28 196.61 345.566 197.885 346.047 199.083C346.112 199.252 346.19 199.435 346.32 199.565C346.554 199.812 346.841 199.76 347.153 199.786C347.335 199.799 347.517 199.799 347.712 199.799C348.089 199.799 348.48 199.799 348.857 199.799C349.624 199.799 350.379 199.799 351.146 199.799C352.668 199.799 354.19 199.799 355.712 199.825C357.234 199.825 358.756 199.851 360.278 199.877C361.8 199.903 363.322 199.929 364.844 199.968C366.366 200.007 367.888 200.059 369.41 200.112C370.932 200.164 372.454 200.242 373.976 200.32C375.498 200.398 377.02 200.502 378.542 200.619C380.064 200.736 381.573 200.867 383.095 201.01C384.617 201.153 386.126 201.322 387.635 201.505C388.389 201.596 389.144 201.7 389.898 201.804C392.135 202.103 394.36 202.468 396.571 202.871C397.495 203.041 398.418 203.223 399.342 203.405C399.797 203.496 400.253 203.601 400.708 203.692C401.111 203.783 401.54 203.926 401.97 203.861C402.256 203.822 402.789 203.627 402.724 203.262C402.633 202.715 402.204 200.307 402.113 199.747L402.074 199.786ZM359.042 198.588C355.075 198.536 351.107 198.523 347.14 198.523C347.049 198.185 346.945 197.885 346.906 197.755C346.177 195.073 345.345 192.405 344.525 189.749C342.873 184.45 341.26 179.139 339.673 173.814C336.486 163.113 333.455 152.36 330.554 141.581C328.98 135.696 327.445 129.786 325.949 123.876C343.068 123.29 360.239 125.998 376.356 131.791C381.026 133.47 390.353 137.675 390.483 137.649C392.968 157.333 395.075 167.513 398.562 187.432C399.056 190.27 399.563 193.095 400.071 195.92C400.318 197.274 400.552 198.614 400.773 199.968C400.89 200.697 401.007 201.413 401.111 202.142C401.124 202.26 401.15 202.39 401.163 202.507C387.335 199.513 373.143 198.771 359.029 198.588H359.042Z" fill="#FFDCB2"/>
<path d="M400.877 134.056L414.198 212.141C414.198 212.141 423.577 221.852 433.502 211.958L421.378 134.837C421.378 134.837 416.24 137.037 410.308 136.855C407.16 136.764 403.856 135.97 400.864 134.069L400.877 134.056Z" fill="#FFDCB2"/>
<path d="M506.947 118.942C496.202 119.072 485.457 119.866 474.868 121.715C464.735 123.498 454.771 126.271 445.287 130.281C444.507 130.606 443.739 130.945 442.959 131.296C440.656 132.338 438.393 133.444 436.156 134.642C435.037 135.241 433.944 135.853 432.852 136.491C432.292 136.803 431.759 137.128 431.212 137.454C430.484 137.896 430.055 138.613 430.107 139.472C430.146 140.019 430.328 140.539 430.419 141.073C430.523 141.724 430.64 142.388 430.744 143.039C430.965 144.367 431.186 145.682 431.408 146.996C431.837 149.626 432.266 152.269 432.695 154.899C433.125 157.541 433.554 160.171 433.97 162.814C434.386 165.457 434.803 168.086 435.219 170.729C435.622 173.372 436.026 176.014 436.429 178.644C436.832 181.287 437.235 183.93 437.626 186.572C438.302 191.103 438.952 195.633 439.603 200.164C439.642 200.45 439.85 200.619 440.149 200.619C440.643 200.645 441.086 200.398 441.554 200.294C442.061 200.177 442.556 200.046 443.05 199.929C444.091 199.669 445.144 199.448 446.198 199.226C448.318 198.81 450.452 198.471 452.585 198.159C454.732 197.859 456.865 197.599 459.011 197.339C459.909 197.234 460.806 197.117 461.704 197.013C468.859 196.128 476.039 195.425 483.22 194.904C485.73 194.709 488.241 194.553 490.738 194.409C492.43 194.318 494.108 194.253 495.799 194.149C495.903 194.149 496.007 194.136 496.111 194.11C496.371 194.032 496.566 193.837 496.618 193.563C499.415 177.603 503.383 149.066 505.867 133.054C506.57 128.523 507.168 124.605 507.844 120.074C507.935 119.475 507.35 118.903 506.947 118.942ZM498.96 167.435C498.231 171.757 496.267 187.627 495.421 192.873C480.891 193.537 466.387 194.917 452 197.013C448.227 197.56 444.455 198.185 440.774 199.187C438.471 183.136 436.052 167.383 433.502 151.748C432.799 147.465 432.084 143.169 431.356 138.886C439.707 133.783 448.722 129.877 458.062 127.039C468.156 123.967 478.589 122.105 489.073 121.142C494.875 120.595 500.69 120.335 506.505 120.257C504.137 136.009 501.626 151.735 498.96 167.435Z" fill="#FFDCB2"/>
<path d="M530.401 148.22C530.271 147.804 530.114 147.4 529.945 147.009C527.799 141.971 522.921 138.352 517.496 137.74C514.413 137.389 510.745 139.342 510.576 142.791C510.485 144.744 511.669 146.489 512.813 148.077C511.018 147.738 509.301 149.17 508.234 150.655C507.168 152.139 506.608 154.013 506.934 155.81C507.259 157.606 508.56 159.247 510.303 159.741C507.87 159.989 505.464 162.02 504.371 164.207C504.15 164.649 503.968 165.118 503.903 165.613C503.721 166.849 504.189 168.099 504.93 169.102C505.672 170.104 506.66 170.898 507.636 171.666C506.049 172.278 504.501 173.827 503.799 175.377C503.499 176.04 503.304 176.783 503.343 177.512C503.447 179.269 504.878 180.662 506.426 181.508C511.044 184.008 517.041 182.745 521.165 179.477C527.305 174.608 530.258 165.925 531.142 158.374C531.545 154.977 531.493 151.449 530.414 148.22H530.401Z" fill="#F38C12"/>
<path d="M524.014 151.449C520.657 150.043 517.249 148.806 513.776 147.738C512.97 147.491 512.631 148.754 513.425 148.988C516.898 150.056 520.319 151.292 523.662 152.698C523.988 152.842 524.378 152.555 524.456 152.243C524.56 151.865 524.326 151.579 524.001 151.436L524.014 151.449Z" fill="#264653"/>
<path d="M521.698 161.134C518.147 160.353 514.57 159.754 510.953 159.325C510.121 159.221 510.004 160.522 510.836 160.627C514.44 161.056 518.03 161.655 521.581 162.436C521.932 162.514 522.258 162.163 522.284 161.85C522.323 161.46 522.036 161.225 521.698 161.147V161.134Z" fill="#264653"/>
<path d="M517.861 171.172C514.231 170.911 512.176 170.976 508.534 171.067C507.701 171.093 507.766 172.395 508.612 172.369C512.241 172.278 514.309 172.213 517.939 172.473C518.29 172.499 518.563 172.109 518.55 171.783C518.537 171.393 518.212 171.198 517.861 171.172Z" fill="#264653"/>
<path d="M314.632 151.774C314.762 151.371 314.918 150.954 315.087 150.563C317.234 145.525 322.112 141.906 327.536 141.294C330.619 140.943 334.287 142.896 334.457 146.345C334.548 148.298 333.364 150.043 332.219 151.631C334.014 151.292 335.731 152.724 336.798 154.209C337.865 155.68 338.424 157.567 338.099 159.364C337.774 161.16 336.473 162.801 334.73 163.295C337.162 163.543 339.569 165.574 340.662 167.761C340.883 168.203 341.065 168.672 341.13 169.167C341.312 170.403 340.844 171.653 340.102 172.656C339.361 173.658 338.372 174.452 337.396 175.22C338.984 175.832 340.532 177.381 341.234 178.931C341.533 179.594 341.728 180.337 341.689 181.066C341.585 182.823 340.154 184.229 338.606 185.062C333.988 187.562 327.991 186.299 323.868 183.031C317.728 178.162 314.775 169.479 313.89 161.928C313.487 158.531 313.539 155.003 314.619 151.774H314.632Z" fill="#F38C12"/>
<path d="M321.019 155.003C324.375 153.597 327.783 152.36 331.257 151.292C332.063 151.045 332.401 152.308 331.608 152.542C328.135 153.61 324.713 154.846 321.37 156.252C321.045 156.396 320.655 156.109 320.564 155.797C320.46 155.419 320.694 155.133 321.019 154.99V155.003Z" fill="#264653"/>
<path d="M323.335 164.688C326.886 163.907 330.463 163.308 334.079 162.879C334.912 162.775 335.029 164.077 334.196 164.181C330.593 164.61 327.003 165.209 323.452 165.99C323.1 166.068 322.775 165.717 322.749 165.404C322.71 165.014 322.996 164.78 323.335 164.701V164.688Z" fill="#264653"/>
<path d="M327.172 174.726C330.801 174.465 332.857 174.53 336.499 174.621C337.332 174.648 337.267 175.949 336.421 175.923C332.792 175.832 330.723 175.767 327.094 176.027C326.743 176.054 326.47 175.663 326.483 175.337C326.496 174.947 326.821 174.752 327.172 174.726Z" fill="#264653"/>
<path d="M172.373 455.208C170.838 462.875 168.367 466.299 168.367 466.299C168.367 466.299 166.415 466.403 163.111 466.443C161.836 466.456 160.353 466.469 158.701 466.443C154.383 466.417 148.932 466.26 143 465.805C142.324 465.753 141.634 465.687 140.932 465.622C139.982 465.544 139.02 465.466 138.057 465.362C135.547 465.115 132.984 464.802 130.421 464.425C128.132 464.086 125.842 463.683 123.579 463.214C122.447 462.993 121.328 462.758 120.223 462.485C119.937 462.42 119.663 462.355 119.377 462.29C115.488 461.339 111.286 460.116 107.019 458.775C106.356 458.566 105.706 458.345 105.042 458.137C103.975 457.798 102.909 457.447 101.855 457.095C100.45 456.627 99.0453 456.145 97.6664 455.65C96.99 455.416 96.3135 455.182 95.6501 454.947C82.3556 450.235 71.0774 445.483 71.0774 445.483C71.0774 445.483 71.0384 445.431 70.9734 445.327C70.9734 445.327 70.9603 445.327 70.9603 445.314C70.492 444.676 68.7229 442.215 66.1993 438.414C65.2107 436.917 64.092 435.224 62.8952 433.337C62.8952 433.324 62.8952 433.311 62.8822 433.298C61.3342 430.837 59.6171 428.116 57.835 425.096C56.8854 423.495 55.9228 421.828 54.9471 420.11C52.1373 415.176 49.2495 409.747 46.5177 404.032C44.4754 399.775 42.5372 395.362 40.7811 390.884C38.3876 384.778 36.3452 378.555 34.9273 372.436C34.1208 368.974 33.5224 365.537 33.1582 362.191C32.4167 355.46 32.6639 349.029 34.2769 343.21C34.8233 341.153 35.5648 339.187 36.4753 337.3C38.2184 333.707 40.638 330.439 43.825 327.601C44.5015 327.002 45.2169 326.416 45.9714 325.857C47.0121 325.088 48.1308 324.346 49.3145 323.643C53.152 321.378 57.3537 320.181 61.8155 319.868C64.2611 319.699 66.7717 319.79 69.3603 320.141C73.7181 320.701 78.245 321.951 82.876 323.8C83.6825 324.112 84.502 324.451 85.3215 324.815C86.5573 325.349 87.8061 325.935 89.0679 326.547C89.263 326.638 89.4582 326.742 89.6533 326.846C92.6842 328.356 95.7542 330.088 98.8372 332.001C98.9022 332.04 98.9542 332.079 99.0193 332.118L99.8778 332.665C105.263 336.076 110.636 340.06 115.878 344.382C115.891 344.395 115.904 344.395 115.917 344.408C116.437 344.837 116.958 345.267 117.465 345.71C117.491 345.723 117.504 345.736 117.517 345.762C119.794 347.675 122.044 349.654 124.255 351.685C128.769 355.825 133.127 360.186 137.251 364.625C140.789 368.44 144.158 372.319 147.28 376.16C151.495 381.341 155.267 386.457 158.493 391.339C161.355 395.674 163.775 399.814 165.674 403.616C167.495 407.287 168.822 410.659 169.576 413.588C170.149 415.801 170.643 417.949 171.072 420.006C174.48 436.266 173.869 447.748 172.373 455.208Z" fill="#264653"/>
<path d="M62.9083 324.359C62.9083 329.788 58.5115 334.188 53.087 334.188C48.7943 334.188 45.1519 331.441 43.8251 327.601C44.5015 327.002 45.217 326.416 45.9714 325.857C47.0121 325.088 48.1308 324.346 49.3146 323.643C53.152 321.378 57.3537 320.18 61.8156 319.868C62.518 321.209 62.9083 322.745 62.9083 324.359Z" fill="#264653"/>
<path d="M98.8372 332.001C97.1591 333.368 95.0127 334.188 92.6712 334.188C87.2468 334.188 82.85 329.788 82.85 324.359C82.85 324.164 82.85 323.982 82.876 323.8C83.6825 324.112 84.502 324.451 85.3216 324.815C89.7704 326.742 94.2973 329.176 98.8372 332.001Z" fill="#264653"/>
<path d="M41.0803 352.544C41.0803 357.322 37.6721 361.306 33.1582 362.191C32.4167 355.46 32.6639 349.029 34.2769 343.21C38.2315 344.486 41.0803 348.183 41.0803 352.544Z" fill="#264653"/>
<path d="M80.4004 354.846C81.651 349.564 78.3861 344.267 73.1081 343.016C67.8301 341.764 62.5377 345.032 61.2871 350.314C60.0365 355.596 63.3014 360.892 68.5794 362.144C73.8574 363.396 79.1499 360.128 80.4004 354.846Z" fill="#264653"/>
<path d="M117.371 359.503C121.207 355.665 121.207 349.441 117.371 345.603C113.536 341.764 107.317 341.764 103.482 345.603C99.6464 349.441 99.6463 355.665 103.482 359.503C107.317 363.341 113.536 363.341 117.371 359.503Z" fill="#264653"/>
<path d="M60.0349 385.985C63.8703 382.146 63.8703 375.923 60.0349 372.085C56.1994 368.246 49.9809 368.246 46.1455 372.085C42.3101 375.923 42.31 382.146 46.1455 385.985C49.9809 389.823 56.1994 389.823 60.0349 385.985Z" fill="#264653"/>
<path d="M102.241 381.286C103.483 376.002 100.21 370.711 94.93 369.468C89.6501 368.224 84.3628 371.5 83.1205 376.784C81.8782 382.068 85.1513 387.36 90.4313 388.603C95.7113 389.846 100.999 386.57 102.241 381.286Z" fill="#264653"/>
<path d="M141.807 381.377C143.084 376.102 139.846 370.789 134.574 369.51C129.303 368.232 123.994 371.473 122.716 376.748C121.439 382.024 124.677 387.337 129.949 388.615C135.22 389.894 140.529 386.653 141.807 381.377Z" fill="#264653"/>
<path d="M80.3988 409.512C81.6494 404.23 78.3846 398.933 73.1066 397.682C67.8286 396.43 62.5361 399.698 61.2855 404.98C60.0349 410.262 63.2998 415.558 68.5778 416.81C73.8558 418.062 79.1483 414.794 80.3988 409.512Z" fill="#264653"/>
<path d="M117.373 414.169C121.208 410.331 121.208 404.107 117.373 400.269C113.538 396.431 107.319 396.431 103.484 400.269C99.6482 404.107 99.6482 410.331 103.484 414.169C107.319 418.008 113.538 418.008 117.373 414.169Z" fill="#264653"/>
<path d="M159.57 409.512C160.82 404.229 157.555 398.933 152.277 397.681C146.999 396.43 141.707 399.697 140.456 404.979C139.206 410.261 142.471 415.558 147.749 416.81C153.027 418.061 158.319 414.794 159.57 409.512Z" fill="#264653"/>
<path d="M62.8822 433.298C61.3342 430.837 59.6171 428.116 57.835 425.096C60.7488 426.71 62.7651 429.77 62.8822 433.298Z" fill="#264653"/>
<path d="M102.233 435.96C103.475 430.676 100.202 425.384 94.922 424.141C89.6421 422.898 84.3547 426.174 83.1124 431.458C81.8701 436.742 85.1433 442.033 90.4233 443.276C95.7032 444.52 100.991 441.244 102.233 435.96Z" fill="#264653"/>
<path d="M141.805 436.039C143.083 430.763 139.845 425.45 134.573 424.172C129.302 422.894 123.993 426.134 122.715 431.41C121.438 436.686 124.676 441.999 129.948 443.277C135.219 444.555 140.528 441.315 141.805 436.039Z" fill="#264653"/>
<path d="M120.249 461.873C120.249 462.081 120.249 462.29 120.223 462.485C119.937 462.42 119.663 462.355 119.377 462.29C113.927 460.962 107.839 459.1 101.855 457.095C103.52 454.088 106.733 452.057 110.428 452.057C115.852 452.057 120.249 456.457 120.249 461.873Z" fill="#264653"/>
<path d="M159.833 461.873C159.833 463.526 159.43 465.076 158.701 466.443C154.383 466.416 148.932 466.26 143 465.805C142.324 465.753 141.634 465.687 140.932 465.622C140.451 464.464 140.191 463.201 140.191 461.873C140.191 456.457 144.587 452.057 150.012 452.057C155.436 452.057 159.833 456.457 159.833 461.873Z" fill="#264653"/>
<path d="M126.545 448.503C109.998 451.432 71.0774 445.483 71.0774 445.483C67.9554 446.446 65.1456 447.761 62.609 449.297C68.3717 452.552 71.7278 458.189 73.1848 464.516H132.568C131.059 452.109 126.545 448.503 126.545 448.503Z" fill="#264653"/>
<path d="M62.6221 449.297C56.3651 453.06 51.8252 458.124 48.7682 462.433C48.3129 463.084 47.8836 463.787 47.5194 464.516H73.1978C71.7409 458.189 68.3847 452.552 62.6221 449.297Z" fill="#FFFAF4"/>
<path d="M127.234 471.403C120.964 471.663 110.011 472.066 96.4957 472.392C93.5428 472.457 90.4599 472.522 87.2728 472.587C76.7231 472.783 65.0807 472.9 53.126 472.861C45.4641 472.822 45.5942 468.33 47.5194 464.503H132.568C132.568 464.581 132.568 464.646 132.607 464.724C132.62 464.854 132.646 464.997 132.659 465.141C133.01 468.395 130.512 471.259 127.234 471.403Z" fill="#FFFAF4"/>
<path d="M124.672 447.084C124.75 447.214 124.828 447.331 124.906 447.462C128.119 452.383 120.236 456.952 117.049 452.057C116.867 451.784 116.685 451.497 116.502 451.224C113.302 453.19 110.311 455.494 107.644 458.137C107.436 458.345 107.215 458.566 107.019 458.775C105.341 460.48 103.819 462.329 102.454 464.294C102.401 464.36 102.362 464.438 102.31 464.503C100.645 466.976 99.6437 469.632 99.0974 472.392C96.1445 472.457 93.0615 472.522 89.8745 472.587C90.2127 469.814 90.8891 467.106 91.9948 464.503C92.6843 462.849 93.5428 461.248 94.5965 459.699C95.5591 458.293 96.5738 456.939 97.6665 455.65C97.8486 455.416 98.0437 455.182 98.2518 454.947C102.128 450.469 106.694 446.707 111.702 443.621C99.5397 423.898 87.0127 401.116 80.3654 379.037C75.4093 362.608 75.4483 337.638 89.6533 326.846C92.6843 328.356 95.7542 330.087 98.8372 332.001C98.9023 332.04 98.9543 332.079 99.0193 332.118L99.8779 332.665C78.4532 340.047 89.2761 374.715 94.9217 389.399C101.595 406.805 110.076 423.482 119.807 439.364C120.6 439.026 121.381 438.661 122.187 438.336C127.612 436.175 129.953 444.897 124.672 447.084Z" fill="#1D1D1D"/>
<path d="M258.852 419.029C258.995 421.711 258.995 424.914 258.631 428.364C257.044 443.387 248.485 463.188 215.196 466.299L128.314 334.227C128.314 334.227 151.547 286.163 250.189 295.953C250.189 295.953 254.351 296.383 260.465 298.01C262.013 298.427 263.691 298.908 265.461 299.494C277.077 303.322 292.557 311.068 301.585 326.364C317.403 353.182 317.403 371.486 317.403 371.486L257.799 410.971C257.799 410.971 258.566 414.16 258.852 419.029Z" fill="#FF9C28"/>
<path d="M260.465 298.01C244.816 303.113 229.024 307.787 213.141 312.083C211.203 312.604 209.044 313.216 207.743 314.882C206.676 316.275 206.299 318.345 207.431 319.816C207.522 319.933 207.639 319.998 207.743 320.037C207.847 320.141 207.99 320.207 208.172 320.194C216.901 319.881 225.59 318.371 233.889 315.637C242.137 312.916 249.981 309.011 257.578 304.819C260.348 303.283 263.106 301.603 265.461 299.494C263.691 298.908 262.013 298.427 260.465 298.01Z" fill="#F38C12"/>
<path d="M258.631 428.364C256.55 427.895 254.495 427.322 252.478 426.619C244.179 423.742 237.545 418.587 230.897 413.002C217.525 401.754 205.362 388.072 205.05 369.664C204.959 363.779 214.065 363.805 214.156 369.664C214.429 385.533 225.941 396.976 237.337 406.558C243.359 411.622 249.304 416.165 256.927 418.483C257.565 418.678 258.215 418.86 258.852 419.029C258.995 421.711 258.995 424.914 258.631 428.364Z" fill="#F38C12"/>
<path d="M169.654 276.985C169.654 276.985 153.394 306.615 191.43 315.364C229.467 324.112 278.092 297.698 280.849 276.985C284.843 247.043 222.715 232.931 169.654 276.985Z" fill="#FF9C28"/>
<path d="M234.839 332.639C243.724 337.703 249.421 342.416 254.807 347.884C264.368 357.595 273.109 368.739 285.363 374.689C288.082 376.004 290.957 377.058 293.454 378.737C290.84 380.664 287.327 380.794 284.075 380.599C268.713 379.649 254.208 373.152 240.953 365.302C234.982 361.761 229.128 357.882 224.328 352.857C219.294 347.584 210.722 335.191 221.974 330.712C225.109 329.463 232.276 331.207 234.826 332.652L234.839 332.639Z" fill="#F38C12"/>
<path d="M221.987 294.742C221.987 294.742 242.748 279.836 235.711 272.142C228.751 264.527 202.019 282.128 201.993 283.026C201.967 283.937 221.987 294.742 221.987 294.742Z" fill="#1D1D1D"/>
<path d="M188.738 293.74C188.686 295.641 188.464 297.528 188.022 299.26C194.539 301.851 208.029 304.61 221.987 294.729C220.582 291.67 216.484 284.731 215.196 280.826C214.039 277.337 213.349 274.173 213.844 272.494C215.34 267.443 187.424 280.813 187.424 280.813C187.424 280.813 188.946 287.257 188.738 293.727V293.74Z" fill="#EB7A68"/>
<path d="M213.844 272.507C215.34 267.456 187.424 280.826 187.424 280.826C187.424 280.826 188.946 287.27 188.738 293.74C190.207 293.662 191.677 293.336 193.056 293.024C196.191 292.308 199.235 291.254 202.136 289.9C206.91 287.686 211.45 284.601 215.196 280.839C214.039 277.35 213.349 274.186 213.844 272.507Z" fill="#264653"/>
<path d="M85.1263 295.393L96.9769 284.067C96.9769 284.067 127.078 295.25 132.542 310.638C132.542 310.638 151.078 288.259 196.425 286.541L209.122 298.44L136.457 323.656L85.1263 295.406V295.393Z" fill="#FFFAF4"/>
<path d="M82.2645 292.959C91.5004 296.5 121.953 308.802 129.654 319.881C129.654 319.881 131.657 333.772 130.655 333.264C129.654 332.756 92.6712 334.201 92.6712 334.201L80.4304 294.69C80.0792 293.571 81.1718 292.542 82.2515 292.972L82.2645 292.959Z" fill="#264653"/>
<path d="M130.655 327.028C130.096 326.13 156.828 297.307 209.876 295.393C211.437 295.341 212.712 296.643 212.634 298.205L207.873 403.616L130.642 327.028H130.655Z" fill="#264653"/>
<path d="M125.036 325.206V315.051C125.036 315.051 136.314 312.968 141.569 317.069L142.792 333.524L125.036 325.193V325.206Z" fill="#EB7A68"/>
<path d="M158.545 226.903C158.48 233.256 156.997 247.486 146.552 262.014L198.702 267.677C201.538 262.769 215.938 236.355 208.25 218.311L158.532 226.903H158.545Z" fill="#264653"/>
<path d="M233.577 247.655C233.616 248.8 233.577 249.933 233.434 251.04C232.628 257.184 230.65 263.329 227.125 268.471C217.668 282.258 199.613 284.731 184.146 283.95C170.747 283.273 164.178 279.316 161.277 274.369C158.832 270.242 158.949 265.438 159.755 261.324C160.432 257.965 161.55 255.062 162.136 253.37C163.358 249.777 161.993 244.153 160.588 239.987C158.832 234.741 159.261 228.908 162.084 224.157C172.152 207.246 198.039 209.576 208.744 211.008C214.754 211.815 218.787 216.749 223.21 220.316C227.45 223.727 229.571 230.536 231.119 235.626C232.237 239.323 233.421 243.593 233.564 247.655H233.577Z" fill="#EB7A68"/>
<path d="M195.151 246.119C195.879 248.28 195.255 250.428 193.759 250.935C192.263 251.443 190.468 250.102 189.739 247.941C189.011 245.78 189.635 243.632 191.131 243.124C192.627 242.617 194.422 243.958 195.151 246.119Z" fill="#1D1D1D"/>
<path d="M169.589 249.451C170.318 251.612 169.694 253.76 168.198 254.268C166.702 254.776 164.906 253.435 164.178 251.274C163.45 249.113 164.074 246.965 165.57 246.457C167.066 245.949 168.861 247.29 169.589 249.451Z" fill="#1D1D1D"/>
<path d="M179.658 260.465C177.342 261.559 174.676 259.84 174.676 257.301C174.676 254.594 177.433 253.526 179.58 252.784C179.996 252.641 180.308 252.224 180.165 251.769C179.502 249.647 178.942 247.486 178.461 245.312C178.24 244.27 176.64 244.7 176.861 245.741C177.277 247.668 177.785 249.569 178.357 251.469C177.056 251.951 175.755 252.511 174.728 253.461C173.466 254.62 172.854 256.273 173.063 257.965C173.505 261.519 177.316 263.394 180.477 261.897C181.44 261.441 180.607 260.009 179.645 260.465H179.658Z" fill="#264653"/>
<path d="M194.539 260.895C194.552 263.72 193.369 266.532 191.287 268.445C189.011 270.528 185.746 271.218 182.819 270.372C181.934 270.112 181.609 269.018 181.869 268.224C182.168 267.326 183.183 267.026 184.016 267.274C184.133 267.313 184.159 267.313 184.146 267.326C184.159 267.326 184.185 267.326 184.25 267.339C185.928 267.625 187.606 267.196 188.933 266.115C190.598 264.761 191.274 262.639 191.261 260.543C191.261 259.619 192.276 259.02 193.082 259.072C194.045 259.137 194.539 260.035 194.552 260.895H194.539Z" fill="#264653"/>
<path d="M191.73 235.261C192.666 235.248 193.616 235.209 194.5 234.91C195.385 234.61 196.217 234.038 196.621 233.191C197.935 230.392 192.718 229.507 190.871 229.533C188.855 229.559 186.773 231.304 187.632 233.53C188.256 235.144 190.273 235.274 191.73 235.248V235.261Z" fill="#264653"/>
<path d="M164.919 239.622C164.009 239.831 163.072 240.013 162.149 239.935C161.212 239.857 160.276 239.492 159.69 238.763C157.752 236.355 162.617 234.259 164.412 233.855C166.376 233.413 168.809 234.597 168.51 236.98C168.289 238.698 166.363 239.297 164.932 239.622H164.919Z" fill="#264653"/>
<path d="M230.117 197.443C230.117 197.443 218.032 172.89 180.92 187.757C143.117 202.897 150.142 235.261 150.142 235.261C150.142 235.261 162.552 231.265 176.848 228.127C176.874 224.17 177.368 217.804 179.905 213.521C179.905 213.521 181.739 221.67 183.222 226.825C192.276 225.107 201.46 223.987 208.289 224.625C208.289 224.625 215.157 242.5 206.455 264.93L258.358 257.328C260.491 249.673 273.994 195.607 230.117 197.443Z" fill="#264653"/>
<path d="M178.383 196.076C170.084 200.906 164.698 210.11 164.555 219.704C164.542 220.537 165.843 220.537 165.856 219.704C165.999 210.552 171.137 201.791 179.046 197.195C179.775 196.779 179.111 195.646 178.396 196.076H178.383Z" fill="#264653"/>
<path d="M198.819 193.42C192.432 197.3 188.126 204.03 187.19 211.438C187.085 212.271 188.386 212.258 188.49 211.438C189.362 204.512 193.525 198.172 199.469 194.553C200.185 194.123 199.534 192.99 198.819 193.433V193.42Z" fill="#264653"/>
<path d="M209.538 197.339C203.151 201.218 198.845 207.949 197.908 215.356C197.804 216.189 199.105 216.176 199.209 215.356C200.081 208.43 204.243 202.09 210.188 198.471C210.904 198.042 210.253 196.909 209.538 197.352V197.339Z" fill="#264653"/>
<path d="M235.073 217.83C234.722 217.075 233.603 217.725 233.954 218.481C238.455 228.296 240.524 239.128 239.99 249.907C239.951 250.74 241.252 250.74 241.291 249.907C241.825 238.893 239.665 227.841 235.073 217.817V217.83Z" fill="#264653"/>
<path d="M246.377 211.685C246 210.943 244.907 211.646 245.285 212.388C250.228 221.982 252.777 232.71 252.751 243.515C252.751 244.348 254.052 244.296 254.052 243.45C254.091 232.423 251.438 221.488 246.377 211.685Z" fill="#264653"/>
<path d="M279.535 421.815C248.524 429.639 227.606 406.167 217.083 389.569C216.848 389.204 216.627 388.853 216.406 388.488C212.894 382.825 210.643 378.086 209.668 375.899C209.291 375.066 209.109 374.598 209.109 374.598C231.522 352.414 220.621 330.712 220.621 330.712C221.31 330.517 222.052 330.426 222.871 330.465C227.008 330.621 232.641 333.681 238.689 338.211C239.132 338.55 239.587 338.901 240.042 339.252C246.39 344.186 253.077 350.605 258.891 356.866C262.963 361.254 267.646 364.873 272.758 367.646C273.252 367.919 273.76 368.192 274.267 368.44C276.114 369.377 278.014 370.21 279.952 370.913C280.628 371.161 281.305 371.395 281.981 371.616C291.074 374.572 300.947 375.131 310.612 372.996L317.403 371.486C317.403 371.486 326.17 410.034 279.535 421.815Z" fill="#FF9C28"/>
<path d="M230.963 374.793C227.255 380.508 222.52 385.52 217.083 389.569C216.849 389.204 216.627 388.853 216.406 388.488C217.668 387.538 218.904 386.535 220.088 385.481C228.725 377.826 234.826 367.502 237.48 356.268C238.794 350.683 239.509 344.252 238.689 338.211C239.132 338.55 239.587 338.901 240.042 339.252C240.094 339.682 240.133 340.112 240.159 340.541C241.044 352.453 237.441 364.834 230.963 374.793Z" fill="#F38C12"/>
<path d="M282.306 395.909C278.014 386.9 274.801 377.409 272.758 367.646C273.253 367.919 273.76 368.192 274.267 368.44C276.284 377.696 279.367 386.692 283.438 395.258C283.789 396.013 282.671 396.664 282.306 395.909Z" fill="#F38C12"/>
<path d="M297.188 394.086C291.022 386.679 285.259 378.946 279.952 370.913C280.628 371.161 281.305 371.395 281.981 371.616C286.976 379.076 292.362 386.275 298.111 393.162C298.645 393.8 297.734 394.724 297.188 394.086Z" fill="#F38C12"/>
<path d="M219.203 455.208C217.668 462.875 215.196 466.299 215.196 466.299C215.196 466.299 213.245 466.403 209.941 466.443C205.31 466.495 198.026 466.443 189.83 465.805C188.217 465.674 186.565 465.531 184.887 465.362C182.377 465.115 179.814 464.802 177.251 464.425C174.962 464.086 172.672 463.683 170.409 463.214C168.991 462.941 167.586 462.628 166.207 462.29C146.383 457.473 117.907 445.483 117.907 445.483C117.907 445.483 117.868 445.431 117.803 445.327C117.803 445.327 117.79 445.327 117.79 445.314C117.322 444.676 115.553 442.215 113.029 438.414C110.05 433.936 106.005 427.596 101.777 420.11C98.9673 415.176 96.0794 409.747 93.3477 404.032C91.3054 399.775 89.3671 395.362 87.611 390.884C85.2175 384.778 83.1752 378.555 81.7573 372.436C78.7784 359.587 78.4922 347.194 83.3053 337.3C85.4126 332.939 88.5216 329.072 92.8013 325.857C93.842 325.088 94.9607 324.346 96.1445 323.643C102.076 320.141 108.88 319.165 116.19 320.141C121.316 320.792 126.675 322.42 132.151 324.815C145.121 330.426 158.688 340.281 171.085 351.685C175.599 355.825 179.957 360.186 184.081 364.625C187.619 368.44 190.988 372.319 194.11 376.16C198.325 381.341 202.097 386.457 205.323 391.339C208.185 395.674 210.605 399.814 212.504 403.616C214.325 407.287 215.652 410.659 216.406 413.588C216.979 415.801 217.473 417.949 217.902 420.006C221.31 436.266 220.699 447.748 219.203 455.208Z" fill="#264653"/>
<path d="M92.9443 327.484C92.9443 332.847 88.6516 337.209 83.3052 337.3C85.4125 332.939 88.5215 329.072 92.8012 325.857C92.8923 326.39 92.9443 326.924 92.9443 327.484Z" fill="#264653"/>
<path d="M132.529 327.484C132.529 332.913 128.132 337.313 122.707 337.313C117.283 337.313 112.886 332.913 112.886 327.484C112.886 324.555 114.161 321.925 116.19 320.141C121.315 320.792 126.675 322.42 132.151 324.815C132.399 325.661 132.529 326.56 132.529 327.484Z" fill="#264653"/>
<path d="M107.832 362.637C111.667 358.798 111.667 352.575 107.832 348.737C103.997 344.898 97.7781 344.898 93.9426 348.737C90.1072 352.575 90.1072 358.798 93.9426 362.637C97.778 366.475 103.997 366.475 107.832 362.637Z" fill="#264653"/>
<path d="M150.285 355.682C150.285 361.11 145.888 365.511 140.464 365.511C135.039 365.511 130.642 361.11 130.642 355.682C130.642 350.253 135.039 345.853 140.464 345.853C145.888 345.853 150.285 350.253 150.285 355.682Z" fill="#264653"/>
<path d="M184.081 364.625C182.845 365.185 181.479 365.498 180.048 365.498C174.624 365.498 170.24 361.097 170.24 355.669C170.24 354.25 170.539 352.909 171.085 351.685C175.599 355.825 179.957 360.186 184.081 364.625Z" fill="#264653"/>
<path d="M92.9443 382.148C92.9443 385.963 90.785 389.256 87.6109 390.884C85.2174 384.778 83.1751 378.555 81.7572 372.436C82.1995 372.358 82.6548 372.332 83.1231 372.332C88.5475 372.332 92.9443 376.72 92.9443 382.148Z" fill="#264653"/>
<path d="M132.277 384.446C133.528 379.164 130.263 373.868 124.985 372.616C119.707 371.364 114.415 374.632 113.164 379.914C111.913 385.196 115.178 390.493 120.456 391.744C125.734 392.996 131.027 389.728 132.277 384.446Z" fill="#264653"/>
<path d="M171.856 384.446C173.107 379.164 169.842 373.867 164.564 372.616C159.286 371.364 153.993 374.632 152.743 379.914C151.492 385.196 154.757 390.492 160.035 391.744C165.313 392.995 170.606 389.728 171.856 384.446Z" fill="#264653"/>
<path d="M205.323 391.339C204.256 391.756 203.086 391.977 201.876 391.977C196.451 391.977 192.068 387.577 192.068 382.148C192.068 379.883 192.822 377.813 194.11 376.16C198.325 381.341 202.097 386.457 205.323 391.339Z" fill="#264653"/>
<path d="M110.701 410.333C110.701 415.462 106.785 419.667 101.777 420.11C98.9672 415.176 96.0794 409.747 93.3477 404.032C95.1558 401.884 97.8615 400.517 100.879 400.517C106.304 400.517 110.701 404.917 110.701 410.333Z" fill="#264653"/>
<path d="M150.285 410.346C150.285 415.775 145.888 420.175 140.464 420.175C135.039 420.175 130.642 415.775 130.642 410.346C130.642 404.917 135.039 400.517 140.464 400.517C145.888 400.517 150.285 404.917 150.285 410.346Z" fill="#264653"/>
<path d="M189.615 412.524C190.827 407.233 187.524 401.96 182.237 400.747C176.95 399.534 171.681 402.841 170.469 408.132C169.257 413.423 172.561 418.695 177.848 419.908C183.135 421.121 188.403 417.815 189.615 412.524Z" fill="#264653"/>
<path d="M217.902 420.006C213.31 419.199 209.824 415.176 209.824 410.333C209.824 407.729 210.826 405.373 212.504 403.616C214.325 407.287 215.652 410.659 216.406 413.588C216.979 415.801 217.473 417.949 217.902 420.006Z" fill="#264653"/>
<path d="M132.529 436.813C132.529 442.241 128.132 446.642 122.707 446.642C120.925 446.642 119.247 446.16 117.803 445.327C117.803 445.327 117.79 445.327 117.79 445.314C117.322 444.676 115.553 442.215 113.029 438.414C112.925 437.893 112.886 437.359 112.886 436.813C112.886 431.384 117.283 426.997 122.707 426.997C128.132 426.997 132.529 431.384 132.529 436.813Z" fill="#264653"/>
<path d="M169.24 443.783C173.075 439.944 173.075 433.721 169.24 429.882C165.404 426.044 159.186 426.044 155.35 429.882C151.515 433.721 151.515 439.944 155.35 443.783C159.186 447.621 165.404 447.621 169.24 443.783Z" fill="#264653"/>
<path d="M211.4 439.198C212.727 433.935 209.539 428.592 204.28 427.264C199.02 425.936 193.681 429.126 192.354 434.389C191.027 439.653 194.215 444.996 199.474 446.324C204.734 447.652 210.073 444.462 211.4 439.198Z" fill="#264653"/>
<path d="M189.869 464.997C189.869 465.271 189.869 465.544 189.83 465.805C188.217 465.674 186.565 465.531 184.887 465.362C182.376 465.115 179.814 464.802 177.251 464.425C174.962 464.086 172.672 463.683 170.409 463.214C171.241 458.644 175.235 455.182 180.048 455.182C185.472 455.182 189.869 459.582 189.869 464.997Z" fill="#264653"/>
<path d="M219.203 455.208C217.668 462.875 215.196 466.299 215.196 466.299C215.196 466.299 213.245 466.403 209.941 466.443C209.863 465.974 209.824 465.492 209.824 464.997C209.824 459.725 213.974 455.416 219.203 455.208Z" fill="#264653"/>
<path d="M161.42 413.978C172.984 435.953 179.892 456.509 184.887 465.362C182.376 465.115 179.814 464.802 177.251 464.425C171.671 461.769 166.207 459.178 166.207 459.178L173.375 448.503C173.375 448.503 165.206 430.394 154.63 411.609C144.457 393.565 132.112 374.858 126.74 367.919C126.194 367.203 126.22 366.201 126.831 365.537C127.195 365.12 127.703 364.925 128.21 364.925C128.756 364.925 129.303 365.159 129.667 365.641C134.415 371.825 150.597 393.409 161.42 413.978Z" fill="#1D1D1D"/>
<path d="M173.375 448.503C156.828 451.432 117.907 445.483 117.907 445.483C114.785 446.446 111.976 447.761 109.439 449.297C115.202 452.552 118.558 458.189 120.015 464.516H179.398C177.889 452.109 173.375 448.503 173.375 448.503Z" fill="#264653"/>
<path d="M109.452 449.297C103.195 453.06 98.655 458.124 95.598 462.433C95.1427 463.084 94.7135 463.787 94.3492 464.516H120.028C118.571 458.189 115.215 452.552 109.452 449.297Z" fill="#FFFAF4"/>
<path d="M179.398 464.516H94.3493C92.424 468.343 92.294 472.835 99.9559 472.861C131.995 472.978 161.862 471.91 174.064 471.403C177.329 471.272 179.84 468.395 179.476 465.154C179.45 464.932 179.424 464.737 179.398 464.516Z" fill="#FFFAF4"/>
<path d="M227.788 340.476C227.58 338.953 227.216 337.482 226.683 336.115C225.174 333.954 223.17 332.314 220.829 331.168C217.252 329.411 212.907 328.838 208.406 329.398C194.682 331.09 176.952 338.784 178.526 342.65C181.011 348.73 191.417 345.853 191.417 345.853C191.417 345.853 178.734 352.297 181.765 355.851C184.705 359.301 193.915 357.634 194.513 357.53C193.798 357.817 180.49 363.389 185.524 366.07C189.115 367.984 196.204 366.227 196.79 366.07C196.126 366.435 187.515 371.187 190.741 373.895C193.277 376.017 202.071 375.379 209.278 374.415C210.552 374.246 211.762 374.064 212.894 373.895C213.453 373.53 214 373.139 214.546 372.736C217.837 370.288 220.634 367.281 222.793 363.792C227.06 356.905 228.855 348.483 227.775 340.463L227.788 340.476Z" fill="#EB7A68"/>
<path d="M201.095 341.973C198.624 342.65 194.435 343.939 191.964 344.616C191.157 344.837 191.469 346.1 192.276 345.879C194.747 345.202 198.936 343.926 201.408 343.236C202.214 343.015 201.902 341.752 201.095 341.973Z" fill="#264653"/>
<path d="M204.191 353.976C201.746 354.744 197.596 356.176 195.151 356.945C194.357 357.192 194.708 358.455 195.502 358.194C197.947 357.426 202.097 355.994 204.543 355.226C205.336 354.979 204.985 353.716 204.191 353.976Z" fill="#264653"/>
<path d="M206.598 362.568C204.126 363.232 199.912 364.469 197.44 365.133C196.634 365.354 196.933 366.617 197.739 366.396C200.211 365.732 204.426 364.495 206.897 363.831C207.704 363.623 207.405 362.347 206.598 362.568Z" fill="#264653"/>
<path d="M227.788 340.476C227.58 338.953 227.216 337.482 226.683 336.115C225.837 333.967 224.588 332.04 222.871 330.465C222.052 330.426 221.31 330.517 220.621 330.712C220.621 330.712 220.699 330.869 220.829 331.168C222.221 334.384 229.584 354.185 209.278 374.428L209.109 374.598C209.109 374.598 209.291 375.066 209.668 375.899C210.774 375.287 211.84 374.624 212.894 373.908C213.453 373.543 214 373.152 214.546 372.749C217.837 370.301 220.634 367.294 222.793 363.805C227.06 356.919 228.855 348.496 227.775 340.476H227.788Z" fill="#1D1D1D"/>
</g>
<defs>
<clipPath id="clip0_3598_2735">
<rect width="603" height="479" fill="white" transform="translate(0 0.5)"/>
</clipPath>
</defs>
</svg>
