<svg width="498" height="440" viewBox="0 0 498 440" fill="none" xmlns="http://www.w3.org/2000/svg">
<path opacity="0.2" d="M108.345 78.6557C108.345 78.6557 190.833 -15.1547 286.623 30.373C382.413 75.9007 300.675 117.29 317.699 116.079C334.722 114.878 419.174 47.6107 454.271 152.152C489.369 256.693 467.101 314.141 397.023 322.342C326.945 330.542 426.511 363.399 385.266 392.311C344.022 421.223 188.688 456.802 152.432 408.798C116.175 360.794 152.71 300.612 152.71 300.612C152.71 300.612 107.379 377.882 68.3982 336.299C29.4172 294.716 29.3636 188.246 68.8273 171.533C108.291 154.821 137.2 135.193 117.859 136.586C98.5189 137.98 81.8066 108.061 108.334 78.6557H108.345Z" fill="#24AF86"/>
<path d="M212.694 202.493C212.694 202.493 181.909 200.306 172.147 166.967C162.386 133.617 128.178 105.23 122.676 92.9776C117.173 80.7247 160.477 77.7874 184.762 99.5596C209.058 121.321 228.044 177.483 212.694 202.503V202.493Z" fill="#264653"/>
<path d="M208.532 199.566C207.331 198.312 206.108 194.045 204.252 187.603C199.318 170.408 190.125 138.409 167.127 116.422C151.048 101.05 141.147 94.7036 135.676 92.0772C129.734 89.2364 127.588 90.0404 127.567 90.0512L127.352 89.558C127.696 89.408 136.288 86.2027 167.503 116.036C190.608 138.119 199.822 170.215 204.767 187.453C206.537 193.595 207.803 198.044 208.919 199.202L208.532 199.577V199.566Z" fill="#FEFADA"/>
<path d="M161.785 111.213C161.378 111.213 160.927 110.859 160.595 110.559C155.371 105.885 134.368 106.324 134.153 106.324V105.788C135.011 105.767 155.574 105.349 160.949 110.152C161.506 110.645 161.775 110.698 161.839 110.655C162.954 109.894 158.707 98.295 156.658 92.7205C155.435 89.3758 154.738 87.4569 154.673 86.9423L155.21 86.878C155.263 87.3604 156.143 89.7617 157.162 92.5383C161.345 103.934 163.373 110.269 162.139 111.106C162.032 111.181 161.914 111.213 161.785 111.213Z" fill="#FEFADA"/>
<path d="M181.426 134.518C181.072 134.518 180.654 134.368 180.16 134.068C173.638 130.123 156.089 132.599 155.907 132.632L155.832 132.096C156.561 131.988 173.756 129.566 180.439 133.607C181.05 133.972 181.49 134.068 181.737 133.886C182.96 132.996 181.458 126.671 179.881 119.971C178.09 112.402 176.063 103.826 176.459 98.0267L176.996 98.0589C176.599 103.773 178.615 112.306 180.396 119.842C182.413 128.386 183.485 133.264 182.048 134.315C181.866 134.443 181.662 134.508 181.426 134.508V134.518Z" fill="#FEFADA"/>
<path d="M195.65 162.294C195.156 162.294 194.759 161.704 194.491 161.243C190.587 154.404 167.492 149.129 167.256 149.076L167.374 148.551C168.329 148.765 190.93 153.932 194.952 160.965C195.414 161.769 195.65 161.747 195.671 161.736C196.69 161.501 197.098 154.179 197.495 147.103C198.031 137.659 198.685 125.888 200.991 119.445L201.496 119.627C199.222 125.995 198.557 137.712 198.031 147.135C197.484 156.859 197.141 161.94 195.789 162.262C195.735 162.272 195.692 162.283 195.639 162.283L195.65 162.294Z" fill="#FEFADA"/>
<path d="M203.351 188.429C200.788 188.429 195.564 185.223 189.621 181.579C184.118 178.202 178.422 174.718 174.604 173.667L174.743 173.153C178.637 174.214 184.354 177.719 189.9 181.118C195.971 184.838 202.257 188.697 204.016 187.753C204.317 187.593 204.467 187.282 204.488 186.789C204.714 180.571 214.271 158.541 214.679 157.608L215.172 157.823C215.076 158.048 205.25 180.689 205.025 186.81C205.003 187.496 204.746 187.979 204.274 188.225C204.027 188.354 203.716 188.418 203.362 188.418L203.351 188.429Z" fill="#FEFADA"/>
<path d="M223.904 248.01C223.904 248.01 252.308 235.939 250.689 201.238C249.069 166.527 272.174 128.568 273.397 115.189C274.62 101.811 232.71 113.11 216.824 141.593C200.927 170.065 201.249 229.346 223.904 248.02V248.01Z" fill="#FF9C28"/>
<path d="M226.886 243.893L226.403 243.668C227.079 242.21 226.832 237.601 226.51 231.211C225.588 213.298 223.861 179.949 238.514 151.562C258.337 113.174 267.476 113.442 267.862 113.474L267.819 114.01C267.744 114.01 258.551 113.924 238.986 151.809C224.397 180.067 226.114 213.32 227.036 231.179C227.379 237.879 227.615 242.307 226.886 243.882V243.893Z" fill="#FEFADA"/>
<path d="M242.15 145.185C242.15 145.185 242.043 145.185 241.989 145.163C240.552 144.777 240.412 138.131 240.659 125.995C240.723 123.037 240.766 120.485 240.659 120.014L241.185 119.896C241.292 120.41 241.26 122.447 241.185 126.006C241.067 131.945 240.82 144.295 242.129 144.649C242.204 144.659 242.44 144.531 242.804 143.887C246.323 137.595 265.899 131.313 266.736 131.045L266.897 131.559C266.693 131.623 246.687 138.034 243.276 144.155C243.019 144.616 242.633 145.195 242.15 145.195V145.185Z" fill="#FEFADA"/>
<path d="M230.994 173.635C230.898 173.635 230.79 173.625 230.694 173.592C228.988 173.067 228.42 168.104 227.551 159.367C226.789 151.67 225.92 142.933 223.689 137.669L224.183 137.465C226.446 142.815 227.315 151.584 228.087 159.324C228.774 166.174 229.417 172.649 230.855 173.089C231.155 173.174 231.541 172.949 231.992 172.403C237.001 166.399 254.046 163.108 254.765 162.979L254.861 163.505C254.69 163.537 237.28 166.892 232.399 172.746C231.895 173.346 231.434 173.646 230.983 173.646L230.994 173.635Z" fill="#FEFADA"/>
<path d="M226.736 204.487C225.363 204.487 223.389 199.792 219.753 190.905C216.191 182.168 211.75 171.308 207.524 166.023L207.942 165.691C212.222 171.04 216.674 181.943 220.246 190.701C222.906 197.208 225.652 203.941 226.714 203.941H226.736C226.757 203.941 226.993 203.887 227.165 202.976C228.677 195.011 248.372 182.79 249.208 182.264L249.487 182.725C249.283 182.854 229.16 195.343 227.69 203.072C227.583 203.641 227.369 204.412 226.789 204.477C226.768 204.477 226.746 204.477 226.725 204.477L226.736 204.487Z" fill="#FEFADA"/>
<path d="M227.465 231.812C227.39 231.812 227.304 231.812 227.229 231.791C226.703 231.705 226.307 231.341 226.06 230.697C223.861 224.984 207.202 206.77 207.031 206.588L207.428 206.223C208.114 206.974 224.322 224.694 226.553 230.504C226.725 230.965 226.972 231.212 227.304 231.266C229.256 231.576 233.955 225.905 238.492 220.406C242.622 215.4 246.902 210.211 250.227 207.949L250.528 208.389C247.256 210.608 243.008 215.764 238.9 220.749C234.019 226.677 229.771 231.812 227.444 231.812H227.465Z" fill="#FEFADA"/>
<path d="M142.563 353.022C142.563 353.022 117.891 334.488 88.6395 353.258C59.3877 372.029 14.9253 371.032 2.72901 376.671C-9.4673 382.309 21.2863 412.915 53.9063 412.411C86.5264 411.907 137.725 381.977 142.563 353.022Z" fill="#FF9C28"/>
<path d="M38.5027 388.989C7.60968 388.989 4.16639 382.621 4.01622 382.321L4.49892 382.085C4.54183 382.171 9.1007 390.157 51.6752 388.12C83.4585 386.609 111.402 368.481 126.419 358.736C132.051 355.081 135.773 352.669 137.5 352.508L137.554 353.044C135.955 353.194 132.083 355.703 126.709 359.187C111.659 368.953 83.6301 387.134 51.6966 388.656C46.8159 388.892 42.4394 388.989 38.5027 388.989Z" fill="#FEFADA"/>
<path d="M23.2815 402.581L22.9168 402.185C23.3029 401.831 25.0836 400.845 28.205 399.119C33.4075 396.256 44.2308 390.285 43.8875 388.977C43.8661 388.902 43.6408 388.774 42.89 388.774C42.8578 388.774 42.8363 388.774 42.8041 388.774C35.5529 388.774 20.4282 375.073 19.7845 374.494L20.1493 374.098C20.3102 374.237 35.7567 388.238 42.8041 388.238C42.8685 388.238 42.9221 388.238 42.9865 388.238C43.555 388.238 44.2737 388.313 44.4132 388.838C44.7993 390.275 39.1034 393.726 28.4732 399.59C25.8773 401.016 23.6462 402.249 23.2815 402.581Z" fill="#FEFADA"/>
<path d="M47.0734 408.435L46.6443 408.113C50.1412 403.482 57.3067 398.336 63.6248 393.791C69.2134 389.771 74.5017 385.976 74.1584 384.507C74.0833 384.196 73.6972 383.982 72.9999 383.864C65.2981 382.535 53.9171 369.435 53.4343 368.877L53.842 368.523C53.96 368.663 65.577 382.042 73.0965 383.339C74.0404 383.499 74.566 383.843 74.6948 384.389C75.0917 386.126 71.0798 389.106 63.9466 394.23C57.6607 398.744 50.5274 403.868 47.0841 408.435H47.0734Z" fill="#FEFADA"/>
<path d="M79.7256 408.209L79.2215 408.016C81.7101 401.637 88.9292 392.332 94.7323 384.85C99.0767 379.243 103.571 373.455 102.96 372.608C102.949 372.586 102.788 372.415 101.909 372.715C94.2389 375.395 73.8044 364.471 72.9356 364.01L73.193 363.539C73.4076 363.646 94.2925 374.805 101.726 372.211C102.273 372.018 103.046 371.814 103.389 372.297C104.193 373.412 101.115 377.485 95.1507 385.182C89.369 392.633 82.1713 401.916 79.7149 408.219L79.7256 408.209Z" fill="#FEFADA"/>
<path d="M115.102 388.346L114.588 388.185C114.899 387.209 122.139 364.322 126.054 359.476C126.365 359.09 126.451 358.758 126.333 358.447C125.625 356.582 118.353 355.37 111.327 354.202C104.923 353.13 98.2936 352.026 94.6572 350.278L94.8932 349.796C98.4545 351.511 105.041 352.604 111.412 353.676C119.254 354.984 126.012 356.11 126.827 358.254C127.02 358.758 126.891 359.283 126.462 359.819C122.611 364.579 115.167 388.11 115.092 388.346H115.102Z" fill="#FEFADA"/>
<path d="M297.404 371.911C297.404 371.911 271.048 355.874 243.759 377.41C216.47 398.947 172.137 402.291 160.541 409.088C148.945 415.884 182.552 443.349 214.968 439.661C247.385 435.984 295.408 401.187 297.404 371.911Z" fill="#4F4F4F"/>
<path d="M181.941 418.704C165.143 418.704 162.525 414.823 162.386 414.587L162.847 414.308C162.901 414.383 168.221 421.877 210.388 415.713C241.871 411.103 267.916 390.339 281.903 379.179C287.149 374.988 290.624 372.222 292.33 371.9L292.426 372.426C290.849 372.726 287.235 375.609 282.236 379.597C268.205 390.789 242.096 411.618 210.463 416.238C198.063 418.05 188.817 418.704 181.952 418.704H181.941Z" fill="#FEFADA"/>
<path d="M183.528 432.876L183.131 432.522C183.485 432.136 185.159 430.978 188.098 428.952C193 425.586 203.19 418.597 202.719 417.332C202.686 417.257 202.45 417.149 201.699 417.224C194.534 418.039 178.015 405.786 177.318 405.271L177.639 404.843C177.811 404.971 194.695 417.46 201.646 416.699C202.225 416.635 203.019 416.613 203.223 417.149C203.748 418.543 198.417 422.531 188.409 429.403C185.963 431.075 183.861 432.522 183.539 432.887L183.528 432.876Z" fill="#FEFADA"/>
<path d="M207.782 436.382L207.32 436.103C210.345 431.15 216.974 425.329 222.82 420.194C227.991 415.649 232.882 411.361 232.399 409.924C232.303 409.624 231.885 409.452 231.177 409.399C223.378 408.831 210.774 396.899 210.238 396.385L210.603 395.999C210.731 396.117 223.603 408.305 231.209 408.863C232.163 408.938 232.721 409.227 232.904 409.753C233.472 411.436 229.761 414.802 223.164 420.591C217.35 425.704 210.753 431.493 207.771 436.371L207.782 436.382Z" fill="#FEFADA"/>
<path d="M240.262 432.972L239.747 432.832C241.603 426.25 247.878 416.27 252.92 408.262C256.695 402.259 260.6 396.063 259.914 395.28C259.892 395.259 259.72 395.098 258.873 395.495C251.514 398.914 230.104 390.038 229.192 389.652L229.396 389.159C229.61 389.245 251.493 398.314 258.648 395.012C259.173 394.766 259.924 394.487 260.31 394.927C261.222 395.966 258.562 400.308 253.37 408.552C248.35 416.538 242.086 426.465 240.251 432.982L240.262 432.972Z" fill="#FEFADA"/>
<path d="M273.526 409.753L273 409.646C273.215 408.649 278.181 385.161 281.603 379.962C281.871 379.554 281.936 379.211 281.785 378.901C280.895 377.121 273.547 376.617 266.435 376.135C259.956 375.695 253.252 375.245 249.466 373.862L249.648 373.358C253.359 374.72 260.021 375.17 266.468 375.599C274.395 376.135 281.238 376.596 282.268 378.654C282.504 379.136 282.44 379.672 282.054 380.241C278.685 385.354 273.579 409.496 273.526 409.743V409.753Z" fill="#FEFADA"/>
<path d="M358.793 371.911C358.793 371.911 385.148 355.874 412.437 377.41C439.726 398.947 484.06 402.291 495.655 409.088C507.251 415.884 473.644 443.349 441.228 439.661C408.811 435.984 360.788 401.187 358.793 371.911Z" fill="#264653"/>
<path d="M474.255 418.704C467.39 418.704 458.155 418.05 445.744 416.238C414.111 411.607 388.002 390.778 373.971 379.597C368.972 375.609 365.357 372.726 363.781 372.426L363.877 371.9C365.583 372.222 369.047 374.988 374.304 379.179C388.291 390.339 414.336 411.103 445.819 415.713C487.986 421.887 493.306 414.383 493.36 414.308L493.821 414.587C493.682 414.823 491.053 418.704 474.266 418.704H474.255Z" fill="#FEFADA"/>
<path d="M472.657 432.876C472.335 432.522 470.233 431.075 467.787 429.392C457.779 422.52 452.448 418.532 452.974 417.139C453.177 416.603 453.971 416.624 454.55 416.688C461.512 417.449 478.385 404.96 478.557 404.832L478.879 405.261C478.181 405.786 461.651 418.039 454.497 417.214C453.767 417.128 453.51 417.246 453.478 417.321C453.006 418.586 463.196 425.586 468.098 428.942C471.037 430.957 472.711 432.115 473.065 432.501L472.668 432.854L472.657 432.876Z" fill="#FEFADA"/>
<path d="M448.415 436.382C445.422 431.504 438.836 425.704 433.011 420.601C426.414 414.802 422.713 411.446 423.271 409.763C423.454 409.227 424.001 408.938 424.966 408.874C432.571 408.316 445.443 396.138 445.572 396.009L445.948 396.395C445.411 396.899 432.807 408.831 425.009 409.41C424.301 409.463 423.893 409.635 423.786 409.935C423.303 411.361 428.195 415.659 433.365 420.205C439.211 425.34 445.84 431.161 448.865 436.114L448.404 436.392L448.415 436.382Z" fill="#FEFADA"/>
<path d="M415.934 432.972C414.1 426.465 407.846 416.527 402.815 408.541C397.624 400.297 394.963 395.956 395.875 394.916C396.261 394.476 397.012 394.755 397.538 395.002C404.692 398.314 426.564 389.245 426.79 389.148L426.993 389.642C426.082 390.017 404.682 398.893 397.312 395.484C396.465 395.087 396.293 395.248 396.272 395.27C395.585 396.052 399.49 402.259 403.266 408.251C408.307 416.259 414.583 426.229 416.438 432.822L415.923 432.961L415.934 432.972Z" fill="#FEFADA"/>
<path d="M382.67 409.753C382.617 409.507 377.511 385.365 374.143 380.251C373.767 379.672 373.692 379.147 373.928 378.665C374.947 376.606 381.791 376.145 389.718 375.609C396.165 375.17 402.826 374.72 406.537 373.369L406.72 373.873C402.933 375.256 396.229 375.717 389.75 376.145C382.638 376.628 375.28 377.121 374.4 378.911C374.25 379.211 374.304 379.554 374.582 379.973C378.004 385.172 382.982 408.66 383.185 409.657L382.66 409.764L382.67 409.753Z" fill="#FEFADA"/>
<path d="M341.008 173.57C341.008 173.57 371.279 179.563 389.482 149.965C407.685 120.367 448.168 101.972 456.706 91.6054C465.245 81.2285 424.247 67.0138 395.07 81.6144C365.904 96.215 332.78 145.398 341.008 173.57Z" fill="#24AF86"/>
<path d="M345.792 171.845L345.513 171.384C346.886 170.558 349.289 166.613 352.614 161.146C361.936 145.816 379.281 117.28 407.385 102.058C445.368 81.486 452.791 86.8353 453.091 87.0711L452.759 87.4892C452.759 87.4892 450.882 86.1278 444.403 87.307C438.428 88.4004 427.208 91.9165 407.642 102.519C379.667 117.677 362.365 146.127 353.075 161.414C349.589 167.149 347.283 170.944 345.792 171.834V171.845Z" fill="#FEFADA"/>
<path d="M442.118 101.468C441.914 101.404 421.769 95.4651 415.494 98.5954C414.969 98.8526 414.239 99.1528 413.864 98.7133C412.898 97.5877 416.524 92.0131 423.55 82.1184C425.266 79.7064 426.747 77.6266 426.929 77.1764L427.422 77.3801C427.229 77.8625 426.049 79.5348 423.99 82.44C420.547 87.2748 413.392 97.3518 414.271 98.381C414.325 98.4346 414.593 98.4667 415.258 98.1344C421.705 94.9076 441.432 100.729 442.268 100.975L442.118 101.49V101.468Z" fill="#FEFADA"/>
<path d="M414.196 121.119C414.035 121.043 397.752 114.032 390.415 116.123C389.493 116.391 388.87 116.305 388.516 115.866C387.401 114.472 389.729 110.045 393.923 102.337C397.623 95.5401 401.818 87.8323 402.944 82.2256L403.47 82.3328C402.333 88.0252 398.117 95.7652 394.395 102.605C391.102 108.651 387.991 114.365 388.935 115.544C389.128 115.791 389.578 115.812 390.265 115.619C397.774 113.475 413.724 120.336 414.4 120.636L414.186 121.129L414.196 121.119Z" fill="#FEFADA"/>
<path d="M368.221 139.299C368.114 139.299 368.007 139.278 367.91 139.224C366.698 138.56 367.696 133.564 369.734 124.045C371.708 114.825 374.153 103.344 373.638 96.6009L374.175 96.558C374.7 103.376 372.244 114.9 370.26 124.152C368.779 131.088 367.245 138.249 368.168 138.753C368.189 138.763 368.404 138.86 369.069 138.195C374.808 132.46 397.967 133.425 398.943 133.468L398.921 134.004C398.675 134.004 375.022 133.007 369.444 138.571C369.112 138.903 368.661 139.299 368.221 139.299Z" fill="#FEFADA"/>
<path d="M355.07 162.615C354.062 162.615 353.322 162.444 352.893 162.036C352.507 161.672 352.389 161.146 352.539 160.471C353.944 154.511 350.426 130.09 350.394 129.844L350.919 129.768C351.069 130.776 354.491 154.543 353.065 160.6C352.957 161.071 353.022 161.425 353.258 161.65C354.706 163.012 361.775 160.954 368.618 158.96C374.851 157.137 381.308 155.261 385.331 155.261V155.797C381.372 155.797 374.969 157.662 368.758 159.474C363.083 161.125 357.977 162.615 355.06 162.615H355.07Z" fill="#FEFADA"/>
<path d="M109.643 295.885C109.643 295.885 78.7816 296.357 66.1884 263.972C53.5952 231.587 17.0599 206.245 10.5273 194.517C3.98403 182.779 46.8803 176.132 72.957 195.728C99.0337 215.324 122.793 269.642 109.653 295.885H109.643Z" fill="#24AF86"/>
<path d="M105.245 293.323C103.936 292.176 102.348 288.038 99.9563 281.767C93.5524 265.065 81.6457 233.967 56.8347 214.049C39.4896 200.124 29.0739 194.646 23.3995 192.502C17.2316 190.176 15.1613 191.173 15.1506 191.183L14.9039 190.712C15.2364 190.529 23.5067 186.595 57.178 213.642C82.0962 233.656 94.0458 264.84 100.46 281.585C102.745 287.556 104.397 291.865 105.609 292.926L105.255 293.334L105.245 293.323Z" fill="#FEFADA"/>
<path d="M50.9886 209.333C50.5918 209.333 50.1412 209.043 49.8087 208.786C44.1986 204.583 23.3136 206.824 23.0991 206.845L23.0455 206.309C23.9143 206.213 44.3595 204.026 50.1305 208.357C50.7312 208.807 50.9994 208.829 51.053 208.786C52.1042 207.939 46.8696 196.747 44.3488 191.365C42.8363 188.139 41.9782 186.284 41.8709 185.78L42.3965 185.673C42.4931 186.145 43.5765 188.46 44.8315 191.14C49.9696 202.129 52.544 208.271 51.3855 209.204C51.2675 209.3 51.1281 209.343 50.9779 209.343L50.9886 209.333Z" fill="#FEFADA"/>
<path d="M47.0519 231.169L46.9339 230.644C47.6526 230.473 64.5687 226.581 71.584 230.033C72.2169 230.344 72.6674 230.397 72.9034 230.194C74.0404 229.208 72.0023 223.033 69.857 216.493C67.422 209.107 64.6653 200.735 64.558 194.924H65.0943C65.1909 200.638 67.9369 208.968 70.3612 216.322C73.1072 224.662 74.5982 229.433 73.2574 230.601C72.839 230.966 72.2062 230.944 71.348 230.515C64.5151 227.139 47.2343 231.126 47.0627 231.169H47.0519Z" fill="#FEFADA"/>
<path d="M89.133 257.305C88.661 257.305 88.2319 256.779 87.9423 256.361C83.4585 249.886 59.9991 246.617 59.7631 246.585L59.8382 246.049C60.8144 246.177 83.7696 249.383 88.3821 256.05C88.9077 256.812 89.1437 256.769 89.1651 256.758C90.1627 256.436 89.9375 249.104 89.7229 242.018C89.4333 232.563 89.0793 220.781 90.8278 214.167L91.3427 214.306C89.6264 220.845 89.9804 232.584 90.2593 242.007C90.5489 251.741 90.6454 256.833 89.3261 257.273C89.2617 257.294 89.1866 257.305 89.1222 257.305H89.133Z" fill="#FEFADA"/>
<path d="M98.8192 282.7C96.1483 282.7 90.8492 280.041 84.853 277.051C79.082 274.156 73.1072 271.176 69.2134 270.468L69.3099 269.943C73.2788 270.661 79.2858 273.674 85.089 276.579C91.4607 279.763 98.0576 283.065 99.7203 281.971C99.9992 281.789 100.128 281.457 100.106 280.974C99.7954 274.767 107.422 251.987 107.744 251.022L108.248 251.193C108.173 251.429 100.332 274.831 100.643 280.942C100.675 281.628 100.471 282.121 100.021 282.421C99.7203 282.614 99.3126 282.711 98.8192 282.711V282.7Z" fill="#FEFADA"/>
<path d="M366.752 344.017C366.752 344.017 397.023 350.01 415.226 320.412C433.429 290.814 473.912 272.419 482.451 262.053C490.989 251.676 449.992 237.461 420.815 252.062C391.649 266.662 358.525 315.845 366.752 344.017Z" fill="#264653"/>
<path d="M371.536 342.292L371.257 341.831C372.63 341.005 375.033 337.06 378.358 331.593C387.68 316.264 405.025 287.727 433.129 272.505C471.112 251.933 478.535 257.282 478.836 257.518L478.503 257.936C478.503 257.936 476.626 256.575 470.147 257.754C464.172 258.847 452.952 262.364 433.387 272.966C405.411 288.124 388.109 316.574 378.82 331.861C375.333 337.596 373.027 341.391 371.536 342.281V342.292Z" fill="#FEFADA"/>
<path d="M467.862 271.916C467.658 271.862 447.514 265.912 441.238 269.043C440.713 269.3 439.983 269.6 439.608 269.161C438.643 268.035 442.268 262.45 449.305 252.555C451.021 250.143 452.502 248.063 452.673 247.613L453.167 247.817C452.974 248.299 451.794 249.971 449.734 252.866C446.291 257.711 439.136 267.778 440.016 268.807C440.069 268.86 440.337 268.893 441.002 268.56C447.46 265.333 467.176 271.155 468.012 271.401L467.862 271.916Z" fill="#FEFADA"/>
<path d="M439.941 291.566C439.78 291.491 423.496 284.49 416.159 286.57C415.237 286.838 414.615 286.752 414.261 286.313C413.145 284.919 415.473 280.492 419.667 272.784C423.368 265.987 427.562 258.28 428.688 252.673L429.214 252.78C428.077 258.473 423.861 266.213 420.139 273.052C416.846 279.098 413.735 284.812 414.679 285.991C414.872 286.238 415.323 286.259 416.009 286.066C423.518 283.922 439.469 290.783 440.144 291.083L439.93 291.577L439.941 291.566Z" fill="#FEFADA"/>
<path d="M393.966 309.747C393.858 309.747 393.751 309.725 393.655 309.672C392.442 309.007 393.44 304.011 395.478 294.492C397.452 285.273 399.898 273.791 399.383 267.048L399.919 267.005C400.445 273.823 397.988 285.348 396.004 294.599C394.523 301.535 392.99 308.696 393.912 309.2C393.934 309.211 394.159 309.297 394.813 308.643C400.552 302.907 423.711 303.872 424.687 303.915L424.666 304.451C424.419 304.44 400.766 303.454 395.189 309.018C394.856 309.35 394.405 309.747 393.966 309.747Z" fill="#FEFADA"/>
<path d="M380.815 333.062C379.806 333.062 379.066 332.891 378.637 332.484C378.251 332.119 378.133 331.583 378.283 330.918C379.688 324.958 376.17 300.537 376.138 300.291L376.663 300.216C376.814 301.223 380.235 324.99 378.809 331.047C378.702 331.519 378.766 331.873 379.002 332.098C380.45 333.47 387.519 331.401 394.363 329.407C400.595 327.584 407.052 325.708 411.075 325.708V326.244C407.117 326.244 400.713 328.11 394.513 329.921C388.838 331.572 383.732 333.062 380.815 333.062Z" fill="#FEFADA"/>
<path d="M155.725 227.17C155.725 227.17 151.423 176.293 183.26 171.051C210.281 166.602 231.82 178.651 242.418 205.912C253.016 233.173 162.761 235.414 155.735 227.181L155.725 227.17Z" fill="#24AF86"/>
<path d="M89.5513 143.254C89.5513 143.254 99.377 162.507 108.409 161.081C117.441 159.656 121.195 147.221 135.794 152.345C150.393 157.48 163.737 188.117 177.8 192.459C191.863 196.8 168.65 229.057 168.65 229.057C168.65 229.057 55.687 236.164 51.0959 227.877C46.5049 219.591 81.6135 177.826 85.0354 175.243C92.941 169.271 81.6135 158.991 81.6135 158.991L89.5513 143.243V143.254Z" fill="#FFDCB2"/>
<path d="M89.5299 130.069C89.5299 130.069 101.673 154.554 88.6181 159.474C79.6398 162.851 69.6961 148.947 69.6103 140.875C69.5245 132.813 82.1606 126.242 89.5191 130.069H89.5299Z" fill="#FFDCB2"/>
<path d="M79.4955 147.848C79.9334 147.682 80.1154 147.091 79.902 146.526C79.6886 145.961 79.1606 145.636 78.7227 145.802C78.2849 145.967 78.1029 146.559 78.3163 147.124C78.5297 147.689 79.0577 148.013 79.4955 147.848Z" fill="#264653"/>
<path d="M87.7982 144.722C88.236 144.557 88.418 143.965 88.2046 143.4C87.9912 142.835 87.4632 142.511 87.0254 142.676C86.5875 142.842 86.4055 143.434 86.6189 143.999C86.8323 144.564 87.3603 144.888 87.7982 144.722Z" fill="#264653"/>
<path d="M93.0482 142.74C93.0482 142.74 92.8981 137.841 95.5368 139.009C98.1756 140.178 97.9933 146.202 96.1375 146.867C94.2818 147.532 92.8444 144.83 93.059 142.74H93.0482Z" fill="#FFDCB2"/>
<path d="M85.2392 139.663C85.2392 139.663 86.8911 138.355 88.8648 140.135C90.0126 141.175 83.3513 141.014 85.2392 139.663Z" fill="#E75A51"/>
<path d="M78.1488 142.15C78.1488 142.15 76.0571 141.914 75.3277 144.476C74.9093 145.966 80.4658 142.3 78.1488 142.15Z" fill="#E75A51"/>
<path d="M74.2872 150.008C74.2872 150.008 71.1764 146.213 69.9643 148.829C68.7522 151.444 72.839 155.861 74.684 155.143C76.5183 154.425 75.8318 151.455 74.2872 150.008Z" fill="#FFDCB2"/>
<path d="M70.2217 134.432C70.2217 134.432 74.8557 144.091 72.3456 149.075C72.3456 149.075 57.9074 145.184 70.2217 134.432Z" fill="#E75A51"/>
<path d="M85.443 151.123C84.735 151.123 83.2654 150.565 82.5253 149.6L82.9544 149.279C83.598 150.126 84.8637 150.555 85.3572 150.597C85.207 149.879 84.1558 147.317 83.126 145.023L83.6194 144.798C85.2821 148.486 86.0437 150.544 85.8828 150.919L85.7004 151.091C85.6361 151.112 85.5395 151.123 85.443 151.123Z" fill="#E75A51"/>
<path d="M85.4215 154.264C83.5336 154.264 81.5599 152.816 81.4633 152.741L81.7852 152.313C81.7852 152.313 84.617 154.392 86.4835 153.513C87.5132 153.02 88.0925 151.702 88.1998 149.568L88.7361 149.59C88.6181 151.937 87.9423 153.417 86.7087 153.996C86.3011 154.189 85.872 154.264 85.4322 154.264H85.4215Z" fill="#E75A51"/>
<path d="M74.1906 153.492C72.957 150.479 71.5626 150.608 71.5518 150.608L71.4767 150.083C71.5411 150.072 73.2896 149.847 74.6948 153.299L74.2013 153.503L74.1906 153.492Z" fill="#E75A51"/>
<path d="M95.0649 145.602C93.842 142.086 95.2901 141.099 95.3545 141.067L95.6441 141.518C95.6441 141.518 94.4964 142.354 95.569 145.43L95.0649 145.602Z" fill="#E75A51"/>
<path d="M71.5089 169.829C71.5089 169.829 71.2515 165.402 67.6688 162.304C64.086 159.206 60.2244 154.575 62.4341 155.625C64.6438 156.676 67.4328 158.423 67.4328 158.423C67.4328 158.423 63.4317 154.553 64.0538 154.017C64.676 153.481 70.1145 156.075 70.1145 156.075C70.1145 156.075 65.2981 153.331 67.229 152.409C69.1598 151.487 82.1391 162.711 79.9938 166.72C77.355 171.63 77.4837 171.877 71.5089 169.829Z" fill="#FFDCB2"/>
<path d="M161.163 224.909C161.163 224.909 165.336 196.147 173.37 192.47C181.404 188.792 259.946 213.503 269.975 214.5C280.005 215.497 286.58 224.577 285.84 226.324C285.1 228.071 272.829 228.693 267.712 229.701C262.595 230.708 160.487 243.969 161.152 224.909H161.163Z" fill="#24AF86"/>
<path d="M168.575 193.584C168.575 193.584 164.606 181.471 171.3 175.714C194.942 155.378 259.291 199.148 270.415 209.353C277.849 216.171 293.617 223.418 292.576 224.994C291.536 226.57 276.443 218.358 271.23 218.412C266.017 218.465 164.413 212.205 168.575 193.595V193.584Z" fill="#24AF86"/>
<path d="M69.1705 163.922C69.1705 163.922 78.9318 163.183 80.38 163.858C81.8281 164.533 83.4693 226.205 77.001 229.711C70.5328 233.216 54.1209 233.902 48.4679 230C42.8149 226.087 64.8905 161.542 69.1598 163.933L69.1705 163.922Z" fill="#E75A51"/>
<path d="M87.1378 172.863C87.1378 172.863 106.113 186.67 108.409 161.081C108.409 161.081 122.45 149.139 133.134 149.064C150.275 148.936 155.102 174.095 171.311 175.703C177.918 176.357 169.112 231.994 169.112 231.994C169.112 231.994 69.1061 234.17 63.9895 232.712C58.8728 231.254 62.0265 195.149 65.459 190.208C68.8916 185.266 84.1772 171.898 87.1485 172.863H87.1378Z" fill="#E75A51"/>
<path d="M81.6135 159.002C81.6135 159.002 87.4382 166.431 91.8254 165.766C96.2126 165.102 96.631 153.996 96.631 153.996L94.668 151.466C94.668 151.466 94.668 164.341 81.6135 159.002Z" fill="#E75A51"/>
<path d="M66.8857 131.387C66.8857 131.387 68.7307 126.445 75.7889 123.487C82.8471 120.528 92.4797 115.972 93.0268 118.116C93.5739 120.26 91.3427 125.127 91.3427 125.127C91.3427 125.127 96.7061 121.203 96.2448 124.141C95.7836 127.078 94.0995 133.757 83.5872 136.876C73.075 139.996 62.1552 139.803 66.875 131.387H66.8857Z" fill="#E75A51"/>
<path d="M86.5264 128.814C86.5264 128.814 90.3022 141.646 93.4773 140.821C93.4773 140.821 95.0327 134.314 93.0268 130.723C91.0209 127.131 86.5264 128.814 86.5264 128.814Z" fill="#E75A51"/>
<path d="M76.3145 225.219L76.0356 224.769C81.7101 221.242 81.2488 177.772 81.2381 177.333H81.7744C81.7959 179.134 82.2464 221.542 76.3145 225.23V225.219Z" fill="#E75A51"/>
<path d="M98.9909 178.973C92.0077 178.973 84.9924 175.532 84.9174 175.5L85.1533 175.018C85.2284 175.05 92.6513 178.684 99.731 178.427C106.382 178.18 109.546 166.763 110.2 162.379L110.726 162.454C110.458 164.265 109.546 168.275 107.862 171.812C105.674 176.433 102.938 178.834 99.7417 178.952C99.4843 178.952 99.2376 178.963 98.9801 178.963L98.9909 178.973Z" fill="#E75A51"/>
<path d="M101.984 189.179C101.984 189.179 102.488 175.136 117.913 167.213C126.902 162.593 128.715 172.08 129.251 173.474C129.787 174.868 106.038 192.674 102.617 192.309C99.1947 191.945 67.9477 194.636 67.2826 194.282C66.6175 193.928 64.4078 188.707 67.7653 186.199C71.1228 183.69 95.687 180.721 101.994 189.179H101.984Z" fill="#FEFADA"/>
<path d="M75.864 228.178C75.864 228.178 62.4019 191.848 65.8023 190.518C70.4255 188.707 97.1137 188.825 101.984 189.189C101.984 189.189 121.506 167.385 127.621 168.757C133.735 170.129 146.843 210.415 144.333 210.586C141.823 210.758 126.119 223.311 113.504 228.81C113.504 228.81 79.318 229.721 75.864 228.188V228.178Z" fill="#24AF86"/>
<path d="M134.7 212.827C134.7 212.827 127.621 208.903 122.89 208.678C118.16 208.453 112.163 209.128 114.491 209.889C116.819 210.651 120.037 211.315 120.037 211.315C120.037 211.315 114.459 211.358 114.545 212.173C114.63 212.988 120.359 214.864 120.359 214.864C120.359 214.864 114.974 213.534 115.746 215.528C116.518 217.522 126.494 218.058 130.367 222.068C134.239 226.077 140.45 215.453 134.711 212.816L134.7 212.827Z" fill="#FFDCB2"/>
<path d="M130.903 173.442C123.501 165.102 128.951 153.738 129.004 153.62L129.487 153.856C129.433 153.963 124.145 165.016 131.311 173.078L130.914 173.431L130.903 173.442Z" fill="#E75A51"/>
<path d="M125.497 204.412C125.497 204.412 121.217 218.209 125.497 222.969C129.777 227.728 165.733 215.668 169.551 205.055C173.37 194.442 167.599 185.03 161.163 185.083C154.727 185.137 144.526 198.87 125.497 204.412Z" fill="#E75A51"/>
<path d="M136.824 225.969C134.775 225.969 132.705 225.744 130.646 225.24L130.774 224.715C142.595 227.567 154.706 221.328 162.096 214.542C167.288 209.772 170.324 204.658 169.83 201.517C168.607 193.627 158.063 172.831 157.956 172.616L158.439 172.37C158.878 173.227 169.133 193.456 170.367 201.431C170.882 204.755 167.782 210.05 162.461 214.939C156.25 220.642 146.746 225.959 136.824 225.959V225.969Z" fill="#E75A51"/>
<path d="M141.662 196.908L141.276 196.533C142.273 195.503 151.734 187.956 155.435 186.552L155.628 187.056C151.981 188.439 142.649 195.889 141.662 196.908Z" fill="#E75A51"/>
<path d="M71.5518 188.16L71.4553 187.635C72.2705 187.485 91.3963 184.011 99.1089 187.656L98.8836 188.139C91.332 184.569 71.7557 188.117 71.5626 188.16H71.5518Z" fill="#FEFADA"/>
<path d="M109.128 190.444C109.128 190.444 128.286 179.22 129.262 177.344C129.605 176.69 133.145 187.892 133.145 187.892C133.145 187.892 115.06 197.948 113.976 198.098C112.893 198.248 109.675 192.556 109.138 190.444H109.128Z" fill="#FEFADA"/>
<path d="M132.898 223.097C129.294 215.936 130.399 203.147 130.442 202.6L130.978 202.643C130.967 202.771 129.841 215.829 133.381 222.85L132.898 223.086V223.097Z" fill="#E75A51"/>
<path d="M80.9163 172.37C77.0868 170.901 66.0705 171.319 65.9525 171.319L65.931 170.783C66.3923 170.762 77.1727 170.354 81.1094 171.866L80.9163 172.37Z" fill="#E75A51"/>
<path d="M67.658 158.552L67.1861 158.294C67.2182 158.241 67.9369 156.944 69.975 155.839L70.2325 156.311C68.3445 157.33 67.6688 158.541 67.658 158.552Z" fill="#E75A51"/>
<path d="M226.768 182.05C215.848 176.84 197.066 174.117 183.775 179.338L183.582 178.834C197.012 173.559 215.977 176.293 227.004 181.557L226.768 182.039V182.05Z" fill="#264653"/>
<path d="M267.497 206.866C267.497 206.866 264.719 220.074 267.916 221.103C271.112 222.132 286.784 217.737 291.085 219.924C295.387 222.111 298.444 225.884 297.994 220.513C297.543 215.142 291.954 210.19 286.43 208.646C280.906 207.102 267.497 206.866 267.497 206.866Z" fill="#264653"/>
<path d="M267.519 220.181C267.519 220.181 266.36 228.039 269.557 229.068C272.753 230.097 284.424 226.881 288.715 229.068C293.006 231.255 300.697 235.21 300.235 229.84C299.774 224.469 294.196 219.516 288.672 217.972C283.148 216.429 267.508 220.181 267.508 220.181H267.519Z" fill="#264653"/>
<path d="M178.315 180.142C178.315 180.142 165.175 216.986 165.894 231.994C166.172 237.804 189.332 235.821 196.969 235.435C204.606 235.049 181.147 186.348 178.315 180.142Z" fill="#24AF86"/>
<path d="M171.45 207.081C169.841 205.752 171.203 199.781 172.405 194.517C172.887 192.384 173.349 190.358 173.488 189.114C173.949 184.933 177.94 180.174 178.111 179.981L178.519 180.324C178.519 180.324 174.464 185.159 174.024 189.179C173.885 190.454 173.445 192.395 172.93 194.646C171.879 199.256 170.442 205.559 171.793 206.674L171.45 207.092V207.081Z" fill="#264653"/>
<path d="M69.8356 136.758L69.5674 136.297C69.8356 136.147 76.2716 132.513 79.1786 132.513C85.3786 132.513 88.9292 130.337 89.7337 126.027L90.2593 126.124C89.4012 130.712 85.6682 133.038 79.1786 133.038C76.4218 133.038 69.8999 136.715 69.8356 136.758Z" fill="#E75A51"/>
<path d="M68.1407 134.872L67.6795 134.604C67.8189 134.357 71.2729 128.6 75.9713 127.335C77.8484 126.831 79.3502 126.982 80.5516 127.099C82.4073 127.282 83.5336 127.4 84.7457 125.223L85.2177 125.481C83.834 127.957 82.3644 127.807 80.4979 127.625C79.2751 127.507 77.8913 127.367 76.1107 127.839C71.6269 129.05 68.1729 134.807 68.1407 134.861V134.872Z" fill="#E75A51"/>
<path d="M69.9857 146.878C69.9106 146.642 68.1729 141.035 69.1061 139.084L69.5888 139.309C68.7522 141.067 70.4792 146.653 70.5006 146.706L69.9857 146.867V146.878Z" fill="#E75A51"/>
<path d="M92.5012 138.538C91.9005 135.557 90.5489 134.421 90.5382 134.4L90.8814 133.981C90.9458 134.035 92.3939 135.236 93.0268 138.43L92.5012 138.538Z" fill="#E75A51"/>
<path d="M277.055 219.859C276.851 219.152 275.339 216.482 274.566 215.164L275.028 214.896C275.124 215.056 277.302 218.766 277.57 219.72L277.055 219.87V219.859Z" fill="#FEFADA"/>
<path d="M281.807 220.084L281.281 220.009C281.528 218.273 279.49 214.928 279.468 214.896L279.93 214.617C280.015 214.756 282.096 218.155 281.818 220.084H281.807Z" fill="#FEFADA"/>
<path d="M278.374 229.507C278.17 228.8 276.658 226.13 275.886 224.812L276.347 224.544C276.443 224.704 278.621 228.414 278.889 229.368L278.374 229.518V229.507Z" fill="#FEFADA"/>
<path d="M283.137 229.743L282.611 229.668C282.858 227.931 280.82 224.586 280.799 224.554L281.26 224.276C281.346 224.415 283.427 227.813 283.148 229.743H283.137Z" fill="#FEFADA"/>
<path d="M267.519 220.449C267.036 220.438 218.798 219.323 196.926 215.925C178.09 212.998 173.746 208.989 173.563 208.828L173.939 208.442C173.939 208.442 178.401 212.505 197.012 215.4C218.852 218.798 267.047 219.902 267.53 219.913V220.449H267.519Z" fill="#264653"/>
<path d="M101.34 189.286C91.2354 185.512 69.9428 188.021 69.7283 188.053L69.6639 187.517C69.8785 187.495 91.2998 184.965 101.522 188.782L101.34 189.286Z" fill="#B1E2D3"/>
<path d="M104.279 185.191L103.775 185.009C107.261 175.639 119.597 168.853 119.726 168.789L119.983 169.261C119.865 169.325 107.69 176.025 104.279 185.202V185.191Z" fill="#B1E2D3"/>
<path d="M113.493 229.068C113.182 229.068 112.753 228.747 106.103 210.126C102.788 200.842 99.5165 191.44 99.4843 191.355L99.9884 191.183C105.051 205.752 112.861 227.728 113.654 228.597L113.504 228.736V229.079L113.493 229.068Z" fill="#264653"/>
<path d="M119.061 227.267C117.473 222.765 104.976 188.492 104.848 188.139L105.352 187.956C105.481 188.299 117.977 222.583 119.565 227.085L119.061 227.267Z" fill="#264653"/>
<path d="M42.1177 297.568C42.1177 297.568 226.189 299.369 233.923 297.568C241.657 295.767 259.967 294.727 262.177 298.393C264.387 302.06 272.056 361.663 261.008 365.264C249.948 368.856 38.8031 366.465 34.3837 366.465C29.9643 366.465 32.7211 305.361 34.9415 302.37C37.1619 299.38 34.9415 298.779 42.1284 297.579L42.1177 297.568Z" fill="#24AF86"/>
<path d="M90.077 314.216C90.077 314.216 89.6372 342.946 92.7157 347.181C95.7943 351.415 225.148 350.944 229.546 350.011C233.944 349.078 231.305 313.273 231.305 313.273C231.305 313.273 89.6372 309.51 90.077 314.216Z" fill="#264653"/>
<path d="M49.8624 297.429L48.7897 367.612C48.7897 367.612 57.9075 368.17 59.5165 368.17C61.1255 368.17 60.5891 296.324 60.5891 296.324L49.8624 297.429Z" fill="#264653"/>
<path d="M69.7069 297.396L68.6342 365.468C68.6342 365.468 77.7519 366.004 79.3609 366.004C80.97 366.004 80.4336 296.324 80.4336 296.324L69.7069 297.396Z" fill="#264653"/>
<path d="M42.1176 231.051C42.1176 231.051 225.985 231.126 233.923 231.051C247.235 230.933 261.115 232.734 263.325 236.293C265.534 239.852 272.056 293.226 261.008 296.71C249.959 300.194 38.8031 297.868 34.3837 297.868C29.9642 297.868 32.721 238.608 34.9414 235.703C37.1619 232.798 34.9414 232.219 42.1284 231.051H42.1176Z" fill="#264653"/>
<path d="M33.2359 243.261C33.2359 243.261 228.463 243.797 230.608 247.549C232.753 251.301 235.435 285.604 225.781 288.82C216.127 292.036 35.9176 293.108 31.0905 289.892C26.2635 286.676 26.2635 244.333 33.2359 243.261Z" fill="#FEFADA"/>
<path d="M164.252 255.342C153.118 255.342 142.391 254.956 133.434 254.635C125.808 254.367 119.79 254.141 115.843 254.238C94.0994 254.763 33.8473 255.31 33.2466 255.31V254.774C33.8473 254.774 94.0994 254.227 115.832 253.702C119.801 253.605 125.829 253.82 133.456 254.099C144.504 254.495 158.245 254.988 172.126 254.731C201.378 254.195 230.072 253.702 230.072 253.702V254.238C230.072 254.238 201.388 254.731 172.137 255.267C169.498 255.31 166.859 255.331 164.252 255.331V255.342Z" fill="#B1E2D3"/>
<path d="M103.689 266.405C76.9367 266.405 31.1656 265.515 30.5542 265.505V264.969C31.3802 264.99 112.71 266.566 121.71 265.505C126.076 264.99 149.235 264.132 173.746 263.211C199.79 262.235 226.714 261.238 229.492 260.681L229.6 261.206C226.779 261.774 199.833 262.771 173.767 263.747C149.267 264.658 126.13 265.526 121.774 266.03C119.511 266.298 112.667 266.394 103.7 266.394L103.689 266.405Z" fill="#B1E2D3"/>
<path d="M83.0831 274.552C57.6821 274.552 30.4255 274.091 30.0071 274.081V273.545C30.6293 273.555 91.9648 274.606 116.347 273.545C137.436 272.633 228.924 269.224 230.683 269.803L230.512 270.307C228.591 269.814 143.936 272.88 116.368 274.07C108.194 274.424 95.8694 274.542 83.0724 274.542L83.0831 274.552Z" fill="#B1E2D3"/>
<path d="M82.8364 283.536C58.1112 283.536 33.665 283.193 33.2359 283.193V282.657C33.9975 282.667 109.085 283.707 129.219 282.121C136.867 281.52 151.906 281.284 167.824 281.049C194.555 280.641 224.848 280.18 230.501 277.854L230.705 278.347C224.955 280.716 194.609 281.177 167.835 281.585C151.917 281.831 136.888 282.056 129.262 282.657C120.562 283.343 101.619 283.536 82.8364 283.536Z" fill="#B1E2D3"/>
<path d="M187.165 280.781C187.165 280.781 167.857 255.589 170.002 254.517C172.147 253.445 206.473 250.229 205.937 253.445C205.4 256.661 189.31 280.781 187.165 280.781Z" fill="#24AF86"/>
<path d="M158.203 299.005C158.203 299.005 138.894 273.813 141.04 272.741C143.185 271.669 177.511 268.453 176.974 271.669C176.438 274.885 160.348 299.005 158.203 299.005Z" fill="#FF9C28"/>
<path d="M85.797 242.725C85.797 242.725 92.233 308.116 92.233 311.868C92.233 315.62 99.7417 294.716 99.7417 294.716C99.7417 294.716 106.199 311.965 108.184 311.15C110.168 310.335 113.686 245.405 110.468 243.261C107.25 241.117 85.797 242.725 85.797 242.725Z" fill="#E75A51"/>
<path d="M453.531 150.49C453.531 150.49 478.492 336.31 481.217 344.232C483.942 352.154 485.175 383.049 466.543 383.628C462.199 383.767 425.76 398.947 420.6 370.807C418.39 358.779 387.948 154.596 387.412 149.954C386.875 145.312 442.333 138.816 445.572 140.799C448.822 142.783 451.482 143.083 453.542 150.501L453.531 150.49Z" fill="#FF9C28"/>
<path d="M413.799 331.539C413.799 331.539 471.756 320.101 476.004 321.913C480.252 323.725 482.376 349.731 483.534 360.076C484.693 370.421 478.063 383.746 460.622 386.201C443.18 388.655 421.684 391.625 418.959 367.333C416.921 349.174 413.799 331.539 413.799 331.539Z" fill="#FAA746"/>
<path d="M397.774 148.711C397.774 148.711 428.549 369.027 433.386 372.822C438.224 376.617 469.621 371.171 470.179 366.626C471.316 357.375 440.874 145.666 437.463 141.936C434.051 138.205 395.253 141.443 397.784 148.711H397.774Z" fill="#FEFADA"/>
<path d="M442.161 375.148C436.883 368.395 403.416 153.899 401.989 144.776L402.515 144.691C402.858 146.921 437.388 368.17 442.579 374.816L442.161 375.148Z" fill="#B1E2D3"/>
<path d="M455.462 369.092C455.194 367.055 428.849 164.737 424.365 141.475L424.891 141.378C429.375 164.662 455.73 366.99 455.988 369.027L455.451 369.102L455.462 369.092Z" fill="#B1E2D3"/>
<path d="M464.258 372.254L463.722 372.232C464.269 360.28 437.463 144.155 437.194 141.968L437.731 141.904C437.999 144.09 464.805 360.258 464.269 372.254H464.258Z" fill="#B1E2D3"/>
<path d="M451.804 371.782C451.407 369.681 412.619 161.221 413.542 140.928L414.078 140.949C413.156 161.178 451.933 369.585 452.33 371.686L451.804 371.782Z" fill="#B1E2D3"/>
<path d="M394.481 157.458C394.481 157.458 395.618 344.939 397.313 353.14C399.007 361.341 396.304 392.139 377.747 390.349C373.413 389.931 335.344 400.362 333.799 371.804C333.134 359.594 328.897 153.202 328.951 148.528C329.015 143.855 384.837 144.455 387.809 146.835C390.78 149.215 393.376 149.858 394.481 157.469V157.458Z" fill="#4F4F4F"/>
<path d="M332.062 332C332.062 332 391.005 328.013 394.996 330.35C398.986 332.687 396.304 357.482 396.133 367.891C395.961 378.3 389.182 391.936 371.558 392.161C353.934 392.386 332.491 392.482 334.55 368.127C336.106 349.688 332.072 332 332.072 332H332.062Z" fill="#264653"/>
<path d="M339.399 148.614C339.399 148.614 341.92 371.053 346.232 375.427C350.544 379.811 382.381 378.386 383.507 373.948C385.813 364.921 382.52 151.058 379.613 146.92C376.706 142.782 337.801 141.078 339.388 148.603L339.399 148.614Z" fill="#FEFADA"/>
<path d="M354.642 378.857C350.265 371.493 344.333 154.489 344.086 145.248H344.623C344.687 147.489 350.801 371.332 355.103 378.579L354.642 378.857Z" fill="#B1E2D3"/>
<path d="M368.597 374.537C368.597 372.479 368.179 168.468 366.688 144.809L367.224 144.776C368.715 168.446 369.133 372.479 369.133 374.537H368.597Z" fill="#B1E2D3"/>
<path d="M376.932 378.782L376.406 378.686C378.466 366.905 379.356 149.118 379.356 146.92H379.892C379.892 149.118 378.991 366.948 376.932 378.782Z" fill="#B1E2D3"/>
<path d="M364.639 376.735C364.521 374.602 352.539 162.904 356.036 142.89L356.562 142.986C353.075 162.936 365.057 374.569 365.175 376.713L364.639 376.746V376.735Z" fill="#B1E2D3"/>
<path d="M330.581 152.741C330.581 152.741 332.212 347.341 334.271 355.488C336.32 363.635 337.79 382.974 333.939 385.364C330.088 387.755 267.058 396.899 263.035 385.279C259.013 373.658 257.489 150.426 257.404 145.741C257.318 141.057 322.139 142.943 325.357 145.227C328.576 147.51 329.165 145.162 330.571 152.741H330.581Z" fill="#264653"/>
<path d="M257.275 160.181H327.739C327.739 160.181 328.5 169.615 327.739 169.615C326.977 169.615 260.686 170.397 258.412 169.872C256.138 169.347 257.275 160.181 257.275 160.181Z" fill="#E75A51"/>
<path d="M257.275 176.99H327.739C327.739 176.99 328.5 186.424 327.739 186.424C326.977 186.424 260.686 187.206 258.412 186.681C256.138 186.156 257.275 176.99 257.275 176.99Z" fill="#E75A51"/>
<path d="M277.741 204.915H313.376C313.376 204.915 314.481 334.906 314.094 334.906C313.708 334.906 279.468 338.947 278.321 332.075C277.173 325.204 277.741 204.915 277.741 204.915Z" fill="#E75A51"/>
<path d="M238.417 81.6787C238.417 81.6787 243.727 92.1631 257.007 101.007C270.286 109.851 285.851 91.3483 285.851 91.3483C285.851 91.3483 244.081 77.6372 238.417 81.6894V81.6787Z" fill="#FFDCB2"/>
<path d="M329.777 29.5476C329.777 29.5476 326.452 42.0256 327.782 46.2707C329.112 50.5158 344.741 51.6628 349.868 57.9126C354.985 64.1623 340.514 120.817 340.418 124.752C340.321 128.686 285.079 121.546 278.256 118.244C271.434 114.943 289.991 57.7089 296.578 52.5955C303.164 47.4821 309.621 52.2524 312.818 46.2707C316.015 40.289 314.641 33.7498 314.641 33.7498L329.777 29.5476Z" fill="#FFDCB2"/>
<path d="M338.133 16.5339C338.133 16.5339 332.083 43.1843 318.857 38.7676C309.761 35.7231 310.844 18.6672 315.864 12.353C320.895 6.04954 334.84 8.93328 338.133 16.5339Z" fill="#FFDCB2"/>
<path d="M320.27 23.2345C320.461 22.6617 320.257 22.0772 319.813 21.929C319.369 21.7807 318.854 22.1248 318.662 22.6976C318.471 23.2703 318.675 23.8549 319.119 24.0031C319.563 24.1514 320.078 23.8072 320.27 23.2345Z" fill="#264653"/>
<path d="M328.693 26.038C328.885 25.4653 328.68 24.8808 328.237 24.7325C327.793 24.5843 327.278 24.9284 327.086 25.5011C326.895 26.0739 327.099 26.6584 327.543 26.8067C327.987 26.9549 328.502 26.6108 328.693 26.038Z" fill="#264653"/>
<path d="M332.855 28.5721C332.855 28.5721 335.837 24.6807 337.135 27.2535C338.433 29.8264 334.497 34.3824 332.63 33.7285C330.764 33.0746 331.364 30.0836 332.855 28.5828V28.5721Z" fill="#FFDCB2"/>
<path d="M328.747 21.261C328.747 21.261 330.86 21.2825 331.257 23.9196C331.493 25.4526 326.43 21.1217 328.747 21.261Z" fill="#264653"/>
<path d="M321.678 18.7097C321.678 18.7097 320.198 17.2088 318.02 18.7311C316.755 19.6209 323.384 20.2855 321.678 18.7097Z" fill="#264653"/>
<path d="M313.719 22.376C313.719 22.376 313.708 17.4769 311.112 18.7311C308.516 19.9854 308.903 25.9994 310.78 26.6105C312.657 27.2215 313.998 24.4664 313.719 22.376Z" fill="#FFDCB2"/>
<path d="M320.412 7.73264C320.412 7.73264 317.892 18.142 312.807 20.4254C312.807 20.4254 304.076 8.30081 320.412 7.73264Z" fill="#264653"/>
<path d="M335.966 12.9209C335.966 12.9209 331.708 22.7513 334.411 27.629C334.411 27.629 348.688 23.1801 335.966 12.9209Z" fill="#264653"/>
<path d="M339.216 15.0545C339.216 15.0545 342.756 7.73263 337.618 3.50887C332.48 -0.704174 321.185 5.29914 320.552 0.668012C320.155 -2.2586 316.787 5.2777 321.646 6.97149C321.646 6.97149 316.787 2.72629 316.583 3.65895C314.566 12.6961 333.799 22.0441 339.227 15.0438L339.216 15.0545Z" fill="#264653"/>
<path d="M325.787 12.1493C325.572 12.0743 325.357 11.9993 325.143 11.9242C321.303 10.5306 319.973 8.9976 319.533 7.96846C319.115 6.99293 319.404 6.31755 319.426 6.29611L319.758 6.44619C319.758 6.44619 319.522 7.02509 319.876 7.85054C320.294 8.81536 321.571 10.2519 325.272 11.5919C328.264 12.6746 330.592 12.9212 332.287 13.0927C334.486 13.3178 335.805 13.4572 336.073 15.3011L335.709 15.3547C335.484 13.7895 334.475 13.6823 332.255 13.4572C330.656 13.2964 328.522 13.0713 325.797 12.1601L325.787 12.1493Z" fill="#264653"/>
<path d="M337.725 13.5751C337.725 13.5751 337.693 10.5306 332.823 8.25793C330.785 7.30383 329.165 7.64688 327.878 7.9256C326.913 8.12929 326.076 8.30081 325.379 7.85056C324.703 7.40031 324.231 6.39262 323.877 4.5809L324.231 4.50586C324.564 6.18893 324.993 7.15375 325.583 7.53968C326.151 7.91488 326.881 7.7648 327.803 7.56112C329.155 7.27167 330.828 6.9179 332.984 7.9256C338.09 10.3055 338.101 13.4465 338.101 13.5751H337.736H337.725Z" fill="#264653"/>
<path d="M321.893 30.416C321.367 30.2338 320.327 28.6579 320.37 27.2536L320.906 27.275C320.874 28.3363 321.582 29.4726 321.936 29.8157C322.268 29.1618 323.073 26.5139 323.727 24.0911L324.242 24.2305C323.191 28.1433 322.483 30.2123 322.139 30.4053L321.893 30.4267V30.416Z" fill="#E75A51"/>
<path d="M321.442 33.3747C321.228 33.3747 321.024 33.3532 320.82 33.2996C318.514 32.7315 317.581 29.1724 317.548 29.0223L318.063 28.8936C318.063 28.8936 318.954 32.2919 320.949 32.7851C322.064 33.0638 323.352 32.3992 324.778 30.8126L325.175 31.1663C323.845 32.635 322.601 33.3854 321.453 33.3854L321.442 33.3747Z" fill="#E75A51"/>
<path d="M311.949 25.1739L311.434 25.0131C312.389 21.8935 311.22 21.111 311.209 21.1003L311.488 20.6393C311.552 20.6714 313.032 21.5934 311.949 25.1632V25.1739Z" fill="#E75A51"/>
<path d="M333.124 32.2598L332.619 32.0775C333.896 28.572 335.634 28.7328 335.709 28.7435L335.644 29.2796L335.677 29.0116L335.655 29.2796C335.655 29.2796 334.239 29.1938 333.124 32.2705V32.2598Z" fill="#E75A51"/>
<path d="M352.314 209.986C352.314 209.986 346.8 225.509 349.568 231.501C352.335 237.494 359.136 240.517 362.89 239.895C366.645 239.273 358.149 230.633 357.345 224.973C356.54 219.312 359.844 209.975 359.844 209.975H352.303L352.314 209.986Z" fill="#264653"/>
<path d="M338.047 211.197C338.047 211.197 332.534 226.72 335.301 232.713C338.069 238.705 344.869 241.728 348.624 241.107C352.378 240.485 343.883 231.844 343.078 226.184C342.274 220.524 345.577 211.187 345.577 211.187H338.037L338.047 211.197Z" fill="#264653"/>
<path d="M302.788 140.027C302.788 140.027 310.34 119.413 331.01 124.291C351.692 129.157 358.267 212.559 347.648 219.859C343.486 222.721 329.015 220.545 328.747 216.782C325.883 176.272 301.351 157.094 302.778 140.027H302.788Z" fill="#FF9C28"/>
<path d="M321.796 125.234C321.796 125.234 355.521 120.421 370.592 135.375C385.663 150.329 375.087 214.821 362.193 220.502C357.334 222.646 348.806 219.28 348.806 219.28C345.62 214.96 311.659 139.041 321.796 125.234Z" fill="#FF9C28"/>
<path d="M349.053 219.366L348.549 219.184C350.962 212.559 357.548 168.65 352.325 144.101C349.589 131.237 345.438 126.735 342.445 125.223C339.667 123.819 337.489 124.784 337.468 124.784L337.243 124.301C337.339 124.258 339.656 123.229 342.67 124.73C345.781 126.284 350.061 130.894 352.85 143.983C358.096 168.618 351.477 212.709 349.053 219.355V219.366Z" fill="#FF9C28"/>
<path d="M317.806 144.295C317.806 144.295 282.719 145.86 276.862 141.154C266.811 133.049 278.246 118.266 278.246 118.266L331.01 124.301C331.01 124.301 330.388 144.112 317.806 144.305V144.295Z" fill="#FF9C28"/>
<path d="M309.267 48.6291C309.267 48.6291 309.385 58.1269 320.337 59.1239C329.906 59.9922 329.037 48.1038 335.677 50.7623C342.316 53.4209 347.047 51.6306 350.951 61.8468C354.856 72.0629 349.107 127.292 345.942 126.981C342.778 126.67 310.04 122.736 298.401 130.369C288.704 136.726 270.555 142.15 272.078 134.035C273.601 125.92 277.473 65.4594 283.03 56.7869C286.57 51.2554 306.489 48.8971 309.267 48.6398V48.6291Z" fill="#E75A51"/>
<path d="M228.184 73.0385C228.184 73.0385 289.519 65.0091 291.89 71.0338C294.271 77.0586 294.529 90.1694 291.89 91.1342C289.251 92.099 231.026 96.0441 229.021 93.0746C227.015 90.1051 228.173 73.0492 228.173 73.0492L228.184 73.0385Z" fill="#FF9C28"/>
<path d="M226.51 55.0075L291.922 54.9217C293.778 61.2145 294.389 72.7173 291.579 72.8888C273.258 73.9608 251.557 75.0435 238.417 75.0221C231.155 75.0114 226.51 74.6576 226.489 73.7786C226.382 70.1337 226.51 55.0075 226.51 55.0075Z" fill="#E75A51"/>
<path d="M225.041 35.6044C225.041 35.6044 290.549 30.2979 292.416 36.4942C294.282 42.6904 293.574 53.9788 290.86 54.7185C288.146 55.4582 243.845 54.9007 226.489 55.3081C222.896 55.3939 225.041 35.6044 225.041 35.6044Z" fill="#264653"/>
<path d="M220.396 75.9331C220.396 75.9331 220.353 70.1228 220.868 68.7935C222.585 64.3875 226.103 60.0458 225.803 62.4686C225.513 64.8913 224.741 68.0967 224.741 68.0967C224.741 68.0967 227.143 63.0689 227.841 63.487C228.538 63.9051 227.819 69.8869 227.819 69.8869C227.819 69.8869 228.892 64.4518 230.372 65.9848C231.852 67.5178 228.12 71.377 227.83 78.9884C227.626 84.5629 221.523 82.9013 220.375 75.9224L220.396 75.9331Z" fill="#FFDCB2"/>
<path d="M304.955 145.806C304.161 145.806 303.55 145.688 303.164 145.398C302.885 145.195 302.735 144.905 302.713 144.551C302.52 141.496 314.127 137.862 315.457 137.455L315.618 137.969C312.131 139.031 303.11 142.289 303.26 144.519C303.271 144.712 303.346 144.852 303.496 144.97C304.526 145.741 308.291 144.894 311.938 144.09C314.813 143.447 317.774 142.793 319.844 142.793C319.876 142.793 319.898 142.793 319.93 142.793V143.329C319.93 143.329 319.865 143.329 319.844 143.329C317.838 143.329 314.899 143.983 312.056 144.616C309.246 145.238 306.693 145.806 304.966 145.806H304.955Z" fill="#FF9C28"/>
<path d="M331.74 218.594L331.204 218.53C331.794 214.006 332.319 200.649 324.414 174.492C319.554 158.38 313.494 144.701 309.675 141.217C308.978 140.585 308.388 140.306 307.916 140.413C301.372 141.882 283.716 138.119 282.965 137.958L283.083 137.433C283.266 137.476 301.372 141.325 307.809 139.888C308.452 139.749 309.203 140.06 310.04 140.821C313.923 144.358 320.048 158.144 324.928 174.331C327.567 183.079 333.521 204.894 331.729 218.583L331.74 218.594Z" fill="#FF9C28"/>
<path d="M341.244 66.8208C341.244 66.8208 352.625 76.0079 355.929 84.7125C359.233 93.4171 338.348 115.586 329.412 116.679C320.477 117.773 272.324 91.7126 271.992 89.4828C271.659 87.2531 272.056 79.8992 275.049 80.2208C279.415 80.7032 311.059 91.7019 322.322 93.3635C328.136 94.2211 334.068 64.709 341.244 66.8101V66.8208Z" fill="#FFDCB2"/>
<path d="M323.995 82.9222C323.995 82.9222 349.503 88.3251 354.534 94.8535C357.034 98.1017 361.292 83.5547 360.938 71.7306C360.584 59.9065 339.163 49.7011 335.677 50.7624C332.19 51.8236 323.995 82.9222 323.995 82.9222Z" fill="#E75A51"/>
<path d="M330.71 78.3882L330.174 78.3131C330.249 77.7879 331.922 65.406 335.473 61.654C339.023 57.9126 345.599 56.5619 345.878 56.5083L345.985 57.0335C345.921 57.0443 339.302 58.4057 335.859 62.0292C332.416 65.6526 330.721 78.2595 330.699 78.3882H330.71Z" fill="#E75A51"/>
<path d="M277.076 131.495L276.572 131.312C276.701 130.948 280.101 122.329 301.866 121.192C313.236 120.592 322.547 121.139 330.024 121.568C336.824 121.964 341.737 122.254 344.784 121.45L344.923 121.964C341.791 122.779 336.846 122.49 329.991 122.093C322.526 121.653 313.236 121.117 301.898 121.718C280.541 122.843 277.119 131.398 277.087 131.484L277.076 131.495Z" fill="#E75A51"/>
<path d="M321.313 65.2025C315.221 65.2025 305.878 52.6491 305.481 52.1131L305.91 51.7915C306.006 51.9201 315.489 64.6557 321.313 64.6557C321.335 64.6557 321.367 64.6557 321.389 64.6557C325.229 64.5807 329.53 58.899 332.373 55.1469C334.261 52.6598 335.13 51.5664 335.73 51.6843L335.634 52.2096C335.269 52.2203 333.96 53.9462 332.813 55.4685C329.906 59.3063 325.508 65.1167 321.41 65.1917C321.378 65.1917 321.356 65.1917 321.324 65.1917L321.313 65.2025Z" fill="#E75A51"/>
<path d="M356.133 90.5015C355.972 90.3943 339.753 79.5025 328.811 81.7323L328.704 81.207C339.871 78.9451 356.272 89.944 356.433 90.0512L356.133 90.4907V90.5015Z" fill="#E75A51"/>
<path d="M314.888 35.8938C314.888 35.8938 317.849 39.7959 321.389 39.7316C324.928 39.6673 328.254 36.4834 328.254 36.4834C328.254 36.4834 327.825 38.8097 327.814 39.753C327.803 40.6964 323.137 44.3734 318.031 44.3627C315.907 44.3627 314.674 40.482 314.781 39.946C314.888 39.41 315.296 37.2445 314.91 35.9045L314.888 35.8938Z" fill="#E75A51"/>
<path d="M223.25 40.1282C223.25 40.1282 281.893 37.8555 284.156 40.1282C286.419 42.4009 286.419 49.8621 284.156 50.6876C281.893 51.513 223.947 51.8561 223.25 51.9526C222.552 52.0491 221.909 40.1711 223.25 40.1282Z" fill="#FEFADA"/>
<path d="M233.644 59.3812C233.644 59.3812 290.742 57.3444 292.952 59.3812C295.151 61.4181 295.151 68.1075 292.952 68.8471C290.753 69.5868 234.32 69.8977 233.644 69.9835C232.968 70.0693 232.335 59.4241 233.644 59.3812Z" fill="#FEFADA"/>
<path d="M237.302 94.1572L236.626 75.0324C236.626 75.0324 233.472 74.4213 232.764 75.0324C232.056 75.6434 232.067 93.8785 232.764 93.9428C233.461 94.0071 235.339 94.1679 237.302 94.1679V94.1572Z" fill="#264653"/>
<path d="M245.272 94.1572L244.596 75.0324C244.596 75.0324 241.442 74.4213 240.734 75.0324C240.026 75.6434 240.037 93.8785 240.734 93.9428C241.431 94.0071 243.309 94.1679 245.272 94.1679V94.1572Z" fill="#264653"/>
<path d="M280.091 92.0132L279.662 72.8776C279.662 72.8776 276.519 72.2237 275.8 72.824C275.081 73.4243 274.856 91.6594 275.553 91.7237C276.25 91.7881 278.128 91.981 280.08 92.0025L280.091 92.0132Z" fill="#264653"/>
<path d="M288.061 92.1204L287.632 72.9848C287.632 72.9848 284.489 72.3309 283.77 72.9312C283.051 73.5315 282.826 91.7666 283.523 91.8309C284.22 91.8952 286.098 92.0882 288.05 92.1097L288.061 92.1204Z" fill="#264653"/>
<path d="M289.938 84.4553C289.938 84.4553 275.875 79.7599 271.209 78.9559C266.543 78.1518 260.504 78.0875 262.724 79.1274C264.934 80.1672 268.055 81.2285 268.055 81.2285C268.055 81.2285 262.52 80.5853 262.499 81.4108C262.477 82.2362 267.937 84.7984 267.937 84.7984C267.937 84.7984 261.619 82.3756 262.134 84.4446C262.649 86.5136 274.566 91.3913 278.718 94.1571C283.352 97.2552 295.312 87.7786 289.948 84.4553H289.938Z" fill="#FFDCB2"/>
<path d="M341.995 229.464C339.849 229.464 337.436 228.864 337.286 228.821L337.414 228.306C338.948 228.692 343.207 229.464 344.462 228.36L344.816 228.767C344.215 229.293 343.142 229.464 341.995 229.464Z" fill="#FEFADA"/>
<path d="M343.003 232.283C341.426 232.283 339.903 231.79 339.806 231.758L339.978 231.254C339.978 231.254 343.378 232.348 345.041 231.286L345.331 231.737C344.676 232.155 343.84 232.294 343.003 232.294V232.283Z" fill="#FEFADA"/>
<path d="M357.044 228.381C354.899 228.381 352.485 227.781 352.335 227.738L352.464 227.224C353.998 227.609 358.256 228.381 359.511 227.277L359.865 227.685C359.265 228.21 358.192 228.381 357.044 228.381Z" fill="#FEFADA"/>
<path d="M358.063 231.201C356.487 231.201 354.963 230.708 354.867 230.675L355.038 230.172C355.038 230.172 358.439 231.265 360.101 230.204L360.391 230.654C359.737 231.072 358.9 231.211 358.063 231.211V231.201Z" fill="#FEFADA"/>
<path d="M366.484 215.625C366.012 215.603 354.974 215.153 351.305 212.912L351.584 212.451C355.146 214.617 366.398 215.089 366.505 215.089L366.484 215.625Z" fill="#FF9C28"/>
<path d="M342.778 212.752C337.479 212.752 330.378 212.602 328.34 212.559V212.023C336.116 212.194 347.937 212.334 348.688 212.055L348.935 212.527C348.624 212.698 346.049 212.752 342.778 212.752Z" fill="#FF9C28"/>
<path d="M222.391 43.773L222.37 43.237C222.531 43.237 238.01 42.5187 245.089 42.5187C250.131 42.5187 267.261 42.3365 277.505 42.24C281.753 42.1971 284.767 42.1649 285.132 42.1649V42.701C284.767 42.701 281.753 42.7331 277.505 42.776C267.261 42.8832 250.131 43.0547 245.089 43.0547C238.031 43.0547 222.552 43.7623 222.402 43.773H222.391Z" fill="#B1E2D3"/>
<path d="M244.242 49.2616C235.446 49.2616 223.25 48.9615 223.089 48.9615V48.4255C223.325 48.4255 244.971 48.9615 251.332 48.6077C257.693 48.2539 284.489 45.9491 284.757 45.9277L284.8 46.4637C284.532 46.4851 257.725 48.79 251.364 49.1437C249.766 49.2295 247.202 49.2616 244.253 49.2616H244.242Z" fill="#B1E2D3"/>
<path d="M248.758 64.098C241.389 64.098 232.871 63.7871 232.743 63.7871L232.764 63.2511C232.957 63.2511 252.115 63.9587 257.747 63.2511C263.421 62.5436 293.767 62.1791 294.068 62.1791V62.7151C293.767 62.7151 263.453 63.0796 257.811 63.7871C255.902 64.023 252.48 64.1087 248.758 64.1087V64.098Z" fill="#B1E2D3"/>
<path d="M233.644 67.7214V67.1854C233.933 67.1854 263.346 66.9924 267.916 66.1133C272.539 65.2236 293.37 65.5559 294.25 65.5773V66.1133C294.025 66.1133 272.582 65.7703 268.012 66.6494C263.389 67.5391 234.856 67.7214 233.644 67.7214Z" fill="#B1E2D3"/>
<path d="M271.37 42.2614C271.37 42.2614 271.724 59.2315 271.906 60.668C272.088 62.1045 275.478 54.4181 275.478 54.4181L279.415 61.0325L280.134 41.9184C280.134 41.9184 271.906 41.5646 271.37 42.2721V42.2614Z" fill="#E75A51"/>
<path d="M248.093 223.354C248.093 223.354 235.811 218.144 230.801 235.468C225.792 252.791 226.006 259.92 233.901 262.397C241.796 264.873 243.287 258.409 249.455 260.842C255.623 263.276 266.521 264.348 268.28 256.886C270.05 249.436 264.719 215.228 248.093 223.343V223.354Z" fill="#E75A51"/>
<path d="M256.567 233.806C256.567 233.806 253.789 260.016 258.24 263.929C262.692 267.841 280.681 261.903 285.465 269.439C290.249 276.975 288.822 332.954 288.822 332.954H212.93C212.93 332.954 214.218 268.463 218.154 265.644C222.091 262.825 240.573 269.61 241.528 258.547C241.989 253.252 242.493 238.276 242.493 238.276L256.567 233.795V233.806Z" fill="#FFDCB2"/>
<path d="M241.936 253.488C241.936 253.488 249.927 259.823 255.719 250.079C255.719 250.079 255.591 255.975 255.784 256.918C255.977 257.861 250.099 262.943 249.187 262.943C246.763 262.943 241.742 257.186 241.742 257.186L241.946 253.498L241.936 253.488Z" fill="#E75A51"/>
<path d="M235.07 265.044C235.07 265.044 239.661 280.555 247.921 281.767C256.191 282.967 258.219 264.508 260.579 265.044C262.938 265.58 275.757 259.201 281.496 268.313C287.235 277.425 286.73 348.724 286.73 348.724H212.92C212.92 348.724 214.346 281.574 216.245 273.759C218.144 265.944 230.748 264.004 235.06 265.044H235.07Z" fill="#B1E2D3"/>
<path d="M259.645 231.19C259.645 231.19 260.868 258.494 246.934 257.723C237.355 257.197 233.88 240.452 237.055 233.045C240.23 225.637 254.454 224.726 259.635 231.19H259.645Z" fill="#FFDCB2"/>
<path d="M243.662 244.484C243.695 243.881 243.343 243.372 242.875 243.346C242.408 243.321 242.003 243.789 241.97 244.392C241.937 244.995 242.289 245.505 242.756 245.53C243.223 245.556 243.629 245.087 243.662 244.484Z" fill="#264653"/>
<path d="M253.022 244.488C253.055 243.885 252.703 243.375 252.236 243.35C251.768 243.324 251.363 243.792 251.33 244.395C251.297 244.998 251.649 245.508 252.116 245.533C252.584 245.559 252.989 245.091 253.022 244.488Z" fill="#264653"/>
<path d="M257.747 244.204C257.747 244.204 259.592 239.659 261.523 241.792C263.453 243.925 260.858 249.36 258.895 249.221C256.921 249.082 256.706 246.037 257.747 244.193V244.204Z" fill="#FFDCB2"/>
<path d="M251.847 238.244C251.847 238.244 253.885 237.708 254.969 240.141C255.601 241.556 249.573 238.726 251.847 238.244Z" fill="#E75A51"/>
<path d="M244.092 238.533C244.092 238.533 242.268 237.472 240.573 239.519C239.586 240.72 246.151 239.594 244.092 238.533Z" fill="#E75A51"/>
<path d="M237.656 243.282C237.656 243.282 236.347 238.555 234.18 240.463C232.013 242.371 233.976 248.063 235.939 248.149C237.902 248.235 238.481 245.233 237.656 243.293V243.282Z" fill="#FFDCB2"/>
<path d="M248.168 249.2H248.06C247.556 249.178 246.205 249.125 245.862 247.731L246.387 247.602C246.591 248.46 247.32 248.621 248.018 248.653C248.114 247.924 247.921 244.783 247.664 241.931L248.2 241.888C248.608 246.402 248.683 248.824 248.414 249.103L248.178 249.2H248.168Z" fill="#E75A51"/>
<path d="M247.32 251.944C244.971 251.944 243.169 248.814 243.094 248.685L243.566 248.417C243.566 248.417 245.293 251.408 247.32 251.408C247.342 251.408 247.353 251.408 247.374 251.408C248.522 251.376 249.584 250.4 250.538 248.492L251.021 248.728C249.97 250.829 248.747 251.912 247.385 251.944C247.363 251.944 247.342 251.944 247.32 251.944Z" fill="#E75A51"/>
<path d="M236.679 246.455H236.143C236.24 243.186 234.91 242.735 234.888 242.735L235.028 242.221C235.103 242.242 236.776 242.735 236.669 246.466L236.679 246.455Z" fill="#E75A51"/>
<path d="M258.98 247.688L258.444 247.645C258.744 243.936 260.471 243.625 260.546 243.614L260.632 244.14C260.632 244.14 259.249 244.44 258.98 247.688Z" fill="#E75A51"/>
<path d="M234.019 239.155C234.019 239.155 235.403 240.956 238.718 239.359C247.063 235.339 248.779 226.227 248.779 226.227C248.779 226.227 249.584 232.53 250.796 234.674C252.008 236.818 257.875 240.903 259.227 240.538C260.579 240.174 264.172 232.337 257.146 226.87C250.12 221.403 248.339 223.536 244.199 225.219C240.058 226.902 230.672 233.463 234.03 239.166L234.019 239.155Z" fill="#E75A51"/>
<path d="M249.305 226.098C253.629 226.098 257.135 222.595 257.135 218.273C257.135 213.951 253.629 210.447 249.305 210.447C244.98 210.447 241.474 213.951 241.474 218.273C241.474 222.595 244.98 226.098 249.305 226.098Z" fill="#E75A51"/>
<path d="M247.921 281.992C247.921 281.992 240.97 263.232 236.422 265.644C231.874 268.056 228.173 281.724 231.906 284.136C235.639 286.548 247.921 281.992 247.921 281.992Z" fill="#FEFADA"/>
<path d="M249.305 281.992C249.305 281.992 256.256 263.232 260.804 265.644C265.352 268.056 269.053 281.724 265.32 284.136C261.587 286.548 249.305 281.992 249.305 281.992Z" fill="#FEFADA"/>
<path d="M265.331 264.111C265.331 264.111 263.325 326.126 266.865 332.954C270.404 339.783 287.127 336.846 289.026 331.475C290.925 326.104 288.039 276.932 286.752 273.18C285.465 269.428 281.11 260.863 265.331 264.1V264.111Z" fill="#FF9C28"/>
<path d="M235.285 264.111C235.285 264.111 237.291 326.126 233.751 332.954C230.222 339.783 213.488 336.846 211.59 331.475C209.691 326.104 212.576 276.932 213.864 273.18C215.151 269.428 219.506 260.863 235.285 264.1V264.111Z" fill="#FF9C28"/>
<path d="M174.153 356.828C174.153 356.828 164.96 315.427 191.059 314.666C217.157 313.905 274.062 361.105 255.784 378.086C237.495 395.066 175.43 389.17 174.153 356.839V356.828Z" fill="#24AF86"/>
<path d="M328.511 356.828C328.511 356.828 333.649 315.331 307.551 314.57C281.453 313.809 218.133 361.105 236.422 378.085C254.711 395.066 327.235 389.17 328.511 356.839V356.828Z" fill="#24AF86"/>
<path d="M65.8238 385.911H254.529C254.529 385.911 236.465 322.181 181.254 322.62C126.044 323.06 102.96 374.259 61.8012 346.065C61.8012 346.065 50.7634 372.533 65.8131 385.911H65.8238Z" fill="#FEFADA"/>
<path d="M428.291 385.911H239.586C239.586 385.911 257.65 322.181 312.861 322.62C368.071 323.06 391.155 374.259 432.314 346.065C432.314 346.065 443.352 372.533 428.302 385.911H428.291Z" fill="#FEFADA"/>
<path d="M230.93 264.722C230.93 264.722 230.919 257.647 229.503 253.123C228.087 248.599 227.24 242.628 228.57 244.686C229.889 246.745 231.348 249.693 231.348 249.693C231.348 249.693 229.986 244.29 230.801 244.172C231.616 244.054 234.867 249.114 234.867 249.114C234.867 249.114 232.228 244.247 234.352 244.483C236.476 244.719 246.945 257.722 241.045 269.664C238.578 274.66 234.942 269.611 230.941 264.722H230.93Z" fill="#FFDCB2"/>
<path d="M230.372 261.388C230.372 261.388 240.552 262.546 243.577 268.013C246.602 273.48 219.86 325.74 207.631 326.04C195.403 326.34 189.053 316.703 187.133 314.559C185.212 312.415 219.753 256.982 230.372 261.388Z" fill="#FF9C28"/>
<path d="M264.312 264.722C264.312 264.722 264.322 257.647 265.738 253.123C267.154 248.61 268.002 242.628 266.671 244.686C265.352 246.745 263.893 249.693 263.893 249.693C263.893 249.693 265.256 244.29 264.44 244.172C263.625 244.054 260.375 249.114 260.375 249.114C260.375 249.114 263.014 244.247 260.89 244.483C258.766 244.719 248.393 259.984 254.196 269.664C257.071 274.446 260.3 269.611 264.301 264.722H264.312Z" fill="#FFDCB2"/>
<path d="M264.312 261.388C264.312 261.388 254.132 262.546 251.107 268.013C248.082 273.48 274.824 325.74 287.052 326.04C299.281 326.351 305.631 316.703 307.551 314.559C309.471 312.415 274.931 256.982 264.312 261.388Z" fill="#FF9C28"/>
<path d="M227.294 264.111C227.294 264.111 222.23 307.827 218.691 314.656C215.151 321.484 189.02 319.93 187.122 314.559C185.223 309.188 204.574 276.932 205.861 273.191C207.149 269.449 211.504 260.874 227.283 264.111H227.294Z" fill="#FF9C28"/>
<path d="M271.606 264.111C271.606 264.111 276.669 307.827 280.209 314.656C283.748 321.484 305.652 319.93 307.551 314.559C309.45 309.188 290.946 277.232 289.659 273.491C288.372 269.75 285.776 261.142 271.606 264.111Z" fill="#FF9C28"/>
<path d="M300.546 303.09C292.158 282.925 276.293 265.44 271.552 264.379L271.67 263.854C277.13 265.076 293.124 283.815 301.04 302.875L300.546 303.079V303.09Z" fill="#FF9C28"/>
<path d="M275.371 317.454C275.285 317.304 266.446 302.446 264.558 300.355L264.955 300.001C266.875 302.135 275.467 316.575 275.832 317.186L275.371 317.465V317.454Z" fill="#FF9C28"/>
<path d="M229.632 250.368L229.45 249.864C229.643 249.789 234.255 248.095 236.047 248.996L235.811 249.478C234.502 248.824 230.919 249.896 229.643 250.368H229.632Z" fill="#E75A51"/>
<path d="M241.903 276.386C239.093 271.969 221.759 264.743 221.587 264.679L221.791 264.186C222.509 264.486 239.458 271.551 242.354 276.107L241.903 276.396V276.386Z" fill="#FF9C28"/>
<path d="M193.14 302.629L192.646 302.414C197.066 292.08 216.996 269.567 217.2 269.342L217.597 269.696C217.393 269.921 197.527 292.369 193.14 302.629Z" fill="#FF9C28"/>
<path d="M217.597 319.384L217.2 319.03C217.35 318.858 232.228 302.113 234.716 291.243L235.242 291.361C232.721 302.371 217.757 319.212 217.607 319.384H217.597Z" fill="#FF9C28"/>
<path d="M431.155 385.911H65.8238V405.036H431.155V385.911Z" fill="#E75A51"/>
<path d="M204.252 324.454C198.9 324.454 192.421 322.524 188.87 314.398C188.774 314.184 188.87 314.045 188.913 313.991C189.181 313.691 189.857 313.873 192.7 314.709C197.677 316.178 206.956 318.911 217.393 318.933V319.469C206.87 319.437 197.548 316.692 192.539 315.224C191.166 314.816 189.943 314.463 189.439 314.398C196.036 329.053 212.652 322.438 212.823 322.374L213.027 322.867C212.941 322.899 209.047 324.454 204.242 324.454H204.252Z" fill="#FF9C28"/>
<path d="M252.598 274.906L252.33 274.445C252.909 274.102 266.511 266.191 271.638 266.684L271.584 267.22C266.661 266.727 252.737 274.831 252.598 274.906Z" fill="#FF9C28"/>
<path d="M287.932 320.863C282.987 320.863 279.232 319.458 279.147 319.426L279.34 318.922C279.511 318.987 296.535 325.344 305.631 310.432L306.092 310.711C301.061 318.944 293.692 320.863 287.921 320.863H287.932Z" fill="#FF9C28"/>
<path d="M242.719 247.935C240.605 247.935 238.878 246.209 238.878 244.097C238.878 241.985 240.595 240.259 242.719 240.259C244.842 240.259 246.559 241.985 246.559 244.097C246.559 246.209 244.832 247.935 242.719 247.935ZM242.719 240.795C240.895 240.795 239.415 242.274 239.415 244.097C239.415 245.919 240.895 247.399 242.719 247.399C244.542 247.399 246.022 245.919 246.022 244.097C246.022 242.274 244.542 240.795 242.719 240.795Z" fill="#FEFADA"/>
<path d="M252.458 247.935C250.345 247.935 248.618 246.209 248.618 244.097C248.618 241.985 250.345 240.259 252.458 240.259C254.572 240.259 256.299 241.985 256.299 244.097C256.299 246.209 254.582 247.935 252.458 247.935ZM252.458 240.795C250.635 240.795 249.155 242.274 249.155 244.097C249.155 245.919 250.635 247.399 252.458 247.399C254.282 247.399 255.762 245.919 255.762 244.097C255.762 242.274 254.282 240.795 252.458 240.795Z" fill="#FEFADA"/>
<path d="M249.305 243.4H246.119V243.936H249.305V243.4Z" fill="#FEFADA"/>
<path d="M236.066 240.048L235.771 240.496L239.317 242.832L239.613 242.385L236.066 240.048Z" fill="#FEFADA"/>
<path d="M256.127 242.853L255.934 242.349L259.549 240.977L259.742 241.47L256.127 242.853Z" fill="#FEFADA"/>
<path d="M243.427 386.029C228.967 354.855 215.612 340.255 198.782 337.232C182.617 334.327 163.974 342.056 138.176 352.733C131.976 355.306 125.561 357.964 118.621 360.698C91.7932 371.3 73.7509 373.015 64.9871 365.779C58.2078 360.172 59.849 351.039 59.8704 350.953L60.3961 351.05C60.3746 351.136 58.7978 359.969 65.3304 365.372C71.2408 370.249 85.2499 373.315 118.417 360.205C125.357 357.46 131.761 354.802 137.961 352.24C163.845 341.52 182.552 333.769 198.868 336.706C215.891 339.762 229.353 354.448 243.899 385.804L243.416 386.029H243.427Z" fill="#B1E2D3"/>
<path d="M234.759 386.705C234.545 386.426 213.113 358.543 178.626 361.405C167.02 362.37 151.992 366.594 136.095 371.075C103.764 380.176 70.3397 389.599 58.5618 373.894L58.9908 373.573C70.5543 388.978 103.796 379.608 135.945 370.55C151.874 366.069 166.913 361.823 178.573 360.859C213.37 357.975 234.963 386.094 235.178 386.373L234.749 386.694L234.759 386.705Z" fill="#B1E2D3"/>
<path d="M133.638 386.169L133.456 385.665C150.823 379.254 175.784 372.597 196.1 377.249C208.296 380.037 212.952 385.515 213.145 385.751L212.737 386.094C212.694 386.04 207.975 380.498 195.929 377.764C184.794 375.234 164.95 374.634 133.649 386.179L133.638 386.169Z" fill="#B1E2D3"/>
<path d="M251.021 386.029L250.538 385.804C265.084 354.448 278.557 339.762 295.569 336.706C311.874 333.769 330.592 341.52 356.476 352.24C362.676 354.813 369.09 357.46 376.02 360.205C394.33 367.441 418.391 374.216 429.107 365.372C435.639 359.969 434.062 351.136 434.041 351.05L434.566 350.953C434.588 351.05 436.229 360.183 429.45 365.779C420.686 373.015 402.644 371.311 375.816 360.698C368.876 357.953 362.461 355.295 356.261 352.733C330.463 342.045 311.82 334.327 295.655 337.232C278.825 340.255 265.481 354.845 251.01 386.029H251.021Z" fill="#B1E2D3"/>
<path d="M259.699 386.705L259.27 386.383C259.484 386.105 281.088 357.986 315.875 360.869C327.535 361.834 342.585 366.069 358.514 370.56C390.662 379.619 423.915 388.978 435.468 373.573L435.897 373.894C424.119 389.589 390.694 380.176 358.364 371.075C342.467 366.594 327.438 362.37 315.832 361.405C281.335 358.554 259.914 386.426 259.699 386.705Z" fill="#B1E2D3"/>
<path d="M360.82 386.169C343.529 379.79 318.664 373.154 298.487 377.775C286.462 380.53 281.785 386.04 281.732 386.094L281.324 385.751C281.517 385.515 286.173 380.037 298.369 377.249C309.578 374.687 329.541 374.066 361.002 385.665L360.82 386.169Z" fill="#B1E2D3"/>
<path d="M237.752 240.024L237.666 239.498C238.138 239.412 249.273 237.386 248.5 225.315L249.037 225.283C249.455 231.844 246.366 235.51 243.695 237.429C240.809 239.498 237.881 240.013 237.763 240.034L237.752 240.024Z" fill="#E75A51"/>
<path d="M243.727 223.611C241.946 223.022 240.906 222.057 240.627 220.76C239.887 217.297 244.885 212.698 245.1 212.505L245.465 212.902C245.465 212.902 240.477 217.49 241.152 220.652C241.388 221.757 242.311 222.582 243.898 223.107L243.727 223.611Z" fill="#E75A51"/>
<path d="M253.917 224.898L253.789 224.372C253.789 224.372 256.567 223.676 257.361 221.542C257.918 220.031 257.393 218.155 255.805 215.946L256.245 215.635C257.951 217.994 258.498 220.052 257.865 221.735C256.974 224.147 254.035 224.876 253.917 224.898Z" fill="#E75A51"/>
<path d="M228.57 257.894C228.57 257.894 225.116 252.663 226.221 246.402C226.789 243.175 228.141 241.621 229.224 240.377C230.404 239.027 231.252 238.062 230.544 235.553C229.696 232.53 232.088 227.856 234.791 225.251C236.808 223.311 238.857 222.55 240.562 223.107L240.402 223.622C238.9 223.139 237.033 223.858 235.167 225.648C232.196 228.499 230.351 232.884 231.059 235.414C231.842 238.201 230.866 239.327 229.621 240.742C228.581 241.932 227.283 243.422 226.736 246.509C225.674 252.556 228.978 257.562 229.01 257.615L228.559 257.916L228.57 257.894Z" fill="#E75A51"/>
<path d="M239.543 236.818L239.425 236.293C244.242 235.178 246.162 230.858 246.344 227.502C246.43 225.98 246.087 225.219 245.894 225.144C245.819 225.122 245.679 225.208 245.508 225.455C243.502 228.263 234.577 235.768 234.202 236.089L233.858 235.682C233.955 235.607 243.105 227.899 245.078 225.144C245.475 224.586 245.84 224.565 246.076 224.64C246.773 224.887 246.956 226.291 246.881 227.535C246.687 231.083 244.649 235.639 239.543 236.818Z" fill="#E75A51"/>
<path d="M248.715 221.478C246.602 219.516 247.417 215.882 247.46 215.732L247.985 215.85C247.985 215.85 247.202 219.345 249.08 221.092L248.715 221.489V221.478Z" fill="#E75A51"/>
<path d="M250.163 221.564C249.948 221.564 249.809 221.542 249.798 221.542L249.423 221.478L249.605 221.146C251.3 218.08 251.911 214.435 251.922 214.403L252.448 214.488C252.426 214.638 251.868 217.972 250.281 221.028C250.678 221.006 251.289 220.899 251.804 220.449C252.491 219.838 252.812 218.798 252.77 217.34L253.306 217.318C253.36 218.948 252.973 220.138 252.158 220.856C251.461 221.467 250.635 221.564 250.174 221.564H250.163Z" fill="#E75A51"/>
<path d="M258.487 237.236C258.24 236.883 252.512 228.467 251.193 225.401L251.686 225.187C252.984 228.21 258.873 236.85 258.927 236.936L258.487 237.236Z" fill="#E75A51"/>
<path d="M262.585 242.318C262.188 234.31 256.985 227.674 256.932 227.609L257.35 227.277C257.403 227.341 262.713 234.117 263.121 242.296L262.585 242.328V242.318Z" fill="#E75A51"/>
<path d="M267.165 242.607C267.111 236.132 265.288 232.262 263.775 230.161C262.134 227.888 260.482 227.116 260.471 227.106L260.697 226.613C260.975 226.741 267.605 229.861 267.712 242.596H267.176L267.165 242.607Z" fill="#E75A51"/>
<path d="M264.548 250.272C263.335 248.599 259.002 249.478 258.959 249.489L258.852 248.964C259.045 248.921 263.582 247.999 264.987 249.961L264.548 250.272Z" fill="#E75A51"/>
</svg>
